SplineFontDB: 3.0
FontName: Share-TechMono
FullName: Share-TechMono
FamilyName: Share-TechMono
Weight: Book
Copyright: Copyright (c) This Font is designed by Ralph Oliver du Carrois, 2005. All rights reserved.
Version: 1.000;PS 001.000;hotconv 1.0.38
ItalicAngle: 0
UnderlinePosition: -61
UnderlineWidth: 75
Ascent: 808
Descent: 192
sfntRevision: 0x00010000
LayerCount: 2
Layer: 0 1 "Back"  1
Layer: 1 1 "Fore"  0
XUID: [1021 726 820865986 819501]
FSType: 0
OS2Version: 2
OS2_WeightWidthSlopeOnly: 0
OS2_UseTypoMetrics: 1
CreationTime: 1130492196
ModificationTime: 1130841143
PfmFamily: 17
TTFWeight: 400
TTFWidth: 5
LineGap: 73
VLineGap: 0
Panose: 2 0 5 9 4 0 0 2 0 4
OS2TypoAscent: 808
OS2TypoAOffset: 0
OS2TypoDescent: -192
OS2TypoDOffset: 0
OS2TypoLinegap: 200
OS2WinAscent: 855
OS2WinAOffset: 0
OS2WinDescent: 200
OS2WinDOffset: 0
HheadAscent: 885
HheadAOffset: 0
HheadDescent: -242
HheadDOffset: 0
OS2SubXSize: 700
OS2SubYSize: 650
OS2SubXOff: 0
OS2SubYOff: 140
OS2SupXSize: 700
OS2SupYSize: 650
OS2SupXOff: 0
OS2SupYOff: 477
OS2StrikeYSize: 50
OS2StrikeYPos: 250
OS2Vendor: 'pyrs'
OS2CodePages: 20000001.00000000
OS2UnicodeRanges: 800000af.4000204a.00000000.00000000
Lookup: 1 0 0 "'aalt' Access All Alternates in Latin lookup 0"  {"'aalt' Access All Alternates in Latin lookup 0 subtable"  } ['aalt' ('latn' <'dflt' > ) ]
Lookup: 4 0 0 "'frac' Diagonal Fractions in Latin lookup 1"  {"'frac' Diagonal Fractions in Latin lookup 1 subtable"  } ['frac' ('latn' <'dflt' > ) ]
Lookup: 1 0 0 "'numr' Numerators in Latin lookup 2"  {"'numr' Numerators in Latin lookup 2 subtable"  } ['numr' ('latn' <'dflt' > ) ]
Lookup: 4 0 1 "'liga' Standard Ligatures in Latin lookup 3"  {"'liga' Standard Ligatures in Latin lookup 3 subtable"  } ['liga' ('latn' <'dflt' > ) ]
Lookup: 1 0 0 "'ordn' Ordinals in Latin lookup 4"  {"'ordn' Ordinals in Latin lookup 4 subtable"  } ['ordn' ('latn' <'dflt' > ) ]

StartChar: .notdef
Encoding: 65536 -1 0
Width: 540
Flags: W
LayerCount: 2
Fore
SplineSet
84 700 m 1,0,-1
 456 700 l 1,1,-1
 456 0 l 1,2,-1
 84 0 l 1,3,-1
 84 700 l 1,0,-1
381 72 m 1,4,-1
 381 628 l 1,5,-1
 159 628 l 1,6,-1
 159 72 l 1,7,-1
 381 72 l 1,4,-1
EndSplineSet
EndChar

StartChar: numbersign
Encoding: 35 35 4
Width: 540
Flags: W
LayerCount: 2
Fore
SplineSet
310 455 m 1,0,-1
 230 455 l 1,1,-1
 230 255 l 1,2,-1
 310 255 l 1,3,-1
 310 455 l 1,0,-1
390 180 m 1,4,-1
 390 0 l 1,5,-1
 310 0 l 1,6,-1
 310 180 l 1,7,-1
 230 180 l 1,8,-1
 230 0 l 1,9,-1
 150 0 l 1,10,-1
 150 180 l 1,11,-1
 80 180 l 1,12,-1
 80 255 l 1,13,-1
 150 255 l 1,14,-1
 150 455 l 1,15,-1
 80 455 l 1,16,-1
 80 530 l 1,17,-1
 150 530 l 1,18,-1
 150 700 l 1,19,-1
 230 700 l 1,20,-1
 230 530 l 1,21,-1
 310 530 l 1,22,-1
 310 700 l 1,23,-1
 390 700 l 1,24,-1
 390 530 l 1,25,-1
 460 530 l 1,26,-1
 460 455 l 1,27,-1
 390 455 l 1,28,-1
 390 255 l 1,29,-1
 460 255 l 1,30,-1
 460 180 l 1,31,-1
 390 180 l 1,4,-1
EndSplineSet
EndChar

StartChar: dollar
Encoding: 36 36 5
Width: 540
Flags: W
LayerCount: 2
Fore
SplineSet
227 -110 m 1,0,-1
 227 0 l 1,1,-1
 122 0 l 1,2,-1
 122 76 l 1,3,-1
 264 76 l 2,4,5
 302 76 302 76 324.5 98.5 c 128,-1,6
 347 121 347 121 347 151 c 2,7,-1
 347 235 l 2,8,9
 347 264 347 264 332 283 c 128,-1,10
 317 302 317 302 285 302 c 2,11,-1
 265 302 l 2,12,13
 193 302 193 302 149 344 c 128,-1,14
 105 386 105 386 105 472 c 2,15,-1
 105 500 l 2,16,17
 105 570 105 570 136 610.5 c 128,-1,18
 167 651 167 651 227 664 c 1,19,-1
 227 780 l 1,20,-1
 312 780 l 1,21,-1
 312 670 l 1,22,-1
 418 670 l 1,23,-1
 418 594 l 1,24,-1
 275 594 l 2,25,26
 237 594 237 594 214.5 571.5 c 128,-1,27
 192 549 192 549 192 519 c 2,28,-1
 192 453 l 2,29,30
 192 423 192 423 211.5 402 c 128,-1,31
 231 381 231 381 264 381 c 2,32,-1
 284 381 l 2,33,34
 353 381 353 381 393.5 341.5 c 128,-1,35
 434 302 434 302 434 216 c 2,36,-1
 434 170 l 2,37,38
 434 100 434 100 402.5 59 c 128,-1,39
 371 18 371 18 312 5 c 1,40,-1
 312 -110 l 1,41,-1
 227 -110 l 1,0,-1
EndSplineSet
EndChar

StartChar: percent
Encoding: 37 37 6
Width: 540
Flags: W
LayerCount: 2
Fore
SplineSet
12 281 m 1,0,-1
 12 343 l 1,1,-1
 527 416 l 1,2,-1
 527 354 l 1,3,-1
 12 281 l 1,0,-1
289 532 m 1,4,5
 289 467 289 467 256.5 435.5 c 128,-1,6
 224 404 224 404 167 404 c 2,7,-1
 159 404 l 2,8,9
 102 404 102 404 69.5 435.5 c 128,-1,10
 37 467 37 467 37 532 c 2,11,-1
 37 572 l 2,12,13
 37 637 37 637 69.5 668.5 c 128,-1,14
 102 700 102 700 159 700 c 2,15,-1
 167 700 l 2,16,17
 224 700 224 700 256.5 668.5 c 128,-1,18
 289 637 289 637 289 572 c 2,19,-1
 289 532 l 1,20,-1
 289 532 l 1,4,5
219 583 m 2,21,22
 219 606 219 606 207 623 c 128,-1,23
 195 640 195 640 167 640 c 2,24,-1
 159 640 l 2,25,26
 131 640 131 640 119 623 c 128,-1,27
 107 606 107 606 107 583 c 2,28,-1
 107 521 l 2,29,30
 107 498 107 498 119 481 c 128,-1,31
 131 464 131 464 159 464 c 2,32,-1
 167 464 l 2,33,34
 195 464 195 464 207 481 c 128,-1,35
 219 498 219 498 219 521 c 2,36,-1
 219 583 l 2,21,22
499 128 m 1,37,38
 499 63 499 63 466.5 31.5 c 128,-1,39
 434 0 434 0 377 0 c 2,40,-1
 369 0 l 2,41,42
 312 0 312 0 279.5 31.5 c 128,-1,43
 247 63 247 63 247 128 c 2,44,-1
 247 168 l 2,45,46
 247 233 247 233 279.5 264.5 c 128,-1,47
 312 296 312 296 369 296 c 2,48,-1
 377 296 l 2,49,50
 434 296 434 296 466.5 264.5 c 128,-1,51
 499 233 499 233 499 168 c 2,52,-1
 499 128 l 1,53,-1
 499 128 l 1,37,38
429 179 m 2,54,55
 429 202 429 202 417 219 c 128,-1,56
 405 236 405 236 377 236 c 2,57,-1
 369 236 l 2,58,59
 341 236 341 236 329 219 c 128,-1,60
 317 202 317 202 317 179 c 2,61,-1
 317 117 l 2,62,63
 317 94 317 94 329 77 c 128,-1,64
 341 60 341 60 369 60 c 2,65,-1
 377 60 l 2,66,67
 405 60 405 60 417 77 c 128,-1,68
 429 94 429 94 429 117 c 2,69,-1
 429 179 l 2,54,55
EndSplineSet
Ligature2: "'frac' Diagonal Fractions in Latin lookup 1 subtable" zero fraction zero
Ligature2: "'frac' Diagonal Fractions in Latin lookup 1 subtable" zero slash zero
EndChar

StartChar: ampersand
Encoding: 38 38 7
Width: 540
Flags: W
LayerCount: 2
Fore
SplineSet
253 0 m 2,0,1
 162 0 162 0 122.5 37.5 c 128,-1,2
 83 75 83 75 83 158 c 2,3,-1
 83 284 l 2,4,5
 83 329 83 329 99.5 359.5 c 128,-1,6
 116 390 116 390 148 407 c 1,7,8
 122 425 122 425 107.5 454 c 128,-1,9
 93 483 93 483 93 523 c 2,10,-1
 93 544 l 2,11,12
 93 627 93 627 137.5 663.5 c 128,-1,13
 182 700 182 700 265 700 c 2,14,-1
 371 700 l 1,15,-1
 371 625 l 1,16,-1
 253 625 l 2,17,18
 215 625 215 625 197.5 608 c 128,-1,19
 180 591 180 591 180 553 c 2,20,-1
 180 513 l 2,21,22
 180 479 180 479 201.5 459.5 c 128,-1,23
 223 440 223 440 253 440 c 2,24,-1
 496 440 l 1,25,-1
 496 365 l 1,26,-1
 417 365 l 1,27,-1
 417 0 l 1,28,-1
 253 0 l 2,0,1
243 365 m 1,29,30
 211 365 211 365 190.5 345.5 c 128,-1,31
 170 326 170 326 170 293 c 2,32,-1
 170 148 l 2,33,34
 170 110 170 110 188 92.5 c 128,-1,35
 206 75 206 75 244 75 c 2,36,-1
 336 75 l 1,37,-1
 336 365 l 1,38,-1
 243 365 l 1,39,-1
 243 365 l 1,29,30
EndSplineSet
EndChar

StartChar: quoteright
Encoding: 8217 8217 8
Width: 540
Flags: W
LayerCount: 2
Fore
SplineSet
277 453 m 1,0,-1
 207 453 l 1,1,-1
 237 610 l 1,2,-1
 237 700 l 1,3,-1
 332 700 l 1,4,-1
 332 610 l 1,5,-1
 277 453 l 1,0,-1
EndSplineSet
EndChar

StartChar: parenleft
Encoding: 40 40 9
Width: 540
Flags: W
LayerCount: 2
Fore
SplineSet
170 505 m 1,0,1
 170 568 170 568 179 616.5 c 128,-1,2
 188 665 188 665 203 702.5 c 128,-1,3
 218 740 218 740 238.5 768 c 128,-1,4
 259 796 259 796 282 820 c 1,5,-1
 370 820 l 1,6,7
 337 780 337 780 315 748.5 c 128,-1,8
 293 717 293 717 279.5 683 c 128,-1,9
 266 649 266 649 260.5 607.5 c 128,-1,10
 255 566 255 566 255 507 c 2,11,-1
 255 193 l 2,12,13
 255 134 255 134 260.5 92.5 c 128,-1,14
 266 51 266 51 279.5 17 c 128,-1,15
 293 -17 293 -17 315 -48.5 c 128,-1,16
 337 -80 337 -80 370 -120 c 1,17,-1
 282 -120 l 1,18,19
 259 -96 259 -96 238.5 -68 c 128,-1,20
 218 -40 218 -40 203 -2.5 c 128,-1,21
 188 35 188 35 179 83.5 c 128,-1,22
 170 132 170 132 170 195 c 2,23,-1
 170 505 l 1,24,-1
 170 505 l 1,0,1
EndSplineSet
EndChar

StartChar: parenright
Encoding: 41 41 10
Width: 540
Flags: W
LayerCount: 2
Fore
SplineSet
370 195 m 2,0,1
 370 132 370 132 361 83.5 c 128,-1,2
 352 35 352 35 337 -2.5 c 128,-1,3
 322 -40 322 -40 301.5 -68 c 128,-1,4
 281 -96 281 -96 258 -120 c 1,5,-1
 170 -120 l 1,6,7
 203 -80 203 -80 225 -48.5 c 128,-1,8
 247 -17 247 -17 260.5 17 c 128,-1,9
 274 51 274 51 279.5 92.5 c 128,-1,10
 285 134 285 134 285 193 c 2,11,-1
 285 507 l 2,12,13
 285 566 285 566 279.5 607.5 c 128,-1,14
 274 649 274 649 260.5 683 c 128,-1,15
 247 717 247 717 225 748.5 c 128,-1,16
 203 780 203 780 170 820 c 1,17,-1
 258 820 l 1,18,19
 281 796 281 796 301.5 768 c 128,-1,20
 322 740 322 740 337 702.5 c 128,-1,21
 352 665 352 665 361 616.5 c 128,-1,22
 370 568 370 568 370 505 c 2,23,-1
 370 195 l 2,0,1
EndSplineSet
EndChar

StartChar: asterisk
Encoding: 42 42 11
Width: 540
Flags: W
LayerCount: 2
Fore
SplineSet
323 515 m 1,0,-1
 429 392 l 1,1,-1
 357 340 l 1,2,-1
 269 482 l 1,3,-1
 178 340 l 1,4,-1
 108 393 l 1,5,-1
 215 515 l 1,6,-1
 70 547 l 1,7,-1
 97 627 l 1,8,-1
 238 570 l 1,9,-1
 225 722 l 1,10,-1
 315 722 l 1,11,-1
 302 570 l 1,12,-1
 445 625 l 1,13,-1
 470 546 l 1,14,-1
 323 515 l 1,0,-1
EndSplineSet
EndChar

StartChar: plus
Encoding: 43 43 12
Width: 540
Flags: W
LayerCount: 2
Fore
SplineSet
310 275 m 1,0,-1
 310 118 l 1,1,-1
 230 118 l 1,2,-1
 230 275 l 1,3,-1
 79 275 l 1,4,-1
 79 350 l 1,5,-1
 230 350 l 1,6,-1
 230 508 l 1,7,-1
 310 508 l 1,8,-1
 310 350 l 1,9,-1
 460 350 l 1,10,-1
 460 275 l 1,11,-1
 310 275 l 1,0,-1
EndSplineSet
EndChar

StartChar: comma
Encoding: 44 44 13
Width: 540
Flags: W
LayerCount: 2
Fore
SplineSet
278 -140 m 1,0,-1
 200 -140 l 1,1,-1
 240 0 l 1,2,-1
 240 100 l 1,3,-1
 340 100 l 1,4,-1
 340 0 l 1,5,-1
 278 -140 l 1,0,-1
EndSplineSet
EndChar

StartChar: hyphen
Encoding: 45 45 14
Width: 540
Flags: W
LayerCount: 2
Fore
SplineSet
107 275 m 1,0,-1
 107 350 l 1,1,-1
 432 350 l 1,2,-1
 432 275 l 1,3,-1
 107 275 l 1,0,-1
EndSplineSet
EndChar

StartChar: period
Encoding: 46 46 15
Width: 540
Flags: W
LayerCount: 2
Fore
SplineSet
220 0 m 1,0,-1
 220 100 l 1,1,-1
 320 100 l 1,2,-1
 320 0 l 1,3,-1
 220 0 l 1,0,-1
EndSplineSet
EndChar

StartChar: slash
Encoding: 47 47 16
Width: 540
Flags: W
LayerCount: 2
Fore
SplineSet
134 -110 m 1,0,-1
 50 -110 l 1,1,-1
 406 810 l 1,2,-1
 490 810 l 1,3,-1
 134 -110 l 1,0,-1
EndSplineSet
Substitution2: "'numr' Numerators in Latin lookup 2 subtable" fraction
Substitution2: "'aalt' Access All Alternates in Latin lookup 0 subtable" fraction
EndChar

StartChar: zero
Encoding: 48 48 17
Width: 540
Flags: W
LayerCount: 2
Fore
SplineSet
448 170 m 1,0,1
 448 84 448 84 401.5 42 c 128,-1,2
 355 0 355 0 280 0 c 2,3,-1
 260 0 l 2,4,5
 185 0 185 0 138.5 42 c 128,-1,6
 92 84 92 84 92 170 c 2,7,-1
 92 530 l 2,8,9
 92 617 92 617 138.5 658.5 c 128,-1,10
 185 700 185 700 260 700 c 2,11,-1
 280 700 l 2,12,13
 355 700 355 700 401.5 658.5 c 128,-1,14
 448 617 448 617 448 530 c 2,15,-1
 448 170 l 1,16,-1
 448 170 l 1,0,1
177 278 m 1,17,-1
 363 549 l 1,18,19
 363 579 363 579 340.5 602 c 128,-1,20
 318 625 318 625 280 625 c 2,21,-1
 260 625 l 2,22,23
 222 625 222 625 199.5 602 c 128,-1,24
 177 579 177 579 177 549 c 2,25,-1
 177 278 l 1,17,-1
363 421 m 1,26,-1
 177 151 l 1,27,28
 177 121 177 121 199.5 98 c 128,-1,29
 222 75 222 75 260 75 c 2,30,-1
 280 75 l 2,31,32
 318 75 318 75 340.5 98 c 128,-1,33
 363 121 363 121 363 151 c 2,34,-1
 363 421 l 1,26,-1
EndSplineSet
EndChar

StartChar: one
Encoding: 49 49 18
Width: 540
Flags: W
LayerCount: 2
Fore
SplineSet
112 0 m 1,0,-1
 112 75 l 1,1,-1
 243 75 l 1,2,-1
 243 621 l 1,3,-1
 102 569 l 1,4,-1
 102 650 l 1,5,-1
 233 700 l 1,6,-1
 328 700 l 1,7,-1
 328 75 l 1,8,-1
 437 75 l 1,9,-1
 437 0 l 1,10,-1
 112 0 l 1,0,-1
EndSplineSet
Substitution2: "'sups' Superscript in Latin lookup 5 subtable" onesuperior
Substitution2: "'numr' Numerators in Latin lookup 2 subtable" onesuperior
Substitution2: "'aalt' Access All Alternates in Latin lookup 0 subtable" onesuperior
EndChar

StartChar: two
Encoding: 50 50 19
Width: 540
Flags: W
LayerCount: 2
Fore
SplineSet
105 0 m 1,0,-1
 105 88 l 1,1,-1
 265 316 l 2,2,3
 286 346 286 346 298.5 365 c 128,-1,4
 311 384 311 384 317.5 400.5 c 128,-1,5
 324 417 324 417 326 434.5 c 128,-1,6
 328 452 328 452 328 479 c 2,7,-1
 328 549 l 2,8,9
 328 579 328 579 305.5 601.5 c 128,-1,10
 283 624 283 624 245 624 c 2,11,-1
 125 624 l 1,12,-1
 125 700 l 1,13,-1
 235 700 l 2,14,15
 322 700 322 700 368.5 658 c 128,-1,16
 415 616 415 616 415 530 c 2,17,-1
 415 488 l 2,18,19
 415 450 415 450 411 423.5 c 128,-1,20
 407 397 407 397 398.5 375.5 c 128,-1,21
 390 354 390 354 377 333 c 128,-1,22
 364 312 364 312 345 285 c 2,23,-1
 197 76 l 1,24,-1
 435 76 l 1,25,-1
 435 0 l 1,26,-1
 105 0 l 1,0,-1
EndSplineSet
Substitution2: "'sups' Superscript in Latin lookup 5 subtable" twosuperior
Substitution2: "'numr' Numerators in Latin lookup 2 subtable" twosuperior
Substitution2: "'aalt' Access All Alternates in Latin lookup 0 subtable" twosuperior
EndChar

StartChar: three
Encoding: 51 51 20
Width: 540
Flags: W
LayerCount: 2
Fore
SplineSet
419 158 m 1,0,1
 419 75 419 75 379.5 37.5 c 128,-1,2
 340 0 340 0 249 0 c 2,3,-1
 121 0 l 1,4,-1
 121 75 l 1,5,-1
 258 75 l 2,6,7
 296 75 296 75 314 92.5 c 128,-1,8
 332 110 332 110 332 148 c 2,9,-1
 332 251 l 2,10,11
 332 284 332 284 311.5 303.5 c 128,-1,12
 291 323 291 323 259 323 c 2,13,-1
 152 323 l 1,14,-1
 152 398 l 1,15,-1
 249 398 l 2,16,17
 279 398 279 398 300.5 417.5 c 128,-1,18
 322 437 322 437 322 471 c 2,19,-1
 322 553 l 2,20,21
 322 591 322 591 304.5 608 c 128,-1,22
 287 625 287 625 249 625 c 2,23,-1
 121 625 l 1,24,-1
 121 700 l 1,25,-1
 237 700 l 2,26,27
 320 700 320 700 364.5 663.5 c 128,-1,28
 409 627 409 627 409 544 c 2,29,-1
 409 481 l 2,30,31
 409 441 409 441 394.5 412 c 128,-1,32
 380 383 380 383 354 365 c 1,33,34
 386 348 386 348 402.5 317.5 c 128,-1,35
 419 287 419 287 419 242 c 2,36,-1
 419 158 l 1,37,-1
 419 158 l 1,0,1
EndSplineSet
Substitution2: "'sups' Superscript in Latin lookup 5 subtable" threesuperior
Substitution2: "'numr' Numerators in Latin lookup 2 subtable" threesuperior
Substitution2: "'aalt' Access All Alternates in Latin lookup 0 subtable" threesuperior
EndChar

StartChar: four
Encoding: 52 52 21
Width: 540
Flags: W
LayerCount: 2
Fore
SplineSet
378 156 m 1,0,-1
 378 0 l 1,1,-1
 293 0 l 1,2,-1
 293 156 l 1,3,-1
 87 156 l 1,4,-1
 87 242 l 1,5,-1
 194 700 l 1,6,-1
 275 700 l 1,7,-1
 173 229 l 1,8,-1
 293 229 l 1,9,-1
 293 457 l 1,10,-1
 378 457 l 1,11,-1
 378 229 l 1,12,-1
 453 229 l 1,13,-1
 453 156 l 1,14,-1
 378 156 l 1,0,-1
EndSplineSet
EndChar

StartChar: five
Encoding: 53 53 22
Width: 540
Flags: W
LayerCount: 2
Fore
SplineSet
420 158 m 1,0,1
 420 75 420 75 380.5 37.5 c 128,-1,2
 341 0 341 0 250 0 c 2,3,-1
 119 0 l 1,4,-1
 119 75 l 1,5,-1
 259 75 l 2,6,7
 297 75 297 75 315 92.5 c 128,-1,8
 333 110 333 110 333 148 c 2,9,-1
 333 275 l 2,10,11
 333 308 333 308 312.5 327.5 c 128,-1,12
 292 347 292 347 260 347 c 2,13,-1
 129 347 l 1,14,-1
 129 700 l 1,15,-1
 405 700 l 1,16,-1
 405 625 l 1,17,-1
 214 625 l 1,18,-1
 214 422 l 1,19,-1
 255 422 l 2,20,21
 328 422 328 422 374 385.5 c 128,-1,22
 420 349 420 349 420 266 c 2,23,-1
 420 158 l 1,24,-1
 420 158 l 1,0,1
EndSplineSet
EndChar

StartChar: six
Encoding: 54 54 23
Width: 540
Flags: W
LayerCount: 2
Fore
SplineSet
448 170 m 1,0,1
 448 127 448 127 435.5 95 c 128,-1,2
 423 63 423 63 401 42 c 128,-1,3
 379 21 379 21 350.5 10.5 c 128,-1,4
 322 0 322 0 290 0 c 2,5,-1
 255 0 l 2,6,7
 223 0 223 0 194.5 10.5 c 128,-1,8
 166 21 166 21 144 42 c 128,-1,9
 122 63 122 63 109.5 95 c 128,-1,10
 97 127 97 127 97 170 c 2,11,-1
 97 530 l 2,12,13
 97 616 97 616 142.5 658 c 128,-1,14
 188 700 188 700 275 700 c 2,15,-1
 400 700 l 1,16,-1
 400 624 l 1,17,-1
 265 624 l 2,18,19
 227 624 227 624 204.5 601.5 c 128,-1,20
 182 579 182 579 182 549 c 2,21,-1
 182 440 l 1,22,-1
 280 440 l 2,23,24
 365 440 365 440 406.5 403 c 128,-1,25
 448 366 448 366 448 280 c 2,26,-1
 448 170 l 1,27,-1
 448 170 l 1,0,1
182 365 m 1,28,-1
 182 151 l 2,29,30
 182 121 182 121 202 98 c 128,-1,31
 222 75 222 75 260 75 c 2,32,-1
 285 75 l 2,33,34
 323 75 323 75 343 98 c 128,-1,35
 363 121 363 121 363 151 c 2,36,-1
 363 299 l 2,37,38
 363 329 363 329 345.5 347 c 128,-1,39
 328 365 328 365 290 365 c 2,40,-1
 182 365 l 1,28,-1
EndSplineSet
EndChar

StartChar: seven
Encoding: 55 55 24
Width: 540
Flags: W
LayerCount: 2
Fore
SplineSet
253 0 m 1,0,-1
 164 0 l 1,1,-1
 346 625 l 1,2,-1
 104 625 l 1,3,-1
 104 700 l 1,4,-1
 429 700 l 1,5,-1
 429 603 l 1,6,-1
 253 0 l 1,0,-1
EndSplineSet
EndChar

StartChar: eight
Encoding: 56 56 25
Width: 540
Flags: W
LayerCount: 2
Fore
SplineSet
454 158 m 1,0,1
 454 75 454 75 414.5 37.5 c 128,-1,2
 375 0 375 0 284 0 c 2,3,-1
 256 0 l 2,4,5
 165 0 165 0 125.5 37.5 c 128,-1,6
 86 75 86 75 86 158 c 2,7,-1
 86 242 l 2,8,9
 86 287 86 287 102.5 317.5 c 128,-1,10
 119 348 119 348 151 365 c 1,11,12
 98 402 98 402 98 481 c 2,13,-1
 98 544 l 2,14,15
 98 627 98 627 141.5 663.5 c 128,-1,16
 185 700 185 700 260 700 c 2,17,-1
 280 700 l 2,18,19
 355 700 355 700 398.5 663.5 c 128,-1,20
 442 627 442 627 442 544 c 2,21,-1
 442 481 l 2,22,23
 442 402 442 402 389 365 c 1,24,25
 421 348 421 348 437.5 317.5 c 128,-1,26
 454 287 454 287 454 242 c 2,27,-1
 454 158 l 1,28,-1
 454 158 l 1,0,1
367 251 m 1,29,30
 367 284 367 284 346.5 303.5 c 128,-1,31
 326 323 326 323 294 323 c 2,32,-1
 246 323 l 2,33,34
 214 323 214 323 193.5 303.5 c 128,-1,35
 173 284 173 284 173 251 c 2,36,-1
 173 148 l 2,37,38
 173 111 173 111 188.5 93 c 128,-1,39
 204 75 204 75 239 75 c 2,40,-1
 293 75 l 2,41,42
 331 75 331 75 349 92.5 c 128,-1,43
 367 110 367 110 367 148 c 2,44,-1
 367 251 l 1,45,-1
 367 251 l 1,29,30
248 625 m 1,46,47
 214 623 214 623 199.5 606 c 128,-1,48
 185 589 185 589 185 553 c 2,49,-1
 185 471 l 2,50,51
 185 439 185 439 203.5 419.5 c 128,-1,52
 222 400 222 400 250 398 c 1,53,-1
 284 398 l 2,54,55
 314 398 314 398 334.5 417.5 c 128,-1,56
 355 437 355 437 355 471 c 2,57,-1
 355 553 l 2,58,59
 355 591 355 591 338.5 608 c 128,-1,60
 322 625 322 625 284 625 c 2,61,-1
 248 625 l 1,46,47
EndSplineSet
EndChar

StartChar: nine
Encoding: 57 57 26
Width: 540
Flags: W
LayerCount: 2
Fore
SplineSet
96 530 m 1,0,1
 96 573 96 573 108.5 605 c 128,-1,2
 121 637 121 637 143 658 c 128,-1,3
 165 679 165 679 193.5 689.5 c 128,-1,4
 222 700 222 700 254 700 c 2,5,-1
 289 700 l 2,6,7
 321 700 321 700 349.5 689.5 c 128,-1,8
 378 679 378 679 400 658 c 128,-1,9
 422 637 422 637 434.5 605 c 128,-1,10
 447 573 447 573 447 530 c 2,11,-1
 447 170 l 2,12,13
 447 84 447 84 401.5 42 c 128,-1,14
 356 0 356 0 269 0 c 2,15,-1
 154 0 l 1,16,-1
 154 76 l 1,17,-1
 279 76 l 2,18,19
 317 76 317 76 339.5 98.5 c 128,-1,20
 362 121 362 121 362 151 c 2,21,-1
 362 260 l 1,22,-1
 264 260 l 2,23,24
 179 260 179 260 137.5 297 c 128,-1,25
 96 334 96 334 96 420 c 2,26,-1
 96 530 l 1,27,-1
 96 530 l 1,0,1
362 335 m 1,28,-1
 362 549 l 2,29,30
 362 579 362 579 342 602 c 128,-1,31
 322 625 322 625 284 625 c 2,32,-1
 259 625 l 2,33,34
 221 625 221 625 201 602 c 128,-1,35
 181 579 181 579 181 549 c 2,36,-1
 181 401 l 2,37,38
 181 371 181 371 198.5 353 c 128,-1,39
 216 335 216 335 254 335 c 2,40,-1
 362 335 l 1,28,-1
EndSplineSet
EndChar

StartChar: colon
Encoding: 58 58 27
Width: 540
Flags: W
LayerCount: 2
Fore
SplineSet
220 0 m 1,0,-1
 220 100 l 1,1,-1
 320 100 l 1,2,-1
 320 0 l 1,3,-1
 220 0 l 1,0,-1
220 400 m 1,4,-1
 220 500 l 1,5,-1
 320 500 l 1,6,-1
 320 400 l 1,7,-1
 220 400 l 1,4,-1
EndSplineSet
EndChar

StartChar: semicolon
Encoding: 59 59 28
Width: 540
Flags: W
LayerCount: 2
Fore
SplineSet
278 -140 m 1,0,-1
 200 -140 l 1,1,-1
 240 0 l 1,2,-1
 240 100 l 1,3,-1
 340 100 l 1,4,-1
 340 0 l 1,5,-1
 278 -140 l 1,0,-1
240 400 m 1,6,-1
 240 500 l 1,7,-1
 340 500 l 1,8,-1
 340 400 l 1,9,-1
 240 400 l 1,6,-1
EndSplineSet
EndChar

StartChar: less
Encoding: 60 60 29
Width: 540
Flags: W
LayerCount: 2
Fore
SplineSet
80 280 m 1,0,-1
 80 385 l 1,1,-1
 460 564 l 1,2,-1
 460 472 l 1,3,-1
 150 336 l 1,4,-1
 460 199 l 1,5,-1
 460 105 l 1,6,-1
 80 280 l 1,0,-1
EndSplineSet
EndChar

StartChar: equal
Encoding: 61 61 30
Width: 540
Flags: W
LayerCount: 2
Fore
SplineSet
80 175 m 1,0,-1
 80 250 l 1,1,-1
 460 250 l 1,2,-1
 460 175 l 1,3,-1
 80 175 l 1,0,-1
80 375 m 1,4,-1
 80 450 l 1,5,-1
 460 450 l 1,6,-1
 460 375 l 1,7,-1
 80 375 l 1,4,-1
EndSplineSet
EndChar

StartChar: greater
Encoding: 62 62 31
Width: 540
Flags: W
LayerCount: 2
Fore
SplineSet
80 105 m 1,0,-1
 80 199 l 1,1,-1
 396 336 l 1,2,-1
 80 472 l 1,3,-1
 80 564 l 1,4,-1
 460 385 l 1,5,-1
 460 280 l 1,6,-1
 80 105 l 1,0,-1
EndSplineSet
EndChar

StartChar: question
Encoding: 63 63 32
Width: 540
Flags: W
LayerCount: 2
Fore
SplineSet
409 518 m 1,0,1
 409 490 409 490 407.5 471 c 128,-1,2
 406 452 406 452 399 435.5 c 128,-1,3
 392 419 392 419 378 401.5 c 128,-1,4
 364 384 364 384 338 358 c 2,5,-1
 285 304 l 1,6,-1
 285 208 l 1,7,-1
 200 208 l 1,8,-1
 200 329 l 1,9,-1
 258 390 l 2,10,11
 281 414 281 414 294.5 429.5 c 128,-1,12
 308 445 308 445 314.5 457 c 128,-1,13
 321 469 321 469 322.5 481 c 128,-1,14
 324 493 324 493 324 509 c 2,15,-1
 324 559 l 2,16,17
 324 589 324 589 306.5 606.5 c 128,-1,18
 289 624 289 624 251 624 c 2,19,-1
 126 624 l 1,20,-1
 126 700 l 1,21,-1
 241 700 l 2,22,23
 322 700 322 700 365.5 664.5 c 128,-1,24
 409 629 409 629 409 550 c 2,25,-1
 409 518 l 1,26,-1
 409 518 l 1,0,1
193 0 m 1,27,-1
 193 100 l 1,28,-1
 293 100 l 1,29,-1
 293 0 l 1,30,-1
 193 0 l 1,27,-1
EndSplineSet
EndChar

StartChar: at
Encoding: 64 64 33
Width: 540
Flags: W
LayerCount: 2
Fore
SplineSet
166 0 m 2,0,1
 96 0 96 0 62.5 32 c 128,-1,2
 29 64 29 64 29 140 c 2,3,-1
 29 550 l 2,4,5
 29 628 29 628 65.5 664 c 128,-1,6
 102 700 102 700 189 700 c 2,7,-1
 354 700 l 2,8,9
 438 700 438 700 474.5 666 c 128,-1,10
 511 632 511 632 511 550 c 2,11,-1
 511 223 l 2,12,13
 511 160 511 160 485 137.5 c 128,-1,14
 459 115 459 115 411 115 c 0,15,16
 379 115 379 115 357 130 c 128,-1,17
 335 145 335 145 332 175 c 1,18,19
 318 159 318 159 300.5 151.5 c 128,-1,20
 283 144 283 144 251 144 c 0,21,22
 202 144 202 144 178 169 c 128,-1,23
 154 194 154 194 154 259 c 2,24,-1
 154 403 l 2,25,26
 154 444 154 444 162 470 c 128,-1,27
 170 496 170 496 188.5 511.5 c 128,-1,28
 207 527 207 527 236.5 533 c 128,-1,29
 266 539 266 539 308 539 c 2,30,-1
 380 539 l 1,31,-1
 380 211 l 2,32,33
 380 191 380 191 386 180.5 c 128,-1,34
 392 170 392 170 410 170 c 0,35,36
 429 170 429 170 435 179 c 128,-1,37
 441 188 441 188 441 216 c 2,38,-1
 441 560 l 2,39,40
 441 597 441 597 423.5 617 c 128,-1,41
 406 637 406 637 364 637 c 2,42,-1
 179 637 l 2,43,44
 134 637 134 637 116.5 617.5 c 128,-1,45
 99 598 99 598 99 560 c 2,46,-1
 99 130 l 2,47,48
 99 100 99 100 113.5 81.5 c 128,-1,49
 128 63 128 63 166 63 c 2,50,-1
 351 63 l 1,51,-1
 351 0 l 1,52,-1
 166 0 l 2,0,1
260 202 m 0,53,54
 289 202 289 202 300.5 219 c 128,-1,55
 312 236 312 236 312 254 c 2,56,-1
 312 482 l 1,57,-1
 297 482 l 2,58,59
 255 482 255 482 238.5 468 c 128,-1,60
 222 454 222 454 222 409 c 2,61,-1
 222 253 l 2,62,63
 222 233 222 233 228 217.5 c 128,-1,64
 234 202 234 202 260 202 c 0,53,54
EndSplineSet
EndChar

StartChar: A
Encoding: 65 65 34
Width: 540
Flags: W
LayerCount: 2
Fore
SplineSet
270 634 m 1,0,-1
 189 252 l 1,1,-1
 352 252 l 1,2,-1
 270 634 l 1,0,-1
406 0 m 1,3,-1
 368 177 l 1,4,-1
 173 177 l 1,5,-1
 134 0 l 1,6,-1
 45 0 l 1,7,-1
 214 700 l 1,8,-1
 329 700 l 1,9,-1
 495 0 l 1,10,-1
 406 0 l 1,3,-1
EndSplineSet
Substitution2: "'ordn' Ordinals in Latin lookup 4 subtable" ordfeminine
Substitution2: "'aalt' Access All Alternates in Latin lookup 0 subtable" ordfeminine
Position2: "'cpsp' Capital Spacing in Latin lookup 0 subtable" dx=5 dy=0 dh=10 dv=0
EndChar

StartChar: B
Encoding: 66 66 35
Width: 540
Flags: W
LayerCount: 2
Fore
SplineSet
455 158 m 1,0,1
 455 72 455 72 415 36 c 128,-1,2
 375 0 375 0 285 0 c 2,3,-1
 85 0 l 1,4,-1
 85 700 l 1,5,-1
 273 700 l 2,6,7
 359 700 359 700 402 665 c 128,-1,8
 445 630 445 630 445 544 c 2,9,-1
 445 487 l 2,10,11
 445 447 445 447 430.5 418 c 128,-1,12
 416 389 416 389 390 371 c 1,13,14
 422 354 422 354 438.5 323.5 c 128,-1,15
 455 293 455 293 455 248 c 2,16,-1
 455 158 l 1,17,-1
 455 158 l 1,0,1
358 553 m 2,18,19
 358 591 358 591 340.5 608 c 128,-1,20
 323 625 323 625 285 625 c 2,21,-1
 172 625 l 1,22,-1
 172 404 l 1,23,-1
 285 404 l 2,24,25
 315 404 315 404 336.5 423.5 c 128,-1,26
 358 443 358 443 358 477 c 2,27,-1
 358 553 l 2,18,19
368 257 m 2,28,29
 368 290 368 290 347.5 309.5 c 128,-1,30
 327 329 327 329 295 329 c 2,31,-1
 172 329 l 1,32,-1
 172 75 l 1,33,-1
 294 75 l 2,34,35
 332 75 332 75 350 92.5 c 128,-1,36
 368 110 368 110 368 148 c 2,37,-1
 368 257 l 2,28,29
EndSplineSet
Position2: "'cpsp' Capital Spacing in Latin lookup 0 subtable" dx=5 dy=0 dh=10 dv=0
EndChar

StartChar: C
Encoding: 67 67 36
Width: 540
Flags: W
LayerCount: 2
Fore
SplineSet
289 0 m 2,0,1
 202 0 202 0 155.5 42 c 128,-1,2
 109 84 109 84 109 170 c 2,3,-1
 109 530 l 2,4,5
 109 616 109 616 155.5 658 c 128,-1,6
 202 700 202 700 289 700 c 2,7,-1
 431 700 l 1,8,-1
 431 624 l 1,9,-1
 279 624 l 2,10,11
 241 624 241 624 218.5 601.5 c 128,-1,12
 196 579 196 579 196 549 c 2,13,-1
 196 151 l 2,14,15
 196 121 196 121 218.5 98.5 c 128,-1,16
 241 76 241 76 279 76 c 2,17,-1
 431 76 l 1,18,-1
 431 0 l 1,19,-1
 289 0 l 2,0,1
EndSplineSet
Position2: "'cpsp' Capital Spacing in Latin lookup 0 subtable" dx=5 dy=0 dh=10 dv=0
EndChar

StartChar: D
Encoding: 68 68 37
Width: 540
Flags: W
LayerCount: 2
Fore
SplineSet
458 158 m 1,0,1
 458 72 458 72 418 36 c 128,-1,2
 378 0 378 0 288 0 c 2,3,-1
 82 0 l 1,4,-1
 82 700 l 1,5,-1
 276 700 l 2,6,7
 362 700 362 700 410 665 c 128,-1,8
 458 630 458 630 458 544 c 2,9,-1
 458 158 l 1,10,-1
 458 158 l 1,0,1
371 553 m 2,11,12
 371 586 371 586 350.5 605.5 c 128,-1,13
 330 625 330 625 298 625 c 2,14,-1
 169 625 l 1,15,-1
 169 75 l 1,16,-1
 297 75 l 2,17,18
 335 75 335 75 353 92.5 c 128,-1,19
 371 110 371 110 371 148 c 2,20,-1
 371 553 l 2,11,12
EndSplineSet
Position2: "'cpsp' Capital Spacing in Latin lookup 0 subtable" dx=5 dy=0 dh=10 dv=0
EndChar

StartChar: E
Encoding: 69 69 38
Width: 540
Flags: W
LayerCount: 2
Fore
SplineSet
103 0 m 1,0,-1
 103 700 l 1,1,-1
 437 700 l 1,2,-1
 437 627 l 1,3,-1
 190 627 l 1,4,-1
 190 398 l 1,5,-1
 412 398 l 1,6,-1
 412 325 l 1,7,-1
 190 325 l 1,8,-1
 190 73 l 1,9,-1
 437 73 l 1,10,-1
 437 0 l 1,11,-1
 103 0 l 1,0,-1
EndSplineSet
Position2: "'cpsp' Capital Spacing in Latin lookup 0 subtable" dx=5 dy=0 dh=10 dv=0
EndChar

StartChar: F
Encoding: 70 70 39
Width: 540
Flags: W
LayerCount: 2
Fore
SplineSet
193 627 m 1,0,-1
 193 388 l 1,1,-1
 415 388 l 1,2,-1
 415 315 l 1,3,-1
 193 315 l 1,4,-1
 193 0 l 1,5,-1
 106 0 l 1,6,-1
 106 700 l 1,7,-1
 440 700 l 1,8,-1
 440 627 l 1,9,-1
 193 627 l 1,0,-1
EndSplineSet
Position2: "'cpsp' Capital Spacing in Latin lookup 0 subtable" dx=5 dy=0 dh=10 dv=0
EndChar

StartChar: G
Encoding: 71 71 40
Width: 540
Flags: W
LayerCount: 2
Fore
SplineSet
274 0 m 2,0,1
 187 0 187 0 140.5 42 c 128,-1,2
 94 84 94 84 94 170 c 2,3,-1
 94 530 l 2,4,5
 94 616 94 616 140.5 658 c 128,-1,6
 187 700 187 700 274 700 c 2,7,-1
 415 700 l 1,8,-1
 415 624 l 1,9,-1
 264 624 l 2,10,11
 226 624 226 624 203.5 601.5 c 128,-1,12
 181 579 181 579 181 549 c 2,13,-1
 181 151 l 2,14,15
 181 121 181 121 203.5 98.5 c 128,-1,16
 226 76 226 76 264 76 c 2,17,-1
 362 76 l 1,18,-1
 362 293 l 1,19,-1
 275 293 l 1,20,-1
 275 368 l 1,21,-1
 445 368 l 1,22,-1
 445 0 l 1,23,-1
 274 0 l 2,0,1
EndSplineSet
Position2: "'cpsp' Capital Spacing in Latin lookup 0 subtable" dx=5 dy=0 dh=10 dv=0
EndChar

StartChar: H
Encoding: 72 72 41
Width: 540
Flags: W
LayerCount: 2
Fore
SplineSet
373 0 m 1,0,-1
 373 322 l 1,1,-1
 167 322 l 1,2,-1
 167 0 l 1,3,-1
 80 0 l 1,4,-1
 80 700 l 1,5,-1
 167 700 l 1,6,-1
 167 396 l 1,7,-1
 373 396 l 1,8,-1
 373 700 l 1,9,-1
 460 700 l 1,10,-1
 460 0 l 1,11,-1
 373 0 l 1,0,-1
EndSplineSet
Position2: "'cpsp' Capital Spacing in Latin lookup 0 subtable" dx=5 dy=0 dh=10 dv=0
EndChar

StartChar: I
Encoding: 73 73 42
Width: 540
Flags: W
LayerCount: 2
Fore
SplineSet
136 0 m 1,0,-1
 136 73 l 1,1,-1
 226 73 l 1,2,-1
 226 627 l 1,3,-1
 136 627 l 1,4,-1
 136 700 l 1,5,-1
 403 700 l 1,6,-1
 403 627 l 1,7,-1
 313 627 l 1,8,-1
 313 73 l 1,9,-1
 403 73 l 1,10,-1
 403 0 l 1,11,-1
 136 0 l 1,0,-1
EndSplineSet
Position2: "'cpsp' Capital Spacing in Latin lookup 0 subtable" dx=5 dy=0 dh=10 dv=0
EndChar

StartChar: J
Encoding: 74 74 43
Width: 540
Flags: W
LayerCount: 2
Fore
SplineSet
410 170 m 1,0,1
 410 84 410 84 363.5 42 c 128,-1,2
 317 0 317 0 230 0 c 2,3,-1
 125 0 l 1,4,-1
 125 76 l 1,5,-1
 240 76 l 2,6,7
 278 76 278 76 300.5 98.5 c 128,-1,8
 323 121 323 121 323 151 c 2,9,-1
 323 625 l 1,10,-1
 162 625 l 1,11,-1
 162 700 l 1,12,-1
 410 700 l 1,13,-1
 410 170 l 1,14,-1
 410 170 l 1,0,1
EndSplineSet
Position2: "'cpsp' Capital Spacing in Latin lookup 0 subtable" dx=5 dy=0 dh=10 dv=0
EndChar

StartChar: K
Encoding: 75 75 44
Width: 540
Flags: W
LayerCount: 2
Fore
SplineSet
365 0 m 1,0,-1
 206 315 l 1,1,-1
 168 258 l 1,2,-1
 168 0 l 1,3,-1
 81 0 l 1,4,-1
 81 700 l 1,5,-1
 168 700 l 1,6,-1
 168 398 l 1,7,-1
 358 700 l 1,8,-1
 453 700 l 1,9,-1
 260 391 l 1,10,-1
 465 0 l 1,11,-1
 365 0 l 1,0,-1
EndSplineSet
Position2: "'cpsp' Capital Spacing in Latin lookup 0 subtable" dx=5 dy=0 dh=10 dv=0
EndChar

StartChar: L
Encoding: 76 76 45
Width: 540
Flags: W
LayerCount: 2
Fore
SplineSet
115 0 m 1,0,-1
 115 700 l 1,1,-1
 202 700 l 1,2,-1
 202 76 l 1,3,-1
 425 76 l 1,4,-1
 425 0 l 1,5,-1
 115 0 l 1,0,-1
EndSplineSet
Position2: "'cpsp' Capital Spacing in Latin lookup 0 subtable" dx=5 dy=0 dh=10 dv=0
EndChar

StartChar: M
Encoding: 77 77 46
Width: 540
Flags: W
LayerCount: 2
Fore
SplineSet
410 0 m 1,0,-1
 410 628 l 1,1,-1
 310 235 l 1,2,-1
 227 235 l 1,3,-1
 129 628 l 1,4,-1
 129 0 l 1,5,-1
 53 0 l 1,6,-1
 53 700 l 1,7,-1
 192 700 l 1,8,-1
 272 342 l 1,9,-1
 353 700 l 1,10,-1
 488 700 l 1,11,-1
 488 0 l 1,12,-1
 410 0 l 1,0,-1
EndSplineSet
Position2: "'cpsp' Capital Spacing in Latin lookup 0 subtable" dx=5 dy=0 dh=10 dv=0
EndChar

StartChar: N
Encoding: 78 78 47
Width: 540
Flags: W
LayerCount: 2
Fore
SplineSet
317 0 m 1,0,-1
 160 626 l 1,1,-1
 160 0 l 1,2,-1
 79 0 l 1,3,-1
 79 700 l 1,4,-1
 221 700 l 1,5,-1
 379 74 l 1,6,-1
 379 700 l 1,7,-1
 460 700 l 1,8,-1
 460 0 l 1,9,-1
 317 0 l 1,0,-1
EndSplineSet
Position2: "'cpsp' Capital Spacing in Latin lookup 0 subtable" dx=5 dy=0 dh=10 dv=0
EndChar

StartChar: O
Encoding: 79 79 48
Width: 540
Flags: W
LayerCount: 2
Fore
SplineSet
470 170 m 1,0,1
 470 84 470 84 423.5 42 c 128,-1,2
 377 0 377 0 290 0 c 2,3,-1
 250 0 l 2,4,5
 163 0 163 0 116.5 42 c 128,-1,6
 70 84 70 84 70 170 c 2,7,-1
 70 530 l 2,8,9
 70 616 70 616 116.5 658 c 128,-1,10
 163 700 163 700 250 700 c 2,11,-1
 290 700 l 2,12,13
 377 700 377 700 423.5 658 c 128,-1,14
 470 616 470 616 470 530 c 2,15,-1
 470 170 l 1,16,-1
 470 170 l 1,0,1
383 549 m 2,17,18
 383 579 383 579 360.5 601.5 c 128,-1,19
 338 624 338 624 300 624 c 2,20,-1
 240 624 l 2,21,22
 202 624 202 624 179.5 601.5 c 128,-1,23
 157 579 157 579 157 549 c 2,24,-1
 157 151 l 2,25,26
 157 121 157 121 179.5 98.5 c 128,-1,27
 202 76 202 76 240 76 c 2,28,-1
 300 76 l 2,29,30
 338 76 338 76 360.5 98.5 c 128,-1,31
 383 121 383 121 383 151 c 2,32,-1
 383 549 l 2,17,18
EndSplineSet
Substitution2: "'ordn' Ordinals in Latin lookup 4 subtable" ordmasculine
Substitution2: "'aalt' Access All Alternates in Latin lookup 0 subtable" ordmasculine
Position2: "'cpsp' Capital Spacing in Latin lookup 0 subtable" dx=5 dy=0 dh=10 dv=0
EndChar

StartChar: P
Encoding: 80 80 49
Width: 540
Flags: W
LayerCount: 2
Fore
SplineSet
451 430 m 1,0,1
 451 347 451 347 407.5 309.5 c 128,-1,2
 364 272 364 272 281 272 c 2,3,-1
 177 272 l 1,4,-1
 177 0 l 1,5,-1
 90 0 l 1,6,-1
 90 700 l 1,7,-1
 279 700 l 2,8,9
 362 700 362 700 406.5 663.5 c 128,-1,10
 451 627 451 627 451 544 c 2,11,-1
 451 430 l 1,12,-1
 451 430 l 1,0,1
364 553 m 2,13,14
 364 591 364 591 346.5 608 c 128,-1,15
 329 625 329 625 291 625 c 2,16,-1
 177 625 l 1,17,-1
 177 347 l 1,18,-1
 291 347 l 2,19,20
 329 347 329 347 346.5 364.5 c 128,-1,21
 364 382 364 382 364 420 c 2,22,-1
 364 553 l 2,13,14
EndSplineSet
Position2: "'cpsp' Capital Spacing in Latin lookup 0 subtable" dx=5 dy=0 dh=10 dv=0
EndChar

StartChar: Q
Encoding: 81 81 50
Width: 540
Flags: W
LayerCount: 2
Fore
SplineSet
463 -59 m 1,0,-1
 386 18 l 1,1,2
 347 0 347 0 290 0 c 2,3,-1
 250 0 l 2,4,5
 163 0 163 0 116.5 42 c 128,-1,6
 70 84 70 84 70 170 c 2,7,-1
 70 530 l 2,8,9
 70 616 70 616 116.5 658 c 128,-1,10
 163 700 163 700 250 700 c 2,11,-1
 290 700 l 2,12,13
 377 700 377 700 423.5 658 c 128,-1,14
 470 616 470 616 470 530 c 2,15,-1
 470 170 l 2,16,17
 470 111 470 111 447 71 c 1,18,-1
 520 -2 l 1,19,-1
 463 -59 l 1,0,-1
383 549 m 2,20,21
 383 579 383 579 360.5 601.5 c 128,-1,22
 338 624 338 624 300 624 c 2,23,-1
 240 624 l 2,24,25
 202 624 202 624 179.5 601.5 c 128,-1,26
 157 579 157 579 157 549 c 2,27,-1
 157 151 l 2,28,29
 157 121 157 121 179.5 98.5 c 128,-1,30
 202 76 202 76 240 76 c 2,31,-1
 300 76 l 2,32,33
 338 76 338 76 360.5 98.5 c 128,-1,34
 383 121 383 121 383 151 c 2,35,-1
 383 549 l 2,20,21
EndSplineSet
Position2: "'cpsp' Capital Spacing in Latin lookup 0 subtable" dx=5 dy=0 dh=10 dv=0
EndChar

StartChar: R
Encoding: 82 82 51
Width: 540
Flags: W
LayerCount: 2
Fore
SplineSet
384 0 m 1,0,-1
 255 290 l 1,1,-1
 157 290 l 1,2,-1
 157 0 l 1,3,-1
 70 0 l 1,4,-1
 70 700 l 1,5,-1
 258 700 l 2,6,7
 341 700 341 700 385.5 663.5 c 128,-1,8
 430 627 430 627 430 544 c 2,9,-1
 430 448 l 2,10,11
 430 388 430 388 406.5 354.5 c 128,-1,12
 383 321 383 321 340 307 c 1,13,-1
 479 0 l 1,14,-1
 384 0 l 1,0,-1
343 553 m 2,15,16
 343 591 343 591 325.5 608 c 128,-1,17
 308 625 308 625 270 625 c 2,18,-1
 157 625 l 1,19,-1
 157 365 l 1,20,-1
 270 365 l 2,21,22
 308 365 308 365 325.5 382.5 c 128,-1,23
 343 400 343 400 343 438 c 2,24,-1
 343 553 l 2,15,16
EndSplineSet
Position2: "'cpsp' Capital Spacing in Latin lookup 0 subtable" dx=5 dy=0 dh=10 dv=0
EndChar

StartChar: S
Encoding: 83 83 52
Width: 540
Flags: W
LayerCount: 2
Fore
SplineSet
439 170 m 1,0,1
 439 84 439 84 392.5 42 c 128,-1,2
 346 0 346 0 259 0 c 2,3,-1
 117 0 l 1,4,-1
 117 76 l 1,5,-1
 269 76 l 2,6,7
 307 76 307 76 329.5 98.5 c 128,-1,8
 352 121 352 121 352 151 c 2,9,-1
 352 255 l 2,10,11
 352 284 352 284 337 303 c 128,-1,12
 322 322 322 322 290 322 c 2,13,-1
 260 322 l 2,14,15
 188 322 188 322 144 364 c 128,-1,16
 100 406 100 406 100 492 c 2,17,-1
 100 530 l 2,18,19
 100 616 100 616 146.5 658 c 128,-1,20
 193 700 193 700 280 700 c 2,21,-1
 423 700 l 1,22,-1
 423 624 l 1,23,-1
 270 624 l 2,24,25
 232 624 232 624 209.5 601.5 c 128,-1,26
 187 579 187 579 187 549 c 2,27,-1
 187 473 l 2,28,29
 187 443 187 443 206.5 422 c 128,-1,30
 226 401 226 401 259 401 c 2,31,-1
 289 401 l 2,32,33
 358 401 358 401 398.5 361.5 c 128,-1,34
 439 322 439 322 439 236 c 2,35,-1
 439 170 l 1,36,-1
 439 170 l 1,0,1
EndSplineSet
Position2: "'cpsp' Capital Spacing in Latin lookup 0 subtable" dx=5 dy=0 dh=10 dv=0
EndChar

StartChar: T
Encoding: 84 84 53
Width: 540
Flags: W
LayerCount: 2
Fore
SplineSet
313 624 m 1,0,-1
 313 0 l 1,1,-1
 226 0 l 1,2,-1
 226 624 l 1,3,-1
 67 624 l 1,4,-1
 67 700 l 1,5,-1
 472 700 l 1,6,-1
 472 624 l 1,7,-1
 313 624 l 1,0,-1
EndSplineSet
Position2: "'cpsp' Capital Spacing in Latin lookup 0 subtable" dx=5 dy=0 dh=10 dv=0
EndChar

StartChar: U
Encoding: 85 85 54
Width: 540
Flags: W
LayerCount: 2
Fore
SplineSet
462 170 m 1,0,1
 462 84 462 84 415.5 42 c 128,-1,2
 369 0 369 0 282 0 c 2,3,-1
 257 0 l 2,4,5
 170 0 170 0 123.5 42 c 128,-1,6
 77 84 77 84 77 170 c 2,7,-1
 77 700 l 1,8,-1
 164 700 l 1,9,-1
 164 151 l 2,10,11
 164 121 164 121 186.5 98.5 c 128,-1,12
 209 76 209 76 247 76 c 2,13,-1
 292 76 l 2,14,15
 330 76 330 76 352.5 98.5 c 128,-1,16
 375 121 375 121 375 151 c 2,17,-1
 375 700 l 1,18,-1
 462 700 l 1,19,-1
 462 170 l 1,20,-1
 462 170 l 1,0,1
EndSplineSet
Position2: "'cpsp' Capital Spacing in Latin lookup 0 subtable" dx=5 dy=0 dh=10 dv=0
EndChar

StartChar: V
Encoding: 86 86 55
Width: 540
Flags: W
LayerCount: 2
Fore
SplineSet
322 0 m 1,0,-1
 203 0 l 1,1,-1
 56 700 l 1,2,-1
 144 700 l 1,3,-1
 264 88 l 1,4,-1
 393 700 l 1,5,-1
 479 700 l 1,6,-1
 322 0 l 1,0,-1
EndSplineSet
Position2: "'cpsp' Capital Spacing in Latin lookup 0 subtable" dx=5 dy=0 dh=10 dv=0
EndChar

StartChar: W
Encoding: 87 87 56
Width: 540
Flags: W
LayerCount: 2
Fore
SplineSet
451 0 m 1,0,-1
 325 0 l 1,1,-1
 268 284 l 1,2,-1
 205 0 l 1,3,-1
 85 0 l 1,4,-1
 51 700 l 1,5,-1
 125 700 l 1,6,-1
 155 75 l 1,7,-1
 238 405 l 1,8,-1
 300 405 l 1,9,-1
 385 75 l 1,10,-1
 416 700 l 1,11,-1
 485 700 l 1,12,-1
 451 0 l 1,0,-1
EndSplineSet
Position2: "'cpsp' Capital Spacing in Latin lookup 0 subtable" dx=5 dy=0 dh=10 dv=0
EndChar

StartChar: X
Encoding: 88 88 57
Width: 540
Flags: W
LayerCount: 2
Fore
SplineSet
391 0 m 1,0,-1
 271 263 l 1,1,-1
 145 0 l 1,2,-1
 51 0 l 1,3,-1
 225 362 l 1,4,-1
 67 700 l 1,5,-1
 162 700 l 1,6,-1
 272 463 l 1,7,-1
 386 700 l 1,8,-1
 479 700 l 1,9,-1
 317 363 l 1,10,-1
 489 0 l 1,11,-1
 391 0 l 1,0,-1
EndSplineSet
Position2: "'cpsp' Capital Spacing in Latin lookup 0 subtable" dx=5 dy=0 dh=10 dv=0
EndChar

StartChar: Y
Encoding: 89 89 58
Width: 540
Flags: W
LayerCount: 2
Fore
SplineSet
313 325 m 1,0,-1
 313 0 l 1,1,-1
 223 0 l 1,2,-1
 223 325 l 1,3,-1
 44 700 l 1,4,-1
 140 700 l 1,5,-1
 272 409 l 1,6,-1
 404 700 l 1,7,-1
 495 700 l 1,8,-1
 313 325 l 1,0,-1
EndSplineSet
Position2: "'cpsp' Capital Spacing in Latin lookup 0 subtable" dx=5 dy=0 dh=10 dv=0
EndChar

StartChar: Z
Encoding: 90 90 59
Width: 540
Flags: W
LayerCount: 2
Fore
SplineSet
178 74 m 1,0,-1
 441 74 l 1,1,-1
 441 0 l 1,2,-1
 87 0 l 1,3,-1
 87 88 l 1,4,-1
 361 626 l 1,5,-1
 110 626 l 1,6,-1
 110 700 l 1,7,-1
 451 700 l 1,8,-1
 451 612 l 1,9,-1
 178 74 l 1,0,-1
EndSplineSet
Position2: "'cpsp' Capital Spacing in Latin lookup 0 subtable" dx=5 dy=0 dh=10 dv=0
EndChar

StartChar: bracketleft
Encoding: 91 91 60
Width: 540
Flags: W
LayerCount: 2
Fore
SplineSet
165 -120 m 1,0,-1
 165 820 l 1,1,-1
 375 820 l 1,2,-1
 375 745 l 1,3,-1
 245 745 l 1,4,-1
 245 -45 l 1,5,-1
 375 -45 l 1,6,-1
 375 -120 l 1,7,-1
 165 -120 l 1,0,-1
EndSplineSet
EndChar

StartChar: backslash
Encoding: 92 92 61
Width: 540
Flags: W
LayerCount: 2
Fore
SplineSet
50 810 m 1,0,-1
 134 810 l 1,1,-1
 490 -110 l 1,2,-1
 406 -110 l 1,3,-1
 50 810 l 1,0,-1
EndSplineSet
EndChar

StartChar: bracketright
Encoding: 93 93 62
Width: 540
Flags: W
LayerCount: 2
Fore
SplineSet
165 -120 m 1,0,-1
 165 -45 l 1,1,-1
 295 -45 l 1,2,-1
 295 745 l 1,3,-1
 165 745 l 1,4,-1
 165 820 l 1,5,-1
 375 820 l 1,6,-1
 375 -120 l 1,7,-1
 165 -120 l 1,0,-1
EndSplineSet
EndChar

StartChar: asciicircum
Encoding: 94 94 63
Width: 540
Flags: W
LayerCount: 2
Fore
SplineSet
377 420 m 1,0,-1
 273 700 l 1,1,-1
 159 420 l 1,2,-1
 71 420 l 1,3,-1
 215 760 l 1,4,-1
 329 760 l 1,5,-1
 468 420 l 1,6,-1
 377 420 l 1,0,-1
EndSplineSet
EndChar

StartChar: underscore
Encoding: 95 95 64
Width: 540
Flags: W
LayerCount: 2
Fore
SplineSet
18 -170 m 1,0,-1
 18 -95 l 1,1,-1
 522 -95 l 1,2,-1
 522 -170 l 1,3,-1
 18 -170 l 1,0,-1
EndSplineSet
EndChar

StartChar: quoteleft
Encoding: 8216 8216 65
Width: 540
Flags: W
LayerCount: 2
Fore
SplineSet
262 699 m 1,0,-1
 332 699 l 1,1,-1
 302 542 l 1,2,-1
 302 452 l 1,3,-1
 207 452 l 1,4,-1
 207 542 l 1,5,-1
 262 699 l 1,0,-1
EndSplineSet
EndChar

StartChar: a
Encoding: 97 97 66
Width: 540
Flags: W
LayerCount: 2
Fore
SplineSet
417 0 m 2,0,1
 403 0 403 0 388 8 c 128,-1,2
 373 16 373 16 362 30 c 1,3,4
 351 16 351 16 336 8 c 128,-1,5
 321 0 321 0 301 0 c 2,6,-1
 212 0 l 2,7,8
 137 0 137 0 102 30 c 128,-1,9
 67 60 67 60 67 135 c 2,10,-1
 67 155 l 2,11,12
 67 230 67 230 102.5 270 c 128,-1,13
 138 310 138 310 213 310 c 2,14,-1
 337 310 l 1,15,-1
 337 360 l 2,16,17
 337 390 337 390 318.5 407.5 c 128,-1,18
 300 425 300 425 262 425 c 2,19,-1
 107 425 l 1,20,-1
 107 500 l 1,21,-1
 252 500 l 2,22,23
 339 500 339 500 380.5 463 c 128,-1,24
 422 426 422 426 422 340 c 2,25,-1
 422 100 l 2,26,27
 422 85 422 85 433 77.5 c 128,-1,28
 444 70 444 70 472 70 c 1,29,-1
 472 0 l 1,30,-1
 417 0 l 2,0,1
291 75 m 1,31,32
 308 75 308 75 317.5 80 c 128,-1,33
 327 85 327 85 331.5 92.5 c 128,-1,34
 336 100 336 100 336.5 109 c 128,-1,35
 337 118 337 118 337 125 c 2,36,-1
 337 235 l 1,37,-1
 212 235 l 2,38,39
 186 235 186 235 169 218 c 128,-1,40
 152 201 152 201 152 175 c 2,41,-1
 152 125 l 2,42,43
 152 75 152 75 202 75 c 2,44,-1
 291 75 l 1,45,-1
 291 75 l 1,31,32
EndSplineSet
Substitution2: "'ordn' Ordinals in Latin lookup 4 subtable" ordfeminine
Substitution2: "'aalt' Access All Alternates in Latin lookup 0 subtable" ordfeminine
EndChar

StartChar: b
Encoding: 98 98 67
Width: 540
Flags: W
LayerCount: 2
Fore
SplineSet
453 160 m 1,0,1
 453 74 453 74 411.5 37 c 128,-1,2
 370 0 370 0 283 0 c 2,3,-1
 87 0 l 1,4,-1
 87 700 l 1,5,-1
 172 700 l 1,6,-1
 172 480 l 1,7,8
 188 491 188 491 207 495.5 c 128,-1,9
 226 500 226 500 247 500 c 2,10,-1
 283 500 l 2,11,12
 370 500 370 500 411.5 463.5 c 128,-1,13
 453 427 453 427 453 340 c 2,14,-1
 453 160 l 1,15,-1
 453 160 l 1,0,1
237 425 m 1,16,17
 218 425 218 425 205.5 419 c 128,-1,18
 193 413 193 413 185.5 405 c 128,-1,19
 178 397 178 397 175 387.5 c 128,-1,20
 172 378 172 378 172 370 c 2,21,-1
 172 75 l 1,22,-1
 293 75 l 2,23,24
 331 75 331 75 349.5 92.5 c 128,-1,25
 368 110 368 110 368 140 c 2,26,-1
 368 360 l 2,27,28
 368 390 368 390 349.5 407.5 c 128,-1,29
 331 425 331 425 293 425 c 2,30,-1
 237 425 l 1,31,-1
 237 425 l 1,16,17
EndSplineSet
EndChar

StartChar: c
Encoding: 99 99 68
Width: 540
Flags: W
LayerCount: 2
Fore
SplineSet
290 0 m 2,0,1
 203 0 203 0 161.5 36.5 c 128,-1,2
 120 73 120 73 120 160 c 2,3,-1
 120 340 l 2,4,5
 120 426 120 426 161.5 463 c 128,-1,6
 203 500 203 500 290 500 c 2,7,-1
 419 500 l 1,8,-1
 419 425 l 1,9,-1
 280 425 l 2,10,11
 242 425 242 425 223.5 407.5 c 128,-1,12
 205 390 205 390 205 360 c 2,13,-1
 205 140 l 2,14,15
 205 110 205 110 223.5 92.5 c 128,-1,16
 242 75 242 75 280 75 c 2,17,-1
 419 75 l 1,18,-1
 419 0 l 1,19,-1
 290 0 l 2,0,1
EndSplineSet
EndChar

StartChar: d
Encoding: 100 100 69
Width: 540
Flags: W
LayerCount: 2
Fore
SplineSet
375 0 m 1,0,-1
 375 23 l 1,1,2
 342 0 342 0 295 0 c 2,3,-1
 254 0 l 2,4,5
 167 0 167 0 125.5 36.5 c 128,-1,6
 84 73 84 73 84 160 c 2,7,-1
 84 340 l 2,8,9
 84 426 84 426 125.5 463 c 128,-1,10
 167 500 167 500 254 500 c 2,11,-1
 370 500 l 1,12,-1
 370 700 l 1,13,-1
 455 700 l 1,14,-1
 455 0 l 1,15,-1
 375 0 l 1,0,-1
305 75 m 1,16,17
 324 75 324 75 336.5 81 c 128,-1,18
 349 87 349 87 356.5 95 c 128,-1,19
 364 103 364 103 367 113 c 128,-1,20
 370 123 370 123 370 130 c 2,21,-1
 370 425 l 1,22,-1
 244 425 l 2,23,24
 206 425 206 425 187.5 407.5 c 128,-1,25
 169 390 169 390 169 360 c 2,26,-1
 169 140 l 2,27,28
 169 110 169 110 187.5 92.5 c 128,-1,29
 206 75 206 75 244 75 c 2,30,-1
 305 75 l 1,31,-1
 305 75 l 1,16,17
EndSplineSet
EndChar

StartChar: e
Encoding: 101 101 70
Width: 540
Flags: W
LayerCount: 2
Fore
SplineSet
264 0 m 2,0,1
 177 0 177 0 135.5 36.5 c 128,-1,2
 94 73 94 73 94 160 c 2,3,-1
 94 340 l 2,4,5
 94 426 94 426 131 463 c 128,-1,6
 168 500 168 500 254 500 c 2,7,-1
 301 500 l 2,8,9
 373 500 373 500 409 460 c 128,-1,10
 445 420 445 420 445 345 c 2,11,-1
 445 215 l 1,12,-1
 179 215 l 1,13,-1
 179 140 l 2,14,15
 179 110 179 110 197.5 92.5 c 128,-1,16
 216 75 216 75 254 75 c 2,17,-1
 413 75 l 1,18,-1
 413 0 l 1,19,-1
 264 0 l 2,0,1
179 290 m 1,20,-1
 362 290 l 1,21,-1
 362 365 l 2,22,23
 362 391 362 391 345 408 c 128,-1,24
 328 425 328 425 302 425 c 2,25,-1
 244 425 l 2,26,27
 206 425 206 425 192.5 407.5 c 128,-1,28
 179 390 179 390 179 360 c 2,29,-1
 179 290 l 1,20,-1
EndSplineSet
EndChar

StartChar: f
Encoding: 102 102 71
Width: 540
Flags: W
LayerCount: 2
Fore
SplineSet
304 625 m 2,0,1
 287 625 287 625 278 616.5 c 128,-1,2
 269 608 269 608 269 595 c 2,3,-1
 269 500 l 1,4,-1
 430 500 l 1,5,-1
 430 425 l 1,6,-1
 269 425 l 1,7,-1
 269 75 l 1,8,-1
 390 75 l 1,9,-1
 390 0 l 1,10,-1
 99 0 l 1,11,-1
 99 75 l 1,12,-1
 184 75 l 1,13,-1
 184 425 l 1,14,-1
 99 425 l 1,15,-1
 99 500 l 1,16,-1
 184 500 l 1,17,-1
 184 590 l 2,18,19
 184 643 184 643 213.5 671.5 c 128,-1,20
 243 700 243 700 288 700 c 2,21,-1
 440 700 l 1,22,-1
 440 625 l 1,23,-1
 304 625 l 2,0,1
EndSplineSet
EndChar

StartChar: g
Encoding: 103 103 72
Width: 540
Flags: W
LayerCount: 2
Fore
SplineSet
467 -35 m 1,0,1
 467 -103 467 -103 427 -136.5 c 128,-1,2
 387 -170 387 -170 300 -170 c 2,3,-1
 92 -170 l 1,4,-1
 92 -95 l 1,5,-1
 310 -95 l 2,6,7
 348 -95 348 -95 365 -80 c 128,-1,8
 382 -65 382 -65 382 -45 c 2,9,-1
 382 -13 l 2,10,11
 382 10 382 10 365 23.5 c 128,-1,12
 348 37 348 37 310 37 c 2,13,-1
 137 37 l 1,14,-1
 137 175 l 1,15,16
 104 193 104 193 88 227 c 128,-1,17
 72 261 72 261 72 315 c 2,18,-1
 72 340 l 2,19,20
 72 426 72 426 113.5 463 c 128,-1,21
 155 500 155 500 242 500 c 2,22,-1
 452 500 l 1,23,-1
 452 315 l 2,24,25
 452 239 452 239 411 197 c 128,-1,26
 370 155 370 155 302 155 c 2,27,-1
 222 155 l 1,28,-1
 222 112 l 1,29,-1
 300 112 l 2,30,31
 387 112 387 112 427 78.5 c 128,-1,32
 467 45 467 45 467 -23 c 2,33,-1
 467 -35 l 1,34,-1
 467 -35 l 1,0,1
302 230 m 1,35,36
 320 230 320 230 332 236.5 c 128,-1,37
 344 243 344 243 351.5 253 c 128,-1,38
 359 263 359 263 362.5 273.5 c 128,-1,39
 366 284 366 284 367 292 c 1,40,-1
 367 425 l 1,41,-1
 232 425 l 2,42,43
 194 425 194 425 175.5 407.5 c 128,-1,44
 157 390 157 390 157 360 c 2,45,-1
 157 295 l 2,46,47
 157 265 157 265 175.5 247.5 c 128,-1,48
 194 230 194 230 232 230 c 2,49,-1
 302 230 l 1,50,-1
 302 230 l 1,35,36
EndSplineSet
EndChar

StartChar: h
Encoding: 104 104 73
Width: 540
Flags: W
LayerCount: 2
Fore
SplineSet
87 0 m 1,0,-1
 87 700 l 1,1,-1
 172 700 l 1,2,-1
 172 480 l 1,3,4
 188 491 188 491 207 495.5 c 128,-1,5
 226 500 226 500 247 500 c 2,6,-1
 293 500 l 2,7,8
 372 500 372 500 412.5 463.5 c 128,-1,9
 453 427 453 427 453 340 c 2,10,-1
 453 0 l 1,11,-1
 368 0 l 1,12,-1
 368 360 l 2,13,14
 368 390 368 390 350.5 407.5 c 128,-1,15
 333 425 333 425 303 425 c 2,16,-1
 237 425 l 2,17,18
 219 425 219 425 206.5 419.5 c 128,-1,19
 194 414 194 414 186.5 406.5 c 128,-1,20
 179 399 179 399 175.5 390 c 128,-1,21
 172 381 172 381 172 373 c 2,22,-1
 172 0 l 1,23,-1
 87 0 l 1,0,-1
EndSplineSet
EndChar

StartChar: i
Encoding: 105 105 74
Width: 540
Flags: W
LayerCount: 2
Fore
SplineSet
222 610 m 1,0,-1
 222 700 l 1,1,-1
 317 700 l 1,2,-1
 317 610 l 1,3,-1
 222 610 l 1,0,-1
227 0 m 1,4,-1
 227 425 l 1,5,-1
 80 425 l 1,6,-1
 80 500 l 1,7,-1
 312 500 l 1,8,-1
 312 75 l 1,9,-1
 460 75 l 1,10,-1
 460 0 l 1,11,-1
 227 0 l 1,4,-1
EndSplineSet
EndChar

StartChar: j
Encoding: 106 106 75
Width: 540
Flags: W
LayerCount: 2
Fore
SplineSet
278 -95 m 2,0,1
 295 -95 295 -95 304 -86.5 c 128,-1,2
 313 -78 313 -78 313 -65 c 2,3,-1
 313 425 l 1,4,-1
 166 425 l 1,5,-1
 166 500 l 1,6,-1
 398 500 l 1,7,-1
 398 -60 l 2,8,9
 398 -113 398 -113 368.5 -141.5 c 128,-1,10
 339 -170 339 -170 294 -170 c 2,11,-1
 137 -170 l 1,12,-1
 137 -95 l 1,13,-1
 278 -95 l 2,0,1
307 610 m 1,14,-1
 307 700 l 1,15,-1
 402 700 l 1,16,-1
 402 610 l 1,17,-1
 307 610 l 1,14,-1
EndSplineSet
EndChar

StartChar: k
Encoding: 107 107 76
Width: 540
Flags: W
LayerCount: 2
Fore
SplineSet
354 0 m 1,0,-1
 207 244 l 1,1,-1
 181 214 l 1,2,-1
 181 0 l 1,3,-1
 96 0 l 1,4,-1
 96 700 l 1,5,-1
 181 700 l 1,6,-1
 181 322 l 1,7,-1
 338 500 l 1,8,-1
 445 500 l 1,9,-1
 271 303 l 1,10,-1
 459 0 l 1,11,-1
 354 0 l 1,0,-1
EndSplineSet
EndChar

StartChar: l
Encoding: 108 108 77
Width: 540
Flags: W
LayerCount: 2
Fore
SplineSet
302 0 m 2,0,1
 287 0 287 0 272 5 c 128,-1,2
 257 10 257 10 245 21.5 c 128,-1,3
 233 33 233 33 225 52.5 c 128,-1,4
 217 72 217 72 217 100 c 2,5,-1
 217 625 l 1,6,-1
 70 625 l 1,7,-1
 70 700 l 1,8,-1
 302 700 l 1,9,-1
 302 105 l 2,10,11
 302 89 302 89 309.5 82 c 128,-1,12
 317 75 317 75 337 75 c 2,13,-1
 470 75 l 1,14,-1
 470 0 l 1,15,-1
 302 0 l 2,0,1
EndSplineSet
EndChar

StartChar: m
Encoding: 109 109 78
Width: 540
Flags: W
LayerCount: 2
Fore
SplineSet
43 0 m 1,0,-1
 43 500 l 1,1,-1
 118 500 l 1,2,-1
 118 477 l 1,3,4
 144 500 144 500 180 500 c 2,5,-1
 186 500 l 2,6,7
 256 500 256 500 285 460 c 1,8,9
 303 482 303 482 325.5 491 c 128,-1,10
 348 500 348 500 372 500 c 2,11,-1
 378 500 l 2,12,13
 407 500 407 500 429.5 493.5 c 128,-1,14
 452 487 452 487 467 470.5 c 128,-1,15
 482 454 482 454 489.5 427 c 128,-1,16
 497 400 497 400 497 359 c 2,17,-1
 497 0 l 1,18,-1
 417 0 l 1,19,-1
 417 360 l 2,20,21
 417 398 417 398 409.5 415.5 c 128,-1,22
 402 433 402 433 370 433 c 2,23,-1
 364 433 l 2,24,25
 347 433 347 433 336.5 426 c 128,-1,26
 326 419 326 419 320.5 408.5 c 128,-1,27
 315 398 315 398 312.5 387 c 128,-1,28
 310 376 310 376 310 367 c 2,29,-1
 310 0 l 1,30,-1
 230 0 l 1,31,-1
 230 360 l 2,32,33
 230 403 230 403 220 418 c 128,-1,34
 210 433 210 433 184 433 c 2,35,-1
 178 433 l 2,36,37
 161 433 161 433 150.5 427 c 128,-1,38
 140 421 140 421 134 412.5 c 128,-1,39
 128 404 128 404 125.5 394 c 128,-1,40
 123 384 123 384 123 376 c 2,41,-1
 123 0 l 1,42,-1
 43 0 l 1,0,-1
EndSplineSet
EndChar

StartChar: n
Encoding: 110 110 79
Width: 540
Flags: W
LayerCount: 2
Fore
SplineSet
87 0 m 1,0,-1
 87 500 l 1,1,-1
 167 500 l 1,2,-1
 167 476 l 1,3,4
 184 489 184 489 204 494.5 c 128,-1,5
 224 500 224 500 247 500 c 2,6,-1
 293 500 l 2,7,8
 372 500 372 500 412.5 463.5 c 128,-1,9
 453 427 453 427 453 340 c 2,10,-1
 453 0 l 1,11,-1
 368 0 l 1,12,-1
 368 360 l 2,13,14
 368 390 368 390 350.5 407.5 c 128,-1,15
 333 425 333 425 303 425 c 2,16,-1
 237 425 l 2,17,18
 218 425 218 425 205.5 419 c 128,-1,19
 193 413 193 413 185.5 405 c 128,-1,20
 178 397 178 397 175 387.5 c 128,-1,21
 172 378 172 378 172 370 c 2,22,-1
 172 0 l 1,23,-1
 87 0 l 1,0,-1
EndSplineSet
EndChar

StartChar: o
Encoding: 111 111 80
Width: 540
Flags: W
LayerCount: 2
Fore
SplineSet
456 160 m 1,0,1
 456 74 456 74 414.5 37 c 128,-1,2
 373 0 373 0 286 0 c 2,3,-1
 253 0 l 2,4,5
 166 0 166 0 124.5 37 c 128,-1,6
 83 74 83 74 83 160 c 2,7,-1
 83 340 l 2,8,9
 83 426 83 426 124.5 463 c 128,-1,10
 166 500 166 500 253 500 c 2,11,-1
 286 500 l 2,12,13
 373 500 373 500 414.5 463 c 128,-1,14
 456 426 456 426 456 340 c 2,15,-1
 456 160 l 1,16,-1
 456 160 l 1,0,1
371 360 m 2,17,18
 371 390 371 390 352.5 407.5 c 128,-1,19
 334 425 334 425 296 425 c 2,20,-1
 243 425 l 2,21,22
 205 425 205 425 186.5 407.5 c 128,-1,23
 168 390 168 390 168 360 c 2,24,-1
 168 140 l 2,25,26
 168 110 168 110 186.5 92.5 c 128,-1,27
 205 75 205 75 243 75 c 2,28,-1
 296 75 l 2,29,30
 334 75 334 75 352.5 92.5 c 128,-1,31
 371 110 371 110 371 140 c 2,32,-1
 371 360 l 2,17,18
EndSplineSet
Substitution2: "'ordn' Ordinals in Latin lookup 4 subtable" ordmasculine
Substitution2: "'aalt' Access All Alternates in Latin lookup 0 subtable" ordmasculine
EndChar

StartChar: p
Encoding: 112 112 81
Width: 540
Flags: W
LayerCount: 2
Fore
SplineSet
87 -170 m 1,0,-1
 87 500 l 1,1,-1
 167 500 l 1,2,-1
 167 476 l 1,3,4
 184 489 184 489 204 494.5 c 128,-1,5
 224 500 224 500 247 500 c 2,6,-1
 283 500 l 2,7,8
 370 500 370 500 411.5 463.5 c 128,-1,9
 453 427 453 427 453 340 c 2,10,-1
 453 160 l 2,11,12
 453 74 453 74 411.5 37 c 128,-1,13
 370 0 370 0 283 0 c 2,14,-1
 172 0 l 1,15,-1
 172 -170 l 1,16,-1
 87 -170 l 1,0,-1
237 425 m 1,17,18
 218 425 218 425 205.5 419 c 128,-1,19
 193 413 193 413 185.5 405 c 128,-1,20
 178 397 178 397 175 387.5 c 128,-1,21
 172 378 172 378 172 370 c 2,22,-1
 172 75 l 1,23,-1
 293 75 l 2,24,25
 331 75 331 75 349.5 92.5 c 128,-1,26
 368 110 368 110 368 140 c 2,27,-1
 368 360 l 2,28,29
 368 390 368 390 349.5 407.5 c 128,-1,30
 331 425 331 425 293 425 c 2,31,-1
 237 425 l 1,32,-1
 237 425 l 1,17,18
EndSplineSet
EndChar

StartChar: q
Encoding: 113 113 82
Width: 540
Flags: W
LayerCount: 2
Fore
SplineSet
370 -170 m 1,0,-1
 370 20 l 1,1,2
 339 0 339 0 295 0 c 2,3,-1
 254 0 l 2,4,5
 167 0 167 0 125.5 36.5 c 128,-1,6
 84 73 84 73 84 160 c 2,7,-1
 84 340 l 2,8,9
 84 426 84 426 125.5 463 c 128,-1,10
 167 500 167 500 254 500 c 2,11,-1
 455 500 l 1,12,-1
 455 -170 l 1,13,-1
 370 -170 l 1,0,-1
305 75 m 1,14,15
 324 75 324 75 336.5 81 c 128,-1,16
 349 87 349 87 356.5 95 c 128,-1,17
 364 103 364 103 367 113 c 128,-1,18
 370 123 370 123 370 130 c 2,19,-1
 370 425 l 1,20,-1
 244 425 l 2,21,22
 206 425 206 425 187.5 407.5 c 128,-1,23
 169 390 169 390 169 360 c 2,24,-1
 169 140 l 2,25,26
 169 110 169 110 187.5 92.5 c 128,-1,27
 206 75 206 75 244 75 c 2,28,-1
 305 75 l 1,29,-1
 305 75 l 1,14,15
EndSplineSet
EndChar

StartChar: r
Encoding: 114 114 83
Width: 540
Flags: W
LayerCount: 2
Fore
SplineSet
100 0 m 1,0,-1
 100 75 l 1,1,-1
 173 75 l 1,2,-1
 173 425 l 1,3,-1
 100 425 l 1,4,-1
 100 500 l 1,5,-1
 253 500 l 1,6,-1
 253 473 l 1,7,8
 286 500 286 500 333 500 c 2,9,-1
 436 500 l 1,10,-1
 436 420 l 1,11,-1
 323 420 l 2,12,13
 305 420 305 420 292.5 413.5 c 128,-1,14
 280 407 280 407 272.5 397 c 128,-1,15
 265 387 265 387 261.5 376.5 c 128,-1,16
 258 366 258 366 258 358 c 2,17,-1
 258 75 l 1,18,-1
 367 75 l 1,19,-1
 367 0 l 1,20,-1
 100 0 l 1,0,-1
EndSplineSet
EndChar

StartChar: s
Encoding: 115 115 84
Width: 540
Flags: W
LayerCount: 2
Fore
SplineSet
422 125 m 1,0,1
 422 60 422 60 383 30 c 128,-1,2
 344 0 344 0 272 0 c 2,3,-1
 123 0 l 1,4,-1
 123 75 l 1,5,-1
 282 75 l 2,6,7
 337 75 337 75 337 120 c 2,8,-1
 337 173 l 2,9,10
 337 218 337 218 294 218 c 2,11,-1
 257 218 l 2,12,13
 188 218 188 218 153 247.5 c 128,-1,14
 118 277 118 277 118 345 c 2,15,-1
 118 374 l 2,16,17
 118 444 118 444 157 472 c 128,-1,18
 196 500 196 500 268 500 c 2,19,-1
 402 500 l 1,20,-1
 402 425 l 1,21,-1
 258 425 l 2,22,23
 234 425 234 425 218.5 414 c 128,-1,24
 203 403 203 403 203 380 c 2,25,-1
 203 344 l 2,26,27
 203 320 203 320 217.5 309.5 c 128,-1,28
 232 299 232 299 251 299 c 2,29,-1
 285 299 l 2,30,31
 352 299 352 299 387 266.5 c 128,-1,32
 422 234 422 234 422 170 c 2,33,-1
 422 125 l 1,34,-1
 422 125 l 1,0,1
EndSplineSet
EndChar

StartChar: t
Encoding: 116 116 85
Width: 540
Flags: W
LayerCount: 2
Fore
SplineSet
307 0 m 2,0,1
 254 0 254 0 228 33.5 c 128,-1,2
 202 67 202 67 202 120 c 2,3,-1
 202 425 l 1,4,-1
 107 425 l 1,5,-1
 107 500 l 1,6,-1
 202 500 l 1,7,-1
 202 620 l 1,8,-1
 287 620 l 1,9,-1
 287 500 l 1,10,-1
 433 500 l 1,11,-1
 433 425 l 1,12,-1
 287 425 l 1,13,-1
 287 115 l 2,14,15
 287 92 287 92 298 83.5 c 128,-1,16
 309 75 309 75 332 75 c 2,17,-1
 433 75 l 1,18,-1
 433 0 l 1,19,-1
 307 0 l 2,0,1
EndSplineSet
EndChar

StartChar: u
Encoding: 117 117 86
Width: 540
Flags: W
LayerCount: 2
Fore
SplineSet
367 0 m 1,0,-1
 367 23 l 1,1,2
 334 0 334 0 287 0 c 2,3,-1
 253 0 l 2,4,5
 174 0 174 0 133.5 36.5 c 128,-1,6
 93 73 93 73 93 160 c 2,7,-1
 93 500 l 1,8,-1
 178 500 l 1,9,-1
 178 140 l 2,10,11
 178 110 178 110 195.5 92.5 c 128,-1,12
 213 75 213 75 243 75 c 2,13,-1
 297 75 l 2,14,15
 315 75 315 75 327 80 c 128,-1,16
 339 85 339 85 346.5 93 c 128,-1,17
 354 101 354 101 357.5 110 c 128,-1,18
 361 119 361 119 362 127 c 1,19,-1
 362 500 l 1,20,-1
 447 500 l 1,21,-1
 447 0 l 1,22,-1
 367 0 l 1,0,-1
EndSplineSet
EndChar

StartChar: v
Encoding: 118 118 87
Width: 540
Flags: W
LayerCount: 2
Fore
SplineSet
332 0 m 1,0,-1
 209 0 l 1,1,-1
 64 500 l 1,2,-1
 156 500 l 1,3,-1
 273 69 l 1,4,-1
 387 500 l 1,5,-1
 476 500 l 1,6,-1
 332 0 l 1,0,-1
EndSplineSet
EndChar

StartChar: w
Encoding: 119 119 88
Width: 540
Flags: W
LayerCount: 2
Fore
SplineSet
416 0 m 1,0,-1
 320 0 l 1,1,-1
 272 251 l 1,2,-1
 218 0 l 1,3,-1
 125 0 l 1,4,-1
 35 500 l 1,5,-1
 120 500 l 1,6,-1
 177 103 l 1,7,-1
 243 410 l 1,8,-1
 308 410 l 1,9,-1
 368 103 l 1,10,-1
 425 500 l 1,11,-1
 505 500 l 1,12,-1
 416 0 l 1,0,-1
EndSplineSet
EndChar

StartChar: x
Encoding: 120 120 89
Width: 540
Flags: W
LayerCount: 2
Fore
SplineSet
374 0 m 1,0,-1
 269 189 l 1,1,-1
 159 0 l 1,2,-1
 65 0 l 1,3,-1
 221 258 l 1,4,-1
 77 500 l 1,5,-1
 176 500 l 1,6,-1
 271 332 l 1,7,-1
 368 500 l 1,8,-1
 461 500 l 1,9,-1
 315 262 l 1,10,-1
 474 0 l 1,11,-1
 374 0 l 1,0,-1
EndSplineSet
EndChar

StartChar: y
Encoding: 121 121 90
Width: 540
Flags: W
LayerCount: 2
Fore
SplineSet
180 -95 m 2,0,1
 203 -95 203 -95 215.5 -86.5 c 128,-1,2
 228 -78 228 -78 234 -55 c 2,3,-1
 248 0 l 1,4,-1
 228 0 l 1,5,-1
 63 500 l 1,6,-1
 155 500 l 1,7,-1
 280 81 l 1,8,-1
 389 500 l 1,9,-1
 476 500 l 1,10,-1
 321 -54 l 1,11,12
 311 -94 311 -94 297.5 -117 c 128,-1,13
 284 -140 284 -140 267 -152 c 128,-1,14
 250 -164 250 -164 230 -167 c 128,-1,15
 210 -170 210 -170 186 -170 c 2,16,-1
 138 -170 l 1,17,-1
 138 -95 l 1,18,-1
 180 -95 l 2,0,1
EndSplineSet
EndChar

StartChar: z
Encoding: 122 122 91
Width: 540
Flags: W
LayerCount: 2
Fore
SplineSet
202 74 m 1,0,-1
 424 74 l 1,1,-1
 424 0 l 1,2,-1
 106 0 l 1,3,-1
 106 80 l 1,4,-1
 340 426 l 1,5,-1
 126 426 l 1,6,-1
 126 500 l 1,7,-1
 434 500 l 1,8,-1
 434 411 l 1,9,-1
 202 74 l 1,0,-1
EndSplineSet
EndChar

StartChar: braceleft
Encoding: 123 123 92
Width: 540
Flags: W
LayerCount: 2
Fore
SplineSet
147 405 m 1,0,1
 185 405 185 405 201.5 417 c 128,-1,2
 218 429 218 429 218 469 c 2,3,-1
 218 698 l 2,4,5
 218 765 218 765 242.5 792.5 c 128,-1,6
 267 820 267 820 327 820 c 2,7,-1
 392 820 l 1,8,-1
 392 750 l 1,9,-1
 341 750 l 2,10,11
 318 750 318 750 307 743 c 128,-1,12
 296 736 296 736 296 713 c 2,13,-1
 296 469 l 2,14,15
 296 416 296 416 270.5 385 c 128,-1,16
 245 354 245 354 211 349 c 1,17,18
 245 345 245 345 270.5 314.5 c 128,-1,19
 296 284 296 284 296 231 c 2,20,-1
 296 -13 l 2,21,22
 296 -36 296 -36 307 -43 c 128,-1,23
 318 -50 318 -50 341 -50 c 2,24,-1
 392 -50 l 1,25,-1
 392 -120 l 1,26,-1
 327 -120 l 2,27,28
 267 -120 267 -120 242.5 -92.5 c 128,-1,29
 218 -65 218 -65 218 2 c 2,30,-1
 218 231 l 2,31,32
 218 251 218 251 214 263.5 c 128,-1,33
 210 276 210 276 201.5 283 c 128,-1,34
 193 290 193 290 179.5 292.5 c 128,-1,35
 166 295 166 295 147 295 c 1,36,-1
 147 405 l 1,0,1
EndSplineSet
EndChar

StartChar: bar
Encoding: 124 124 93
Width: 540
Flags: W
LayerCount: 2
Fore
SplineSet
230 -110 m 1,0,-1
 230 810 l 1,1,-1
 310 810 l 1,2,-1
 310 -110 l 1,3,-1
 230 -110 l 1,0,-1
EndSplineSet
EndChar

StartChar: braceright
Encoding: 125 125 94
Width: 540
Flags: W
LayerCount: 2
Fore
SplineSet
392 295 m 1,0,1
 373 295 373 295 359.5 292.5 c 128,-1,2
 346 290 346 290 337.5 283 c 128,-1,3
 329 276 329 276 325 263.5 c 128,-1,4
 321 251 321 251 321 231 c 2,5,-1
 321 2 l 2,6,7
 321 -65 321 -65 296.5 -92.5 c 128,-1,8
 272 -120 272 -120 212 -120 c 2,9,-1
 147 -120 l 1,10,-1
 147 -50 l 1,11,-1
 198 -50 l 2,12,13
 221 -50 221 -50 232 -43 c 128,-1,14
 243 -36 243 -36 243 -13 c 2,15,-1
 243 231 l 2,16,17
 243 284 243 284 268.5 314.5 c 128,-1,18
 294 345 294 345 328 349 c 1,19,20
 294 354 294 354 268.5 385 c 128,-1,21
 243 416 243 416 243 469 c 2,22,-1
 243 713 l 2,23,24
 243 736 243 736 232 743 c 128,-1,25
 221 750 221 750 198 750 c 2,26,-1
 147 750 l 1,27,-1
 147 820 l 1,28,-1
 212 820 l 2,29,30
 272 820 272 820 296.5 792.5 c 128,-1,31
 321 765 321 765 321 698 c 2,32,-1
 321 469 l 2,33,34
 321 429 321 429 337.5 417 c 128,-1,35
 354 405 354 405 392 405 c 1,36,-1
 392 295 l 1,0,1
EndSplineSet
EndChar

StartChar: asciitilde
Encoding: 126 126 95
Width: 540
Flags: W
LayerCount: 2
Fore
SplineSet
100 346 m 1,0,1
 122 356 122 356 141 364 c 0,2,3
 158 371 158 371 174 376 c 128,-1,4
 190 381 190 381 197 381 c 2,5,-1
 212 381 l 2,6,7
 221 381 221 381 239.5 375 c 128,-1,8
 258 369 258 369 278 361.5 c 128,-1,9
 298 354 298 354 316 347.5 c 128,-1,10
 334 341 334 341 343 341 c 2,11,-1
 353 341 l 2,12,13
 358 341 358 341 372 346.5 c 128,-1,14
 386 352 386 352 401 359 c 0,15,16
 419 367 419 367 440 377 c 1,17,-1
 440 297 l 1,18,19
 420 288 420 288 402 280 c 0,20,21
 387 273 387 273 373 267.5 c 128,-1,22
 359 262 359 262 352 262 c 2,23,-1
 337 262 l 2,24,25
 332 262 332 262 314 268.5 c 128,-1,26
 296 275 296 275 274.5 282.5 c 128,-1,27
 253 290 253 290 234 296 c 128,-1,28
 215 302 215 302 207 302 c 2,29,-1
 197 302 l 2,30,31
 192 302 192 302 176 296.5 c 128,-1,32
 160 291 160 291 143 284 c 0,33,34
 123 276 123 276 100 266 c 1,35,-1
 100 346 l 1,0,1
EndSplineSet
EndChar

StartChar: exclamdown
Encoding: 161 161 96
Width: 540
Flags: W
LayerCount: 2
Fore
SplineSet
320 500 m 1,0,-1
 320 400 l 1,1,-1
 220 400 l 1,2,-1
 220 500 l 1,3,-1
 320 500 l 1,0,-1
313 292 m 1,4,-1
 313 -200 l 1,5,-1
 228 -200 l 1,6,-1
 228 292 l 1,7,-1
 313 292 l 1,4,-1
EndSplineSet
EndChar

StartChar: cent
Encoding: 162 162 97
Width: 540
Flags: W
LayerCount: 2
Fore
SplineSet
260 -110 m 1,0,-1
 260 0 l 1,1,2
 188 6 188 6 154 43 c 128,-1,3
 120 80 120 80 120 159 c 2,4,-1
 120 339 l 2,5,6
 120 417 120 417 154 454 c 128,-1,7
 188 491 188 491 260 497 c 1,8,-1
 260 600 l 1,9,-1
 340 600 l 1,10,-1
 340 499 l 1,11,-1
 419 499 l 1,12,-1
 419 424 l 1,13,-1
 280 424 l 2,14,15
 242 424 242 424 223.5 406.5 c 128,-1,16
 205 389 205 389 205 359 c 2,17,-1
 205 139 l 2,18,19
 205 109 205 109 223.5 91.5 c 128,-1,20
 242 74 242 74 280 74 c 2,21,-1
 419 74 l 1,22,-1
 419 -1 l 1,23,-1
 340 -1 l 1,24,-1
 340 -110 l 1,25,-1
 260 -110 l 1,0,-1
EndSplineSet
EndChar

StartChar: sterling
Encoding: 163 163 98
Width: 540
Flags: W
LayerCount: 2
Fore
SplineSet
92 413 m 1,0,-1
 162 413 l 1,1,-1
 162 530 l 2,2,3
 162 616 162 616 208.5 658 c 128,-1,4
 255 700 255 700 342 700 c 2,5,-1
 439 700 l 1,6,-1
 439 624 l 1,7,-1
 332 624 l 2,8,9
 294 624 294 624 271.5 601.5 c 128,-1,10
 249 579 249 579 249 549 c 2,11,-1
 249 413 l 1,12,-1
 377 413 l 1,13,-1
 377 340 l 1,14,-1
 249 340 l 1,15,-1
 249 73 l 1,16,-1
 447 73 l 1,17,-1
 447 0 l 1,18,-1
 92 0 l 1,19,-1
 92 73 l 1,20,-1
 162 73 l 1,21,-1
 162 340 l 1,22,-1
 92 340 l 1,23,-1
 92 413 l 1,0,-1
EndSplineSet
EndChar

StartChar: fraction
Encoding: 8260 8260 99
Width: 540
Flags: W
LayerCount: 2
Fore
SplineSet
179 -110 m 1,0,-1
 105 -110 l 1,1,-1
 361 810 l 1,2,-1
 435 810 l 1,3,-1
 179 -110 l 1,0,-1
EndSplineSet
EndChar

StartChar: yen
Encoding: 165 165 100
Width: 540
Flags: W
LayerCount: 2
Fore
SplineSet
314 115 m 1,0,-1
 314 0 l 1,1,-1
 224 0 l 1,2,-1
 224 115 l 1,3,-1
 94 115 l 1,4,-1
 94 190 l 1,5,-1
 224 190 l 1,6,-1
 224 265 l 1,7,-1
 94 265 l 1,8,-1
 94 340 l 1,9,-1
 221 340 l 1,10,-1
 55 700 l 1,11,-1
 151 700 l 1,12,-1
 273 427 l 1,13,-1
 394 700 l 1,14,-1
 485 700 l 1,15,-1
 316 340 l 1,16,-1
 444 340 l 1,17,-1
 444 265 l 1,18,-1
 314 265 l 1,19,-1
 314 190 l 1,20,-1
 444 190 l 1,21,-1
 444 115 l 1,22,-1
 314 115 l 1,0,-1
EndSplineSet
EndChar

StartChar: florin
Encoding: 402 402 101
Width: 540
Flags: W
LayerCount: 2
Fore
SplineSet
345 625 m 2,0,1
 328 625 328 625 319 616.5 c 128,-1,2
 310 608 310 608 310 595 c 2,3,-1
 310 500 l 1,4,-1
 471 500 l 1,5,-1
 471 425 l 1,6,-1
 310 425 l 1,7,-1
 310 -60 l 2,8,9
 310 -113 310 -113 280.5 -141.5 c 128,-1,10
 251 -170 251 -170 206 -170 c 2,11,-1
 79 -170 l 1,12,-1
 79 -95 l 1,13,-1
 190 -95 l 2,14,15
 207 -95 207 -95 216 -86.5 c 128,-1,16
 225 -78 225 -78 225 -65 c 2,17,-1
 225 425 l 1,18,-1
 140 425 l 1,19,-1
 140 500 l 1,20,-1
 225 500 l 1,21,-1
 225 590 l 2,22,23
 225 643 225 643 254.5 671.5 c 128,-1,24
 284 700 284 700 329 700 c 2,25,-1
 481 700 l 1,26,-1
 481 625 l 1,27,-1
 345 625 l 2,0,1
EndSplineSet
EndChar

StartChar: section
Encoding: 167 167 102
Width: 540
Flags: W
LayerCount: 2
Fore
SplineSet
113 355 m 1,0,1
 113 392 113 392 125.5 420 c 128,-1,2
 138 448 138 448 157 462 c 1,3,4
 143 476 143 476 135 498.5 c 128,-1,5
 127 521 127 521 127 550 c 2,6,-1
 127 560 l 2,7,8
 127 635 127 635 166 667.5 c 128,-1,9
 205 700 205 700 277 700 c 2,10,-1
 401 700 l 1,11,-1
 401 625 l 1,12,-1
 267 625 l 2,13,14
 244 625 244 625 228 614 c 128,-1,15
 212 603 212 603 212 580 c 2,16,-1
 212 540 l 2,17,18
 212 516 212 516 225.5 505.5 c 128,-1,19
 239 495 239 495 260 495 c 2,20,-1
 289 495 l 2,21,22
 356 495 356 495 391 460 c 128,-1,23
 426 425 426 425 426 350 c 2,24,-1
 426 345 l 2,25,26
 426 307 426 307 413.5 281 c 128,-1,27
 401 255 401 255 382 238 c 1,28,29
 396 227 396 227 404 203 c 128,-1,30
 412 179 412 179 412 150 c 2,31,-1
 412 140 l 2,32,33
 412 65 412 65 373 32.5 c 128,-1,34
 334 0 334 0 262 0 c 2,35,-1
 138 0 l 1,36,-1
 138 75 l 1,37,-1
 272 75 l 2,38,39
 295 75 295 75 311 86 c 128,-1,40
 327 97 327 97 327 120 c 2,41,-1
 327 160 l 2,42,43
 327 205 327 205 283 205 c 2,44,-1
 250 205 l 2,45,46
 183 205 183 205 148 240 c 128,-1,47
 113 275 113 275 113 350 c 2,48,-1
 113 355 l 1,49,-1
 113 355 l 1,0,1
233 420 m 2,50,51
 198 420 198 420 198 375 c 2,52,-1
 198 330 l 2,53,54
 198 309 198 309 210 294.5 c 128,-1,55
 222 280 222 280 251 280 c 2,56,-1
 306 280 l 2,57,58
 322 280 322 280 331.5 291 c 128,-1,59
 341 302 341 302 341 325 c 2,60,-1
 341 370 l 2,61,62
 341 390 341 390 331.5 405 c 128,-1,63
 322 420 322 420 289 420 c 2,64,-1
 233 420 l 2,50,51
EndSplineSet
EndChar

StartChar: currency
Encoding: 164 164 103
Width: 540
Flags: W
LayerCount: 2
Fore
SplineSet
85 174 m 1,0,1
 73 206 73 206 73 252 c 2,2,-1
 73 350 l 2,3,4
 73 398 73 398 85 429 c 1,5,-1
 14 501 l 1,6,-1
 71 558 l 1,7,-1
 139 490 l 1,8,9
 176 510 176 510 243 510 c 2,10,-1
 296 510 l 2,11,12
 361 510 361 510 400 489 c 1,13,-1
 469 558 l 1,14,-1
 526 501 l 1,15,-1
 453 428 l 1,16,17
 466 398 466 398 466 350 c 2,18,-1
 466 252 l 2,19,20
 466 207 466 207 454 175 c 1,21,-1
 526 103 l 1,22,-1
 469 46 l 1,23,-1
 402 113 l 1,24,25
 362 92 362 92 296 92 c 2,26,-1
 243 92 l 2,27,28
 210 92 210 92 184 97 c 128,-1,29
 158 102 158 102 138 113 c 1,30,-1
 71 46 l 1,31,-1
 14 103 l 1,32,-1
 85 174 l 1,0,1
381 370 m 2,33,34
 381 400 381 400 362.5 417.5 c 128,-1,35
 344 435 344 435 306 435 c 2,36,-1
 233 435 l 2,37,38
 195 435 195 435 176.5 417.5 c 128,-1,39
 158 400 158 400 158 370 c 2,40,-1
 158 232 l 2,41,42
 158 202 158 202 176.5 184.5 c 128,-1,43
 195 167 195 167 233 167 c 2,44,-1
 306 167 l 2,45,46
 344 167 344 167 362.5 184.5 c 128,-1,47
 381 202 381 202 381 232 c 2,48,-1
 381 370 l 2,33,34
EndSplineSet
EndChar

StartChar: quotesingle
Encoding: 39 39 104
Width: 540
Flags: W
LayerCount: 2
Fore
SplineSet
297 453 m 1,0,-1
 242 453 l 1,1,-1
 222 610 l 1,2,-1
 222 700 l 1,3,-1
 317 700 l 1,4,-1
 317 610 l 1,5,-1
 297 453 l 1,0,-1
EndSplineSet
EndChar

StartChar: quotedblleft
Encoding: 8220 8220 105
Width: 540
Flags: W
LayerCount: 2
Fore
SplineSet
185 699 m 1,0,-1
 255 699 l 1,1,-1
 225 542 l 1,2,-1
 225 452 l 1,3,-1
 130 452 l 1,4,-1
 130 542 l 1,5,-1
 185 699 l 1,0,-1
340 699 m 1,6,-1
 410 699 l 1,7,-1
 380 542 l 1,8,-1
 380 452 l 1,9,-1
 285 452 l 1,10,-1
 285 542 l 1,11,-1
 340 699 l 1,6,-1
EndSplineSet
EndChar

StartChar: guillemotleft
Encoding: 171 171 106
Width: 540
Flags: W
LayerCount: 2
Fore
SplineSet
201 92 m 1,0,-1
 112 299 l 1,1,-1
 201 506 l 1,2,-1
 267 506 l 1,3,-1
 204 299 l 1,4,-1
 267 92 l 1,5,-1
 201 92 l 1,0,-1
361 92 m 1,6,-1
 272 299 l 1,7,-1
 361 506 l 1,8,-1
 427 506 l 1,9,-1
 364 299 l 1,10,-1
 427 92 l 1,11,-1
 361 92 l 1,6,-1
EndSplineSet
EndChar

StartChar: guilsinglleft
Encoding: 8249 8249 107
Width: 540
Flags: W
LayerCount: 2
Fore
SplineSet
281 92 m 1,0,-1
 192 299 l 1,1,-1
 281 506 l 1,2,-1
 347 506 l 1,3,-1
 284 299 l 1,4,-1
 347 92 l 1,5,-1
 281 92 l 1,0,-1
EndSplineSet
EndChar

StartChar: guilsinglright
Encoding: 8250 8250 108
Width: 540
Flags: W
LayerCount: 2
Fore
SplineSet
192 92 m 1,0,-1
 255 299 l 1,1,-1
 192 506 l 1,2,-1
 258 506 l 1,3,-1
 347 299 l 1,4,-1
 258 92 l 1,5,-1
 192 92 l 1,0,-1
EndSplineSet
EndChar

StartChar: fi
Encoding: 64257 64257 109
Width: 540
Flags: W
LayerCount: 2
Fore
SplineSet
220 260 m 1,0,-1
 220 360 l 1,1,-1
 320 360 l 1,2,-1
 320 260 l 1,3,-1
 220 260 l 1,0,-1
EndSplineSet
Ligature2: "'liga' Standard Ligatures in Latin lookup 3 subtable" f i
EndChar

StartChar: fl
Encoding: 64258 64258 110
Width: 540
Flags: W
LayerCount: 2
Fore
SplineSet
220 260 m 1,0,-1
 220 360 l 1,1,-1
 320 360 l 1,2,-1
 320 260 l 1,3,-1
 220 260 l 1,0,-1
EndSplineSet
Ligature2: "'liga' Standard Ligatures in Latin lookup 3 subtable" f l
EndChar

StartChar: endash
Encoding: 8211 8211 111
Width: 540
Flags: W
LayerCount: 2
Fore
SplineSet
80 275 m 1,0,-1
 80 350 l 1,1,-1
 460 350 l 1,2,-1
 460 275 l 1,3,-1
 80 275 l 1,0,-1
EndSplineSet
EndChar

StartChar: dagger
Encoding: 8224 8224 112
Width: 540
Flags: W
LayerCount: 2
Fore
SplineSet
230 0 m 1,0,-1
 230 425 l 1,1,-1
 89 425 l 1,2,-1
 89 500 l 1,3,-1
 230 500 l 1,4,-1
 230 700 l 1,5,-1
 310 700 l 1,6,-1
 310 500 l 1,7,-1
 450 500 l 1,8,-1
 450 425 l 1,9,-1
 310 425 l 1,10,-1
 310 0 l 1,11,-1
 230 0 l 1,0,-1
EndSplineSet
EndChar

StartChar: daggerdbl
Encoding: 8225 8225 113
Width: 540
Flags: W
LayerCount: 2
Fore
SplineSet
230 0 m 1,0,-1
 230 210 l 1,1,-1
 89 210 l 1,2,-1
 89 285 l 1,3,-1
 230 285 l 1,4,-1
 230 425 l 1,5,-1
 89 425 l 1,6,-1
 89 500 l 1,7,-1
 230 500 l 1,8,-1
 230 700 l 1,9,-1
 310 700 l 1,10,-1
 310 500 l 1,11,-1
 450 500 l 1,12,-1
 450 425 l 1,13,-1
 310 425 l 1,14,-1
 310 285 l 1,15,-1
 450 285 l 1,16,-1
 450 210 l 1,17,-1
 310 210 l 1,18,-1
 310 0 l 1,19,-1
 230 0 l 1,0,-1
EndSplineSet
EndChar

StartChar: periodcentered
Encoding: 183 183 114
Width: 540
Flags: W
LayerCount: 2
Fore
SplineSet
220 260 m 1,0,-1
 220 360 l 1,1,-1
 320 360 l 1,2,-1
 320 260 l 1,3,-1
 220 260 l 1,0,-1
EndSplineSet
EndChar

StartChar: paragraph
Encoding: 182 182 115
Width: 540
Flags: W
LayerCount: 2
Fore
SplineSet
235 0 m 1,0,-1
 235 374 l 1,1,-1
 229 374 l 2,2,3
 143 374 143 374 102.5 407.5 c 128,-1,4
 62 441 62 441 62 527 c 2,5,-1
 62 540 l 2,6,7
 62 626 62 626 102 663 c 128,-1,8
 142 700 142 700 229 700 c 2,9,-1
 318 700 l 1,10,-1
 318 630 l 1,11,-1
 218 630 l 2,12,13
 180 630 180 630 161.5 610 c 128,-1,14
 143 590 143 590 143 560 c 2,15,-1
 143 507 l 2,16,17
 143 477 143 477 161.5 459.5 c 128,-1,18
 180 442 180 442 218 442 c 2,19,-1
 318 442 l 1,20,-1
 318 0 l 1,21,-1
 235 0 l 1,0,-1
373 0 m 1,22,-1
 373 700 l 1,23,-1
 453 700 l 1,24,-1
 453 0 l 1,25,-1
 373 0 l 1,22,-1
EndSplineSet
EndChar

StartChar: bullet
Encoding: 8226 8226 116
Width: 540
Flags: W
LayerCount: 2
Fore
SplineSet
195 235 m 1,0,-1
 195 390 l 1,1,-1
 345 390 l 1,2,-1
 345 235 l 1,3,-1
 195 235 l 1,0,-1
EndSplineSet
EndChar

StartChar: quotesinglbase
Encoding: 8218 8218 117
Width: 540
Flags: W
LayerCount: 2
Fore
SplineSet
277 -157 m 1,0,-1
 207 -157 l 1,1,-1
 237 0 l 1,2,-1
 237 90 l 1,3,-1
 332 90 l 1,4,-1
 332 0 l 1,5,-1
 277 -157 l 1,0,-1
EndSplineSet
EndChar

StartChar: quotedblbase
Encoding: 8222 8222 118
Width: 540
Flags: W
LayerCount: 2
Fore
SplineSet
355 -157 m 1,0,-1
 285 -157 l 1,1,-1
 315 0 l 1,2,-1
 315 90 l 1,3,-1
 410 90 l 1,4,-1
 410 0 l 1,5,-1
 355 -157 l 1,0,-1
200 -157 m 1,6,-1
 130 -157 l 1,7,-1
 160 0 l 1,8,-1
 160 90 l 1,9,-1
 255 90 l 1,10,-1
 255 0 l 1,11,-1
 200 -157 l 1,6,-1
EndSplineSet
EndChar

StartChar: quotedblright
Encoding: 8221 8221 119
Width: 540
Flags: W
LayerCount: 2
Fore
SplineSet
355 453 m 1,0,-1
 285 453 l 1,1,-1
 315 610 l 1,2,-1
 315 700 l 1,3,-1
 410 700 l 1,4,-1
 410 610 l 1,5,-1
 355 453 l 1,0,-1
200 453 m 1,6,-1
 130 453 l 1,7,-1
 160 610 l 1,8,-1
 160 700 l 1,9,-1
 255 700 l 1,10,-1
 255 610 l 1,11,-1
 200 453 l 1,6,-1
EndSplineSet
EndChar

StartChar: guillemotright
Encoding: 187 187 120
Width: 540
Flags: W
LayerCount: 2
Fore
SplineSet
272 92 m 1,0,-1
 335 299 l 1,1,-1
 272 506 l 1,2,-1
 338 506 l 1,3,-1
 427 299 l 1,4,-1
 338 92 l 1,5,-1
 272 92 l 1,0,-1
112 92 m 1,6,-1
 175 299 l 1,7,-1
 112 506 l 1,8,-1
 178 506 l 1,9,-1
 267 299 l 1,10,-1
 178 92 l 1,11,-1
 112 92 l 1,6,-1
EndSplineSet
EndChar

StartChar: ellipsis
Encoding: 8230 8230 121
Width: 540
Flags: W
LayerCount: 2
Fore
SplineSet
40 0 m 1,0,-1
 40 100 l 1,1,-1
 140 100 l 1,2,-1
 140 0 l 1,3,-1
 40 0 l 1,0,-1
220 0 m 1,4,-1
 220 100 l 1,5,-1
 320 100 l 1,6,-1
 320 0 l 1,7,-1
 220 0 l 1,4,-1
400 0 m 1,8,-1
 400 100 l 1,9,-1
 500 100 l 1,10,-1
 500 0 l 1,11,-1
 400 0 l 1,8,-1
EndSplineSet
EndChar

StartChar: perthousand
Encoding: 8240 8240 122
Width: 540
Flags: W
LayerCount: 2
Fore
SplineSet
14 301 m 1,0,-1
 14 363 l 1,1,-1
 529 436 l 1,2,-1
 529 374 l 1,3,-1
 14 301 l 1,0,-1
261 532 m 1,4,5
 261 467 261 467 228.5 435.5 c 128,-1,6
 196 404 196 404 139 404 c 2,7,-1
 131 404 l 2,8,9
 74 404 74 404 41.5 435.5 c 128,-1,10
 9 467 9 467 9 532 c 2,11,-1
 9 572 l 2,12,13
 9 637 9 637 41.5 668.5 c 128,-1,14
 74 700 74 700 131 700 c 2,15,-1
 139 700 l 2,16,17
 196 700 196 700 228.5 668.5 c 128,-1,18
 261 637 261 637 261 572 c 2,19,-1
 261 532 l 1,20,-1
 261 532 l 1,4,5
191 583 m 2,21,22
 191 606 191 606 179 623 c 128,-1,23
 167 640 167 640 139 640 c 2,24,-1
 131 640 l 2,25,26
 103 640 103 640 91 623 c 128,-1,27
 79 606 79 606 79 583 c 2,28,-1
 79 521 l 2,29,30
 79 498 79 498 91 481 c 128,-1,31
 103 464 103 464 131 464 c 2,32,-1
 139 464 l 2,33,34
 167 464 167 464 179 481 c 128,-1,35
 191 498 191 498 191 521 c 2,36,-1
 191 583 l 2,21,22
261 128 m 1,37,38
 261 63 261 63 228.5 31.5 c 128,-1,39
 196 0 196 0 139 0 c 2,40,-1
 131 0 l 2,41,42
 74 0 74 0 41.5 31.5 c 128,-1,43
 9 63 9 63 9 128 c 2,44,-1
 9 168 l 2,45,46
 9 233 9 233 41.5 264.5 c 128,-1,47
 74 296 74 296 131 296 c 2,48,-1
 139 296 l 2,49,50
 196 296 196 296 228.5 264.5 c 128,-1,51
 261 233 261 233 261 168 c 2,52,-1
 261 128 l 1,53,-1
 261 128 l 1,37,38
191 179 m 2,54,55
 191 202 191 202 179 219 c 128,-1,56
 167 236 167 236 139 236 c 2,57,-1
 131 236 l 2,58,59
 103 236 103 236 91 219 c 128,-1,60
 79 202 79 202 79 179 c 2,61,-1
 79 117 l 2,62,63
 79 94 79 94 91 77 c 128,-1,64
 103 60 103 60 131 60 c 2,65,-1
 139 60 l 2,66,67
 167 60 167 60 179 77 c 128,-1,68
 191 94 191 94 191 117 c 2,69,-1
 191 179 l 2,54,55
531 128 m 1,70,71
 531 63 531 63 498.5 31.5 c 128,-1,72
 466 0 466 0 409 0 c 2,73,-1
 401 0 l 2,74,75
 344 0 344 0 311.5 31.5 c 128,-1,76
 279 63 279 63 279 128 c 2,77,-1
 279 168 l 2,78,79
 279 233 279 233 311.5 264.5 c 128,-1,80
 344 296 344 296 401 296 c 2,81,-1
 409 296 l 2,82,83
 466 296 466 296 498.5 264.5 c 128,-1,84
 531 233 531 233 531 168 c 2,85,-1
 531 128 l 1,86,-1
 531 128 l 1,70,71
461 179 m 2,87,88
 461 202 461 202 449 219 c 128,-1,89
 437 236 437 236 409 236 c 2,90,-1
 401 236 l 2,91,92
 373 236 373 236 361 219 c 128,-1,93
 349 202 349 202 349 179 c 2,94,-1
 349 117 l 2,95,96
 349 94 349 94 361 77 c 128,-1,97
 373 60 373 60 401 60 c 2,98,-1
 409 60 l 2,99,100
 437 60 437 60 449 77 c 128,-1,101
 461 94 461 94 461 117 c 2,102,-1
 461 179 l 2,87,88
EndSplineSet
Ligature2: "'frac' Diagonal Fractions in Latin lookup 1 subtable" zero fraction zero zero
Ligature2: "'frac' Diagonal Fractions in Latin lookup 1 subtable" zero slash zero zero
EndChar

StartChar: questiondown
Encoding: 191 191 123
Width: 540
Flags: W
LayerCount: 2
Fore
SplineSet
347 500 m 1,0,-1
 347 400 l 1,1,-1
 247 400 l 1,2,-1
 247 500 l 1,3,-1
 347 500 l 1,0,-1
131 -18 m 1,4,5
 131 11 131 11 132.5 29.5 c 128,-1,6
 134 48 134 48 141 64.5 c 128,-1,7
 148 81 148 81 162.5 98.5 c 128,-1,8
 177 116 177 116 202 142 c 2,9,-1
 255 196 l 1,10,-1
 255 292 l 1,11,-1
 340 292 l 1,12,-1
 340 171 l 1,13,-1
 282 110 l 2,14,15
 259 86 259 86 246 70.5 c 128,-1,16
 233 55 233 55 226 43 c 128,-1,17
 219 31 219 31 217.5 19.5 c 128,-1,18
 216 8 216 8 216 -9 c 2,19,-1
 216 -59 l 2,20,21
 216 -89 216 -89 233.5 -106.5 c 128,-1,22
 251 -124 251 -124 289 -124 c 2,23,-1
 414 -124 l 1,24,-1
 414 -200 l 1,25,-1
 299 -200 l 2,26,27
 218 -200 218 -200 174.5 -164.5 c 128,-1,28
 131 -129 131 -129 131 -50 c 2,29,-1
 131 -18 l 1,30,-1
 131 -18 l 1,4,5
EndSplineSet
EndChar

StartChar: grave
Encoding: 96 96 124
Width: 540
Flags: W
LayerCount: 2
Fore
SplineSet
285 580 m 1,0,-1
 163 715 l 1,1,-1
 267 715 l 1,2,-1
 371 580 l 1,3,-1
 285 580 l 1,0,-1
EndSplineSet
EndChar

StartChar: acute
Encoding: 180 180 125
Width: 540
Flags: W
LayerCount: 2
Fore
SplineSet
168 580 m 1,0,-1
 272 715 l 1,1,-1
 376 715 l 1,2,-1
 254 580 l 1,3,-1
 168 580 l 1,0,-1
EndSplineSet
EndChar

StartChar: circumflex
Encoding: 710 710 126
Width: 540
Flags: W
LayerCount: 2
Fore
SplineSet
329 580 m 1,0,-1
 269 655 l 1,1,-1
 209 580 l 1,2,-1
 113 580 l 1,3,-1
 225 715 l 1,4,-1
 313 715 l 1,5,-1
 426 580 l 1,6,-1
 329 580 l 1,0,-1
EndSplineSet
EndChar

StartChar: tilde
Encoding: 732 732 127
Width: 540
Flags: W
LayerCount: 2
Fore
SplineSet
130 667 m 1,0,1
 146 677 146 677 161 684 c 0,2,3
 174 690 174 690 187 695 c 128,-1,4
 200 700 200 700 207 700 c 2,5,-1
 222 700 l 2,6,7
 231 700 231 700 246 694 c 128,-1,8
 261 688 261 688 277.5 680.5 c 128,-1,9
 294 673 294 673 309 666.5 c 128,-1,10
 324 660 324 660 333 660 c 2,11,-1
 343 660 l 2,12,13
 348 660 348 660 359 665.5 c 128,-1,14
 370 671 370 671 381 678 c 0,15,16
 394 686 394 686 410 696 c 1,17,-1
 410 624 l 1,18,19
 395 615 395 615 382 608 c 0,20,21
 371 602 371 602 360 596.5 c 128,-1,22
 349 591 349 591 342 591 c 2,23,-1
 327 591 l 2,24,25
 322 591 322 591 307 597.5 c 128,-1,26
 292 604 292 604 274.5 611.5 c 128,-1,27
 257 619 257 619 241 625 c 128,-1,28
 225 631 225 631 217 631 c 2,29,-1
 207 631 l 2,30,31
 202 631 202 631 189.5 625.5 c 128,-1,32
 177 620 177 620 163 613 c 0,33,34
 147 605 147 605 130 595 c 1,35,-1
 130 667 l 1,0,1
EndSplineSet
EndChar

StartChar: macron
Encoding: 175 175 128
Width: 540
Flags: W
LayerCount: 2
Fore
SplineSet
142 605 m 1,0,-1
 142 675 l 1,1,-1
 397 675 l 1,2,-1
 397 605 l 1,3,-1
 142 605 l 1,0,-1
EndSplineSet
EndChar

StartChar: breve
Encoding: 728 728 129
Width: 540
Flags: W
LayerCount: 2
Fore
SplineSet
280 649 m 1,0,1
 313 649 313 649 321.5 668.5 c 128,-1,2
 330 688 330 688 330 715 c 1,3,-1
 412 715 l 1,4,5
 412 694 412 694 406 671.5 c 128,-1,6
 400 649 400 649 385 629.5 c 128,-1,7
 370 610 370 610 344.5 597.5 c 128,-1,8
 319 585 319 585 280 585 c 2,9,-1
 260 585 l 2,10,11
 221 585 221 585 195.5 597.5 c 128,-1,12
 170 610 170 610 155 629.5 c 128,-1,13
 140 649 140 649 134 671.5 c 128,-1,14
 128 694 128 694 128 715 c 1,15,-1
 210 715 l 1,16,17
 210 688 210 688 218.5 668.5 c 128,-1,18
 227 649 227 649 260 649 c 2,19,-1
 280 649 l 1,20,-1
 280 649 l 1,0,1
EndSplineSet
EndChar

StartChar: dotaccent
Encoding: 729 729 130
Width: 540
Flags: W
LayerCount: 2
Fore
SplineSet
227 615 m 1,0,-1
 227 700 l 1,1,-1
 312 700 l 1,2,-1
 312 615 l 1,3,-1
 227 615 l 1,0,-1
EndSplineSet
EndChar

StartChar: dieresis
Encoding: 168 168 131
Width: 540
Flags: W
LayerCount: 2
Fore
SplineSet
327 595 m 1,0,-1
 327 675 l 1,1,-1
 412 675 l 1,2,-1
 412 595 l 1,3,-1
 327 595 l 1,0,-1
127 595 m 1,4,-1
 127 675 l 1,5,-1
 212 675 l 1,6,-1
 212 595 l 1,7,-1
 127 595 l 1,4,-1
EndSplineSet
EndChar

StartChar: ring
Encoding: 730 730 132
Width: 540
Flags: W
LayerCount: 2
Fore
SplineSet
362 633 m 1,0,1
 362 590 362 590 336.5 569 c 128,-1,2
 311 548 311 548 273 548 c 2,3,-1
 267 548 l 2,4,5
 229 548 229 548 203.5 569 c 128,-1,6
 178 590 178 590 178 633 c 2,7,-1
 178 662 l 2,8,9
 178 706 178 706 203.5 726.5 c 128,-1,10
 229 747 229 747 267 747 c 2,11,-1
 273 747 l 2,12,13
 311 747 311 747 336.5 726.5 c 128,-1,14
 362 706 362 706 362 662 c 2,15,-1
 362 633 l 1,16,-1
 362 633 l 1,0,1
305 663 m 2,17,18
 305 678 305 678 298.5 689.5 c 128,-1,19
 292 701 292 701 273 701 c 2,20,-1
 267 701 l 2,21,22
 248 701 248 701 240.5 689.5 c 128,-1,23
 233 678 233 678 233 663 c 2,24,-1
 233 632 l 2,25,26
 233 617 233 617 240.5 605.5 c 128,-1,27
 248 594 248 594 267 594 c 2,28,-1
 273 594 l 2,29,30
 292 594 292 594 298.5 605.5 c 128,-1,31
 305 617 305 617 305 632 c 2,32,-1
 305 663 l 2,17,18
EndSplineSet
EndChar

StartChar: cedilla
Encoding: 184 184 133
Width: 540
Flags: W
LayerCount: 2
Fore
SplineSet
183 -200 m 1,0,-1
 183 -136 l 1,1,-1
 250 -136 l 2,2,3
 283 -136 283 -136 283 -105 c 0,4,5
 283 -88 283 -88 274 -82 c 128,-1,6
 265 -76 265 -76 248 -76 c 2,7,-1
 199 -76 l 1,8,-1
 199 50 l 1,9,-1
 269 50 l 1,10,-1
 269 -21 l 1,11,12
 313 -21 313 -21 334.5 -37 c 128,-1,13
 356 -53 356 -53 356 -105 c 0,14,15
 356 -138 356 -138 347 -157 c 128,-1,16
 338 -176 338 -176 325 -185.5 c 128,-1,17
 312 -195 312 -195 296.5 -197.5 c 128,-1,18
 281 -200 281 -200 268 -200 c 2,19,-1
 183 -200 l 1,0,-1
EndSplineSet
EndChar

StartChar: hungarumlaut
Encoding: 733 733 134
Width: 540
Flags: W
LayerCount: 2
Fore
SplineSet
168 598 m 1,0,-1
 77 598 l 1,1,-1
 180 745 l 1,2,-1
 295 745 l 1,3,-1
 168 598 l 1,0,-1
338 598 m 1,4,-1
 247 598 l 1,5,-1
 350 745 l 1,6,-1
 465 745 l 1,7,-1
 338 598 l 1,4,-1
EndSplineSet
EndChar

StartChar: ogonek
Encoding: 731 731 135
Width: 540
Flags: W
LayerCount: 2
Fore
SplineSet
269 -180 m 2,0,1
 256 -180 256 -180 240.5 -177.5 c 128,-1,2
 225 -175 225 -175 212 -165.5 c 128,-1,3
 199 -156 199 -156 190 -137 c 128,-1,4
 181 -118 181 -118 181 -85 c 2,5,-1
 181 60 l 1,6,-1
 255 60 l 1,7,-1
 255 -85 l 2,8,9
 255 -102 255 -102 263 -107.5 c 128,-1,10
 271 -113 271 -113 287 -113 c 2,11,-1
 358 -113 l 1,12,-1
 358 -180 l 1,13,-1
 269 -180 l 2,0,1
EndSplineSet
EndChar

StartChar: caron
Encoding: 711 711 136
Width: 540
Flags: W
LayerCount: 2
Fore
SplineSet
210 714 m 1,0,-1
 270 639 l 1,1,-1
 330 714 l 1,2,-1
 426 714 l 1,3,-1
 314 579 l 1,4,-1
 226 579 l 1,5,-1
 113 714 l 1,6,-1
 210 714 l 1,0,-1
EndSplineSet
EndChar

StartChar: emdash
Encoding: 8212 8212 137
Width: 540
Flags: W
LayerCount: 2
Fore
SplineSet
32 275 m 1,0,-1
 32 350 l 1,1,-1
 507 350 l 1,2,-1
 507 275 l 1,3,-1
 32 275 l 1,0,-1
EndSplineSet
EndChar

StartChar: AE
Encoding: 198 198 138
Width: 540
Flags: W
LayerCount: 2
Fore
SplineSet
307 0 m 1,0,-1
 292 177 l 1,1,-1
 141 177 l 1,2,-1
 99 0 l 1,3,-1
 15 0 l 1,4,-1
 191 700 l 1,5,-1
 498 700 l 1,6,-1
 498 627 l 1,7,-1
 325 627 l 1,8,-1
 348 398 l 1,9,-1
 493 398 l 1,10,-1
 493 325 l 1,11,-1
 356 325 l 1,12,-1
 381 73 l 1,13,-1
 518 73 l 1,14,-1
 518 0 l 1,15,-1
 307 0 l 1,0,-1
159 252 m 1,16,-1
 283 252 l 1,17,-1
 247 627 l 1,18,-1
 159 252 l 1,16,-1
EndSplineSet
Position2: "'cpsp' Capital Spacing in Latin lookup 0 subtable" dx=5 dy=0 dh=10 dv=0
EndChar

StartChar: ordfeminine
Encoding: 170 170 139
Width: 540
Flags: W
LayerCount: 2
Fore
SplineSet
369 324 m 2,0,1
 360 324 360 324 348.5 329 c 128,-1,2
 337 334 337 334 329 344 c 1,3,4
 321 335 321 335 310.5 329.5 c 128,-1,5
 300 324 300 324 286 324 c 2,6,-1
 234 324 l 2,7,8
 177 324 177 324 151 346.5 c 128,-1,9
 125 369 125 369 125 426 c 2,10,-1
 125 441 l 2,11,12
 125 498 125 498 151.5 527.5 c 128,-1,13
 178 557 178 557 235 557 c 2,14,-1
 309 557 l 1,15,-1
 309 595 l 2,16,17
 309 618 309 618 297 628.5 c 128,-1,18
 285 639 285 639 256 639 c 2,19,-1
 155 639 l 1,20,-1
 155 700 l 1,21,-1
 249 700 l 2,22,23
 314 700 314 700 345.5 672 c 128,-1,24
 377 644 377 644 377 580 c 2,25,-1
 377 399 l 2,26,27
 377 388 377 388 385 382.5 c 128,-1,28
 393 377 393 377 414 377 c 1,29,-1
 414 324 l 1,30,-1
 369 324 l 2,0,1
147 0 m 1,31,-1
 147 75 l 1,32,-1
 398 75 l 1,33,-1
 398 0 l 1,34,-1
 147 0 l 1,31,-1
274 383 m 1,35,36
 287 383 287 383 294 386.5 c 128,-1,37
 301 390 301 390 304.5 395.5 c 128,-1,38
 308 401 308 401 308.5 407.5 c 128,-1,39
 309 414 309 414 309 420 c 2,40,-1
 309 499 l 1,41,-1
 238 499 l 2,42,43
 218 499 218 499 205.5 486.5 c 128,-1,44
 193 474 193 474 193 454 c 2,45,-1
 193 422 l 2,46,47
 193 383 193 383 230 383 c 2,48,-1
 274 383 l 1,49,-1
 274 383 l 1,35,36
EndSplineSet
EndChar

StartChar: Lslash
Encoding: 321 321 140
Width: 540
Flags: W
LayerCount: 2
Fore
SplineSet
165 0 m 1,0,-1
 165 343 l 1,1,-1
 75 300 l 1,2,-1
 75 380 l 1,3,-1
 165 423 l 1,4,-1
 165 700 l 1,5,-1
 252 700 l 1,6,-1
 252 465 l 1,7,-1
 365 520 l 1,8,-1
 365 440 l 1,9,-1
 252 385 l 1,10,-1
 252 76 l 1,11,-1
 475 76 l 1,12,-1
 475 0 l 1,13,-1
 165 0 l 1,0,-1
EndSplineSet
Position2: "'cpsp' Capital Spacing in Latin lookup 0 subtable" dx=5 dy=0 dh=10 dv=0
EndChar

StartChar: Oslash
Encoding: 216 216 141
Width: 540
Flags: W
LayerCount: 2
Fore
SplineSet
470 170 m 1,0,1
 470 84 470 84 423.5 42 c 128,-1,2
 377 0 377 0 290 0 c 2,3,-1
 250 0 l 2,4,5
 239 0 239 0 229.5 0 c 128,-1,6
 220 0 220 0 211 2 c 1,7,-1
 185 -91 l 1,8,-1
 109 -91 l 1,9,-1
 141 24 l 1,10,11
 70 66 70 66 70 170 c 2,12,-1
 70 530 l 2,13,14
 70 616 70 616 116.5 658 c 128,-1,15
 163 700 163 700 250 700 c 2,16,-1
 290 700 l 2,17,18
 300 700 300 700 309 699.5 c 128,-1,19
 318 699 318 699 327 698 c 1,20,-1
 353 791 l 1,21,-1
 429 791 l 1,22,-1
 397 676 l 1,23,24
 470 636 470 636 470 530 c 2,25,-1
 470 170 l 1,26,-1
 470 170 l 1,0,1
383 549 m 2,27,28
 383 569 383 569 372 586 c 1,29,-1
 231 76 l 1,30,-1
 300 76 l 2,31,32
 338 76 338 76 360.5 98.5 c 128,-1,33
 383 121 383 121 383 151 c 2,34,-1
 383 549 l 2,27,28
157 151 m 1,35,36
 157 131 157 131 166 116 c 1,37,-1
 306 624 l 1,38,-1
 240 624 l 2,39,40
 202 624 202 624 179.5 601.5 c 128,-1,41
 157 579 157 579 157 549 c 2,42,-1
 157 151 l 1,43,-1
 157 151 l 1,35,36
EndSplineSet
Position2: "'cpsp' Capital Spacing in Latin lookup 0 subtable" dx=5 dy=0 dh=10 dv=0
EndChar

StartChar: OE
Encoding: 338 338 142
Width: 540
Flags: W
LayerCount: 2
Fore
SplineSet
206 0 m 2,0,1
 119 0 119 0 72.5 42 c 128,-1,2
 26 84 26 84 26 170 c 2,3,-1
 26 530 l 2,4,5
 26 616 26 616 72.5 658 c 128,-1,6
 119 700 119 700 206 700 c 2,7,-1
 523 700 l 1,8,-1
 523 627 l 1,9,-1
 347 627 l 1,10,11
 358 607 358 607 364.5 583 c 128,-1,12
 371 559 371 559 371 530 c 2,13,-1
 371 398 l 1,14,-1
 508 398 l 1,15,-1
 508 325 l 1,16,-1
 371 325 l 1,17,-1
 371 170 l 2,18,19
 371 141 371 141 364.5 116.5 c 128,-1,20
 358 92 358 92 347 73 c 1,21,-1
 523 73 l 1,22,-1
 523 0 l 1,23,-1
 206 0 l 2,0,1
284 549 m 2,24,25
 284 579 284 579 261.5 601.5 c 128,-1,26
 239 624 239 624 201 624 c 2,27,-1
 196 624 l 2,28,29
 158 624 158 624 135.5 601.5 c 128,-1,30
 113 579 113 579 113 549 c 2,31,-1
 113 151 l 2,32,33
 113 121 113 121 135.5 98.5 c 128,-1,34
 158 76 158 76 196 76 c 2,35,-1
 201 76 l 2,36,37
 239 76 239 76 261.5 98.5 c 128,-1,38
 284 121 284 121 284 151 c 2,39,-1
 284 549 l 2,24,25
EndSplineSet
Position2: "'cpsp' Capital Spacing in Latin lookup 0 subtable" dx=5 dy=0 dh=10 dv=0
EndChar

StartChar: ordmasculine
Encoding: 186 186 143
Width: 540
Flags: W
LayerCount: 2
Fore
SplineSet
132 0 m 1,0,-1
 132 75 l 1,1,-1
 408 75 l 1,2,-1
 408 0 l 1,3,-1
 132 0 l 1,0,-1
400 446 m 1,4,5
 400 382 400 382 369 354 c 128,-1,6
 338 326 338 326 273 326 c 2,7,-1
 263 326 l 2,8,9
 197 326 197 326 166 354 c 128,-1,10
 135 382 135 382 135 446 c 2,11,-1
 135 582 l 2,12,13
 135 646 135 646 166 674 c 128,-1,14
 197 702 197 702 263 702 c 2,15,-1
 273 702 l 2,16,17
 338 702 338 702 369 674 c 128,-1,18
 400 646 400 646 400 582 c 2,19,-1
 400 446 l 1,20,-1
 400 446 l 1,4,5
332 593 m 2,21,22
 332 616 332 616 318.5 628.5 c 128,-1,23
 305 641 305 641 276 641 c 2,24,-1
 259 641 l 2,25,26
 231 641 231 641 217 628.5 c 128,-1,27
 203 616 203 616 203 593 c 2,28,-1
 203 435 l 2,29,30
 203 412 203 412 217 399.5 c 128,-1,31
 231 387 231 387 259 387 c 2,32,-1
 276 387 l 2,33,34
 305 387 305 387 318.5 399.5 c 128,-1,35
 332 412 332 412 332 435 c 2,36,-1
 332 593 l 2,21,22
EndSplineSet
EndChar

StartChar: ae
Encoding: 230 230 144
Width: 540
Flags: W
LayerCount: 2
Fore
SplineSet
395 0 m 2,0,1
 347 0 347 0 317 10.5 c 128,-1,2
 287 21 287 21 273 47 c 1,3,4
 263 29 263 29 239 14.5 c 128,-1,5
 215 0 215 0 174 0 c 2,6,-1
 160 0 l 2,7,8
 96 0 96 0 60.5 30 c 128,-1,9
 25 60 25 60 25 135 c 2,10,-1
 25 147 l 2,11,12
 25 222 25 222 58 262 c 128,-1,13
 91 302 91 302 166 302 c 2,14,-1
 232 302 l 1,15,-1
 232 360 l 2,16,17
 232 390 232 390 217.5 407.5 c 128,-1,18
 203 425 203 425 165 425 c 2,19,-1
 60 425 l 1,20,-1
 60 500 l 1,21,-1
 155 500 l 2,22,23
 202 500 202 500 228 490.5 c 128,-1,24
 254 481 254 481 275 463 c 1,25,26
 284 472 284 472 293.5 479 c 128,-1,27
 303 486 303 486 314 490.5 c 128,-1,28
 325 495 325 495 339.5 497.5 c 128,-1,29
 354 500 354 500 375 500 c 2,30,-1
 382 500 l 2,31,32
 454 500 454 500 485 460 c 128,-1,33
 516 420 516 420 516 345 c 2,34,-1
 516 229 l 1,35,-1
 315 229 l 1,36,-1
 315 132 l 1,37,38
 317 104 317 104 333 88.5 c 128,-1,39
 349 73 349 73 385 73 c 2,40,-1
 484 73 l 1,41,-1
 484 0 l 1,42,-1
 395 0 l 2,0,1
232 229 m 1,43,-1
 163 229 l 2,44,45
 137 229 137 229 122.5 211 c 128,-1,46
 108 193 108 193 108 167 c 2,47,-1
 108 123 l 2,48,49
 108 73 108 73 158 73 c 2,50,-1
 184 73 l 2,51,52
 201 73 201 73 211 78 c 128,-1,53
 221 83 221 83 225.5 90.5 c 128,-1,54
 230 98 230 98 231 107 c 128,-1,55
 232 116 232 116 232 123 c 2,56,-1
 232 229 l 1,43,-1
315 302 m 1,57,-1
 435 302 l 1,58,-1
 435 367 l 2,59,60
 435 393 435 393 422 410 c 128,-1,61
 409 427 409 427 383 427 c 2,62,-1
 375 427 l 2,63,64
 337 427 337 427 326 409.5 c 128,-1,65
 315 392 315 392 315 362 c 2,66,-1
 315 302 l 1,57,-1
EndSplineSet
EndChar

StartChar: dotlessi
Encoding: 305 305 145
Width: 540
Flags: W
LayerCount: 2
Fore
SplineSet
227 0 m 1,0,-1
 227 425 l 1,1,-1
 80 425 l 1,2,-1
 80 500 l 1,3,-1
 312 500 l 1,4,-1
 312 75 l 1,5,-1
 460 75 l 1,6,-1
 460 0 l 1,7,-1
 227 0 l 1,0,-1
EndSplineSet
EndChar

StartChar: lslash
Encoding: 322 322 146
Width: 540
Flags: W
LayerCount: 2
Fore
SplineSet
302 0 m 2,0,1
 287 0 287 0 272 5 c 128,-1,2
 257 10 257 10 245 21.5 c 128,-1,3
 233 33 233 33 225 52.5 c 128,-1,4
 217 72 217 72 217 100 c 2,5,-1
 217 323 l 1,6,-1
 135 300 l 1,7,-1
 135 378 l 1,8,-1
 217 402 l 1,9,-1
 217 625 l 1,10,-1
 70 625 l 1,11,-1
 70 700 l 1,12,-1
 302 700 l 1,13,-1
 302 426 l 1,14,-1
 406 457 l 1,15,-1
 406 378 l 1,16,-1
 302 348 l 1,17,-1
 302 105 l 2,18,19
 302 89 302 89 309.5 82 c 128,-1,20
 317 75 317 75 337 75 c 2,21,-1
 470 75 l 1,22,-1
 470 0 l 1,23,-1
 302 0 l 2,0,1
EndSplineSet
EndChar

StartChar: oslash
Encoding: 248 248 147
Width: 540
Flags: W
LayerCount: 2
Fore
SplineSet
456 160 m 1,0,1
 456 74 456 74 414.5 37 c 128,-1,2
 373 0 373 0 286 0 c 2,3,-1
 233 0 l 1,4,-1
 206 -89 l 1,5,-1
 128 -89 l 1,6,-1
 159 15 l 1,7,8
 121 32 121 32 102 67 c 128,-1,9
 83 102 83 102 83 160 c 2,10,-1
 83 340 l 2,11,12
 83 426 83 426 124.5 463 c 128,-1,13
 166 500 166 500 253 500 c 2,14,-1
 286 500 l 2,15,16
 291 500 291 500 296 500 c 128,-1,17
 301 500 301 500 306 499 c 1,18,-1
 334 589 l 1,19,-1
 411 589 l 1,20,-1
 379 484 l 1,21,22
 418 467 418 467 437 432.5 c 128,-1,23
 456 398 456 398 456 340 c 2,24,-1
 456 160 l 1,25,-1
 456 160 l 1,0,1
168 140 m 1,26,27
 168 112 168 112 183 95 c 1,28,-1
 284 425 l 1,29,-1
 243 425 l 2,30,31
 205 425 205 425 186.5 407.5 c 128,-1,32
 168 390 168 390 168 360 c 2,33,-1
 168 140 l 1,34,-1
 168 140 l 1,26,27
371 360 m 2,35,36
 371 388 371 388 355 404 c 1,37,-1
 255 75 l 1,38,-1
 296 75 l 2,39,40
 334 75 334 75 352.5 92.5 c 128,-1,41
 371 110 371 110 371 140 c 2,42,-1
 371 360 l 2,35,36
EndSplineSet
EndChar

StartChar: oe
Encoding: 339 339 148
Width: 540
Flags: W
LayerCount: 2
Fore
SplineSet
397 0 m 2,0,1
 347 0 347 0 321 9.5 c 128,-1,2
 295 19 295 19 280 39 c 1,3,4
 264 22 264 22 242.5 11 c 128,-1,5
 221 0 221 0 176 0 c 2,6,-1
 173 0 l 2,7,8
 95 0 95 0 60.5 37 c 128,-1,9
 26 74 26 74 26 155 c 2,10,-1
 26 345 l 2,11,12
 26 431 26 431 60.5 465.5 c 128,-1,13
 95 500 95 500 173 500 c 2,14,-1
 176 500 l 2,15,16
 219 500 219 500 240 488.5 c 128,-1,17
 261 477 261 477 278 461 c 1,18,19
 292 478 292 478 316 489 c 128,-1,20
 340 500 340 500 383 500 c 2,21,-1
 384 500 l 2,22,23
 452 500 452 500 484 465 c 128,-1,24
 516 430 516 430 516 355 c 2,25,-1
 516 215 l 1,26,-1
 323 215 l 1,27,-1
 323 138 l 2,28,29
 323 108 323 108 340 90.5 c 128,-1,30
 357 73 357 73 395 73 c 2,31,-1
 489 73 l 1,32,-1
 489 0 l 1,33,-1
 397 0 l 2,0,1
240 362 m 2,34,35
 240 392 240 392 227.5 409.5 c 128,-1,36
 215 427 215 427 186 427 c 2,37,-1
 163 427 l 2,38,39
 134 427 134 427 121.5 409.5 c 128,-1,40
 109 392 109 392 109 362 c 2,41,-1
 109 138 l 2,42,43
 109 108 109 108 121 90.5 c 128,-1,44
 133 73 133 73 163 73 c 2,45,-1
 186 73 l 2,46,47
 216 73 216 73 228 90.5 c 128,-1,48
 240 108 240 108 240 138 c 2,49,-1
 240 362 l 2,34,35
323 288 m 1,50,-1
 435 288 l 1,51,-1
 435 367 l 2,52,53
 435 393 435 393 424.5 410 c 128,-1,54
 414 427 414 427 383 427 c 2,55,-1
 380 427 l 2,56,57
 344 427 344 427 333.5 409.5 c 128,-1,58
 323 392 323 392 323 362 c 2,59,-1
 323 288 l 1,50,-1
EndSplineSet
EndChar

StartChar: germandbls
Encoding: 223 223 149
Width: 540
Flags: W
LayerCount: 2
Fore
SplineSet
78 0 m 1,0,-1
 78 560 l 2,1,2
 78 598 78 598 90.5 624.5 c 128,-1,3
 103 651 103 651 124 667.5 c 128,-1,4
 145 684 145 684 172 692 c 128,-1,5
 199 700 199 700 228 700 c 2,6,-1
 267 700 l 2,7,8
 354 700 354 700 395.5 663.5 c 128,-1,9
 437 627 437 627 437 540 c 2,10,-1
 437 415 l 1,11,-1
 359 415 l 2,12,13
 328 415 328 415 316 404 c 128,-1,14
 304 393 304 393 304 370 c 2,15,-1
 304 355 l 2,16,17
 304 331 304 331 316 320.5 c 128,-1,18
 328 310 328 310 347 310 c 0,19,20
 403 310 403 310 434.5 278 c 128,-1,21
 466 246 466 246 466 190 c 2,22,-1
 466 125 l 2,23,24
 466 99 466 99 458 76 c 128,-1,25
 450 53 450 53 433 36 c 128,-1,26
 416 19 416 19 390 9.5 c 128,-1,27
 364 0 364 0 328 0 c 2,28,-1
 216 0 l 1,29,-1
 216 75 l 1,30,-1
 334 75 l 2,31,32
 381 75 381 75 381 120 c 2,33,-1
 381 190 l 2,34,35
 381 210 381 210 371 222.5 c 128,-1,36
 361 235 361 235 335 235 c 0,37,38
 284 235 284 235 251.5 267.5 c 128,-1,39
 219 300 219 300 219 356 c 2,40,-1
 219 366 l 2,41,42
 219 400 219 400 228.5 422.5 c 128,-1,43
 238 445 238 445 255.5 458.5 c 128,-1,44
 273 472 273 472 297.5 478.5 c 128,-1,45
 322 485 322 485 352 486 c 1,46,-1
 352 560 l 2,47,48
 352 590 352 590 333.5 607.5 c 128,-1,49
 315 625 315 625 277 625 c 2,50,-1
 223 625 l 2,51,52
 204 625 204 625 192.5 619 c 128,-1,53
 181 613 181 613 174.5 605 c 128,-1,54
 168 597 168 597 165.5 587.5 c 128,-1,55
 163 578 163 578 163 570 c 2,56,-1
 163 0 l 1,57,-1
 78 0 l 1,0,-1
EndSplineSet
EndChar

StartChar: onesuperior
Encoding: 185 185 150
Width: 540
Flags: W
LayerCount: 2
Fore
SplineSet
154 205 m 1,0,-1
 154 269 l 1,1,-1
 245 269 l 1,2,-1
 245 633 l 1,3,-1
 146 594 l 1,4,-1
 146 662 l 1,5,-1
 237 700 l 1,6,-1
 319 700 l 1,7,-1
 319 269 l 1,8,-1
 393 269 l 1,9,-1
 393 205 l 1,10,-1
 154 205 l 1,0,-1
EndSplineSet
EndChar

StartChar: logicalnot
Encoding: 172 172 151
Width: 540
Flags: W
LayerCount: 2
Fore
SplineSet
392 106 m 1,0,-1
 392 275 l 1,1,-1
 62 275 l 1,2,-1
 62 350 l 1,3,-1
 477 350 l 1,4,-1
 477 106 l 1,5,-1
 392 106 l 1,0,-1
EndSplineSet
EndChar

StartChar: mu
Encoding: 181 181 152
Width: 540
Flags: W
LayerCount: 2
Fore
SplineSet
103 -170 m 1,0,-1
 103 500 l 1,1,-1
 188 500 l 1,2,-1
 188 140 l 2,3,4
 188 110 188 110 205.5 92.5 c 128,-1,5
 223 75 223 75 253 75 c 2,6,-1
 287 75 l 2,7,8
 306 75 306 75 318.5 81 c 128,-1,9
 331 87 331 87 338.5 95 c 128,-1,10
 346 103 346 103 349 113 c 128,-1,11
 352 123 352 123 352 130 c 2,12,-1
 352 500 l 1,13,-1
 437 500 l 1,14,-1
 437 0 l 1,15,-1
 357 0 l 1,16,-1
 357 23 l 1,17,18
 324 0 324 0 277 0 c 2,19,-1
 263 0 l 2,20,21
 218 0 218 0 188 10 c 1,22,-1
 188 -170 l 1,23,-1
 103 -170 l 1,0,-1
EndSplineSet
EndChar

StartChar: trademark
Encoding: 8482 8482 153
Width: 540
Flags: W
LayerCount: 2
Fore
SplineSet
458 194 m 1,0,-1
 458 614 l 1,1,-1
 405 361 l 1,2,-1
 352 361 l 1,3,-1
 298 614 l 1,4,-1
 298 194 l 1,5,-1
 233 194 l 1,6,-1
 233 641 l 1,7,-1
 168 641 l 1,8,-1
 168 194 l 1,9,-1
 100 194 l 1,10,-1
 100 641 l 1,11,-1
 14 641 l 1,12,-1
 14 700 l 1,13,-1
 339 700 l 1,14,-1
 381 493 l 1,15,-1
 421 700 l 1,16,-1
 524 700 l 1,17,-1
 524 194 l 1,18,-1
 458 194 l 1,0,-1
EndSplineSet
EndChar

StartChar: Eth
Encoding: 208 208 154
Width: 540
Flags: W
LayerCount: 2
Fore
SplineSet
467 158 m 1,0,1
 467 72 467 72 427 36 c 128,-1,2
 387 0 387 0 297 0 c 2,3,-1
 91 0 l 1,4,-1
 91 325 l 1,5,-1
 34 325 l 1,6,-1
 34 400 l 1,7,-1
 91 400 l 1,8,-1
 91 700 l 1,9,-1
 285 700 l 2,10,11
 371 700 371 700 419 665 c 128,-1,12
 467 630 467 630 467 544 c 2,13,-1
 467 158 l 1,14,-1
 467 158 l 1,0,1
380 553 m 2,15,16
 380 586 380 586 359.5 605.5 c 128,-1,17
 339 625 339 625 307 625 c 2,18,-1
 178 625 l 1,19,-1
 178 400 l 1,20,-1
 294 400 l 1,21,-1
 294 325 l 1,22,-1
 178 325 l 1,23,-1
 178 75 l 1,24,-1
 306 75 l 2,25,26
 344 75 344 75 362 92.5 c 128,-1,27
 380 110 380 110 380 148 c 2,28,-1
 380 553 l 2,15,16
EndSplineSet
Position2: "'cpsp' Capital Spacing in Latin lookup 0 subtable" dx=5 dy=0 dh=10 dv=0
EndChar

StartChar: onehalf
Encoding: 189 189 155
Width: 540
Flags: W
LayerCount: 2
Fore
SplineSet
29 205 m 1,0,-1
 29 269 l 1,1,-1
 77 269 l 1,2,-1
 77 630 l 1,3,-1
 11 591 l 1,4,-1
 11 662 l 1,5,-1
 79 700 l 1,6,-1
 151 700 l 1,7,-1
 151 269 l 1,8,-1
 185 269 l 1,9,-1
 185 205 l 1,10,-1
 29 205 l 1,0,-1
365 0 m 1,11,-1
 365 73 l 1,12,-1
 443 246 l 2,13,14
 448 257 448 257 450.5 265.5 c 128,-1,15
 453 274 453 274 454.5 285 c 128,-1,16
 456 296 456 296 456.5 310.5 c 128,-1,17
 457 325 457 325 457 346 c 2,18,-1
 457 392 l 2,19,20
 457 409 457 409 448 420 c 128,-1,21
 439 431 439 431 416 431 c 2,22,-1
 380 431 l 1,23,-1
 380 495 l 1,24,-1
 409 495 l 2,25,26
 446 495 446 495 469.5 489 c 128,-1,27
 493 483 493 483 506.5 470 c 128,-1,28
 520 457 520 457 525 436.5 c 128,-1,29
 530 416 530 416 530 386 c 2,30,-1
 530 353 l 2,31,32
 530 320 530 320 529.5 298.5 c 128,-1,33
 529 277 529 277 527 262.5 c 128,-1,34
 525 248 525 248 521.5 237.5 c 128,-1,35
 518 227 518 227 512 216 c 2,36,-1
 441 64 l 1,37,-1
 535 64 l 1,38,-1
 535 0 l 1,39,-1
 365 0 l 1,11,-1
197 -110 m 1,40,-1
 123 -110 l 1,41,-1
 365 810 l 1,42,-1
 453 810 l 1,43,-1
 197 -110 l 1,40,-1
EndSplineSet
Ligature2: "'frac' Diagonal Fractions in Latin lookup 1 subtable" onesuperior fraction twosuperior
Ligature2: "'frac' Diagonal Fractions in Latin lookup 1 subtable" onesuperior fraction two
Ligature2: "'frac' Diagonal Fractions in Latin lookup 1 subtable" onesuperior slash twosuperior
Ligature2: "'frac' Diagonal Fractions in Latin lookup 1 subtable" onesuperior slash two
Ligature2: "'frac' Diagonal Fractions in Latin lookup 1 subtable" one fraction twosuperior
Ligature2: "'frac' Diagonal Fractions in Latin lookup 1 subtable" one fraction two
Ligature2: "'frac' Diagonal Fractions in Latin lookup 1 subtable" one slash twosuperior
Ligature2: "'frac' Diagonal Fractions in Latin lookup 1 subtable" one slash two
EndChar

StartChar: plusminus
Encoding: 177 177 156
Width: 540
Flags: W
LayerCount: 2
Fore
SplineSet
310 275 m 1,0,-1
 310 143 l 1,1,-1
 230 143 l 1,2,-1
 230 275 l 1,3,-1
 80 275 l 1,4,-1
 80 350 l 1,5,-1
 230 350 l 1,6,-1
 230 508 l 1,7,-1
 310 508 l 1,8,-1
 310 350 l 1,9,-1
 460 350 l 1,10,-1
 460 275 l 1,11,-1
 310 275 l 1,0,-1
80 0 m 1,12,-1
 80 75 l 1,13,-1
 460 75 l 1,14,-1
 460 0 l 1,15,-1
 80 0 l 1,12,-1
EndSplineSet
EndChar

StartChar: Thorn
Encoding: 222 222 157
Width: 540
Flags: W
LayerCount: 2
Fore
SplineSet
455 300 m 1,0,1
 455 217 455 217 411.5 179.5 c 128,-1,2
 368 142 368 142 285 142 c 2,3,-1
 181 142 l 1,4,-1
 181 0 l 1,5,-1
 94 0 l 1,6,-1
 94 700 l 1,7,-1
 181 700 l 1,8,-1
 181 570 l 1,9,-1
 283 570 l 2,10,11
 366 570 366 570 410.5 533.5 c 128,-1,12
 455 497 455 497 455 414 c 2,13,-1
 455 300 l 1,14,-1
 455 300 l 1,0,1
368 423 m 2,15,16
 368 461 368 461 350.5 478 c 128,-1,17
 333 495 333 495 295 495 c 2,18,-1
 181 495 l 1,19,-1
 181 217 l 1,20,-1
 295 217 l 2,21,22
 333 217 333 217 350.5 234.5 c 128,-1,23
 368 252 368 252 368 290 c 2,24,-1
 368 423 l 2,15,16
EndSplineSet
Position2: "'cpsp' Capital Spacing in Latin lookup 0 subtable" dx=5 dy=0 dh=10 dv=0
EndChar

StartChar: onequarter
Encoding: 188 188 158
Width: 540
Flags: W
LayerCount: 2
Fore
SplineSet
29 205 m 1,0,-1
 29 269 l 1,1,-1
 77 269 l 1,2,-1
 77 630 l 1,3,-1
 11 591 l 1,4,-1
 11 662 l 1,5,-1
 79 700 l 1,6,-1
 151 700 l 1,7,-1
 151 269 l 1,8,-1
 185 269 l 1,9,-1
 185 205 l 1,10,-1
 29 205 l 1,0,-1
498 117 m 1,11,-1
 498 0 l 1,12,-1
 428 0 l 1,13,-1
 428 117 l 1,14,-1
 327 117 l 1,15,-1
 327 191 l 1,16,-1
 381 495 l 1,17,-1
 450 495 l 1,18,-1
 388 181 l 1,19,-1
 424 181 l 1,20,-1
 451 324 l 1,21,-1
 498 324 l 1,22,-1
 498 181 l 1,23,-1
 528 181 l 1,24,-1
 528 117 l 1,25,-1
 498 117 l 1,11,-1
193 -110 m 1,26,-1
 119 -110 l 1,27,-1
 375 810 l 1,28,-1
 449 810 l 1,29,-1
 193 -110 l 1,26,-1
EndSplineSet
Ligature2: "'frac' Diagonal Fractions in Latin lookup 1 subtable" onesuperior fraction four
Ligature2: "'frac' Diagonal Fractions in Latin lookup 1 subtable" onesuperior slash four
Ligature2: "'frac' Diagonal Fractions in Latin lookup 1 subtable" one fraction four
Ligature2: "'frac' Diagonal Fractions in Latin lookup 1 subtable" one slash four
EndChar

StartChar: divide
Encoding: 247 247 159
Width: 540
Flags: W
LayerCount: 2
Fore
SplineSet
80 275 m 1,0,-1
 80 350 l 1,1,-1
 460 350 l 1,2,-1
 460 275 l 1,3,-1
 80 275 l 1,0,-1
220 65 m 1,4,-1
 220 165 l 1,5,-1
 320 165 l 1,6,-1
 320 65 l 1,7,-1
 220 65 l 1,4,-1
220 460 m 1,8,-1
 220 560 l 1,9,-1
 320 560 l 1,10,-1
 320 460 l 1,11,-1
 220 460 l 1,8,-1
EndSplineSet
EndChar

StartChar: brokenbar
Encoding: 166 166 160
Width: 540
Flags: W
LayerCount: 2
Fore
SplineSet
230 -110 m 1,0,-1
 230 250 l 1,1,-1
 310 250 l 1,2,-1
 310 -110 l 1,3,-1
 230 -110 l 1,0,-1
230 450 m 1,4,-1
 230 810 l 1,5,-1
 310 810 l 1,6,-1
 310 450 l 1,7,-1
 230 450 l 1,4,-1
EndSplineSet
EndChar

StartChar: degree
Encoding: 176 176 161
Width: 540
Flags: W
LayerCount: 2
Fore
SplineSet
411 516 m 1,0,1
 411 486 411 486 401 463.5 c 128,-1,2
 391 441 391 441 374 426.5 c 128,-1,3
 357 412 357 412 333.5 404.5 c 128,-1,4
 310 397 310 397 284 397 c 2,5,-1
 256 397 l 2,6,7
 230 397 230 397 207 404.5 c 128,-1,8
 184 412 184 412 166.5 426.5 c 128,-1,9
 149 441 149 441 139 463.5 c 128,-1,10
 129 486 129 486 129 516 c 2,11,-1
 129 582 l 2,12,13
 129 612 129 612 139 634.5 c 128,-1,14
 149 657 149 657 166.5 672 c 128,-1,15
 184 687 184 687 207 694 c 128,-1,16
 230 701 230 701 256 701 c 2,17,-1
 284 701 l 2,18,19
 310 701 310 701 333.5 694 c 128,-1,20
 357 687 357 687 374 672 c 128,-1,21
 391 657 391 657 401 634.5 c 128,-1,22
 411 612 411 612 411 582 c 2,23,-1
 411 516 l 1,24,-1
 411 516 l 1,0,1
342 585 m 2,25,26
 342 606 342 606 326 622.5 c 128,-1,27
 310 639 310 639 284 639 c 2,28,-1
 256 639 l 2,29,30
 230 639 230 639 214 622.5 c 128,-1,31
 198 606 198 606 198 585 c 2,32,-1
 198 513 l 2,33,34
 198 492 198 492 214 475.5 c 128,-1,35
 230 459 230 459 256 459 c 2,36,-1
 284 459 l 2,37,38
 310 459 310 459 326 475.5 c 128,-1,39
 342 492 342 492 342 513 c 2,40,-1
 342 585 l 2,25,26
EndSplineSet
EndChar

StartChar: thorn
Encoding: 254 254 162
Width: 540
Flags: W
LayerCount: 2
Fore
SplineSet
97 -170 m 1,0,-1
 97 700 l 1,1,-1
 182 700 l 1,2,-1
 182 -170 l 1,3,-1
 97 -170 l 1,0,-1
453 160 m 1,4,5
 453 74 453 74 411.5 37 c 128,-1,6
 370 0 370 0 283 0 c 2,7,-1
 152 0 l 1,8,-1
 152 75 l 1,9,-1
 293 75 l 2,10,11
 331 75 331 75 349.5 92.5 c 128,-1,12
 368 110 368 110 368 140 c 2,13,-1
 368 360 l 2,14,15
 368 390 368 390 349.5 407.5 c 128,-1,16
 331 425 331 425 293 425 c 2,17,-1
 247 425 l 2,18,19
 228 425 228 425 215.5 419 c 128,-1,20
 203 413 203 413 195.5 405 c 128,-1,21
 188 397 188 397 185 387.5 c 128,-1,22
 182 378 182 378 182 370 c 1,23,-1
 125 399 l 1,24,25
 142 453 142 453 177 476.5 c 128,-1,26
 212 500 212 500 257 500 c 2,27,-1
 283 500 l 2,28,29
 370 500 370 500 411.5 463.5 c 128,-1,30
 453 427 453 427 453 340 c 2,31,-1
 453 160 l 1,32,-1
 453 160 l 1,4,5
EndSplineSet
EndChar

StartChar: threequarters
Encoding: 190 190 163
Width: 540
Flags: W
LayerCount: 2
Fore
SplineSet
198 324 m 1,0,1
 198 262 198 262 171.5 233.5 c 128,-1,2
 145 205 145 205 77 205 c 2,3,-1
 21 205 l 1,4,-1
 21 267 l 1,5,-1
 74 267 l 2,6,7
 100 267 100 267 114 277.5 c 128,-1,8
 128 288 128 288 128 317 c 2,9,-1
 128 376 l 2,10,11
 128 401 128 401 113.5 414.5 c 128,-1,12
 99 428 99 428 75 428 c 2,13,-1
 44 428 l 1,14,-1
 44 488 l 1,15,-1
 67 488 l 2,16,17
 90 488 90 488 105 501 c 128,-1,18
 120 514 120 514 120 540 c 2,19,-1
 120 586 l 2,20,21
 120 615 120 615 108 626.5 c 128,-1,22
 96 638 96 638 67 638 c 2,23,-1
 21 638 l 1,24,-1
 21 700 l 1,25,-1
 68 700 l 2,26,27
 131 700 131 700 161 672.5 c 128,-1,28
 191 645 191 645 191 583 c 2,29,-1
 191 548 l 2,30,31
 191 519 191 519 179 497 c 128,-1,32
 167 475 167 475 147 461 c 1,33,34
 171 448 171 448 184.5 425.5 c 128,-1,35
 198 403 198 403 198 369 c 2,36,-1
 198 324 l 1,37,-1
 198 324 l 1,0,1
498 117 m 1,38,-1
 498 0 l 1,39,-1
 428 0 l 1,40,-1
 428 117 l 1,41,-1
 327 117 l 1,42,-1
 327 191 l 1,43,-1
 381 495 l 1,44,-1
 450 495 l 1,45,-1
 388 181 l 1,46,-1
 424 181 l 1,47,-1
 451 324 l 1,48,-1
 498 324 l 1,49,-1
 498 181 l 1,50,-1
 528 181 l 1,51,-1
 528 117 l 1,52,-1
 498 117 l 1,38,-1
187 -110 m 1,53,-1
 113 -110 l 1,54,-1
 369 810 l 1,55,-1
 443 810 l 1,56,-1
 187 -110 l 1,53,-1
EndSplineSet
Ligature2: "'frac' Diagonal Fractions in Latin lookup 1 subtable" threesuperior fraction four
Ligature2: "'frac' Diagonal Fractions in Latin lookup 1 subtable" threesuperior slash four
Ligature2: "'frac' Diagonal Fractions in Latin lookup 1 subtable" three fraction four
Ligature2: "'frac' Diagonal Fractions in Latin lookup 1 subtable" three slash four
EndChar

StartChar: twosuperior
Encoding: 178 178 164
Width: 540
Flags: W
LayerCount: 2
Fore
SplineSet
150 205 m 1,0,-1
 150 278 l 1,1,-1
 262 431 l 2,2,3
 278 452 278 452 287.5 466.5 c 128,-1,4
 297 481 297 481 302.5 493 c 128,-1,5
 308 505 308 505 310 518.5 c 128,-1,6
 312 532 312 532 312 551 c 2,7,-1
 312 587 l 2,8,9
 312 610 312 610 298 623 c 128,-1,10
 284 636 284 636 251 636 c 2,11,-1
 165 636 l 1,12,-1
 165 700 l 1,13,-1
 244 700 l 2,14,15
 319 700 319 700 352 671.5 c 128,-1,16
 385 643 385 643 385 581 c 2,17,-1
 385 558 l 2,18,19
 385 527 385 527 382 507 c 128,-1,20
 379 487 379 487 373 472 c 128,-1,21
 367 457 367 457 356.5 442.5 c 128,-1,22
 346 428 346 428 331 408 c 2,23,-1
 228 269 l 1,24,-1
 390 269 l 1,25,-1
 390 205 l 1,26,-1
 150 205 l 1,0,-1
EndSplineSet
EndChar

StartChar: registered
Encoding: 174 174 165
Width: 540
Flags: W
LayerCount: 2
Fore
SplineSet
515 170 m 1,0,1
 515 84 515 84 471 42 c 128,-1,2
 427 0 427 0 352 0 c 2,3,-1
 188 0 l 2,4,5
 113 0 113 0 69 42 c 128,-1,6
 25 84 25 84 25 170 c 2,7,-1
 25 530 l 2,8,9
 25 617 25 617 69 658.5 c 128,-1,10
 113 700 113 700 188 700 c 2,11,-1
 352 700 l 2,12,13
 427 700 427 700 471 658.5 c 128,-1,14
 515 617 515 617 515 530 c 2,15,-1
 515 170 l 1,16,-1
 515 170 l 1,0,1
443 552 m 2,17,18
 443 567 443 567 437 582 c 128,-1,19
 431 597 431 597 420 609 c 128,-1,20
 409 621 409 621 392 628.5 c 128,-1,21
 375 636 375 636 352 636 c 2,22,-1
 188 636 l 2,23,24
 165 636 165 636 148 628.5 c 128,-1,25
 131 621 131 621 119.5 609 c 128,-1,26
 108 597 108 597 102.5 582 c 128,-1,27
 97 567 97 567 97 552 c 2,28,-1
 97 147 l 2,29,30
 97 132 97 132 102.5 117 c 128,-1,31
 108 102 108 102 119.5 90 c 128,-1,32
 131 78 131 78 148 70.5 c 128,-1,33
 165 63 165 63 188 63 c 2,34,-1
 352 63 l 2,35,36
 375 63 375 63 392.5 70.5 c 128,-1,37
 410 78 410 78 421 90 c 128,-1,38
 432 102 432 102 437.5 117 c 128,-1,39
 443 132 443 132 443 147 c 2,40,-1
 443 552 l 2,17,18
348 159 m 1,41,-1
 270 317 l 1,42,-1
 225 317 l 1,43,-1
 225 159 l 1,44,-1
 169 159 l 1,45,-1
 169 543 l 1,46,-1
 276 543 l 2,47,48
 326 543 326 543 353 522.5 c 128,-1,49
 380 502 380 502 380 457 c 2,50,-1
 380 404 l 2,51,52
 380 371 380 371 366 352.5 c 128,-1,53
 352 334 352 334 326 326 c 1,54,-1
 409 159 l 1,55,-1
 348 159 l 1,41,-1
319 457 m 2,56,57
 319 478 319 478 309 487 c 128,-1,58
 299 496 299 496 276 496 c 2,59,-1
 225 496 l 1,60,-1
 225 363 l 1,61,-1
 276 363 l 2,62,63
 319 363 319 363 319 403 c 2,64,-1
 319 457 l 2,56,57
EndSplineSet
EndChar

StartChar: minus
Encoding: 8722 8722 166
Width: 540
Flags: W
LayerCount: 2
Fore
SplineSet
80 275 m 1,0,-1
 80 350 l 1,1,-1
 460 350 l 1,2,-1
 460 275 l 1,3,-1
 80 275 l 1,0,-1
EndSplineSet
EndChar

StartChar: eth
Encoding: 240 240 167
Width: 540
Flags: W
LayerCount: 2
Fore
SplineSet
270 566 m 1,0,-1
 188 566 l 1,1,-1
 223 626 l 1,2,-1
 147 626 l 1,3,-1
 147 700 l 1,4,-1
 266 700 l 1,5,-1
 296 750 l 1,6,-1
 378 750 l 1,7,-1
 342 690 l 1,8,9
 445 658 445 658 445 530 c 2,10,-1
 445 170 l 2,11,12
 445 127 445 127 432.5 95 c 128,-1,13
 420 63 420 63 398 42 c 128,-1,14
 376 21 376 21 347.5 10.5 c 128,-1,15
 319 0 319 0 287 0 c 2,16,-1
 252 0 l 2,17,18
 220 0 220 0 191.5 10.5 c 128,-1,19
 163 21 163 21 141 42 c 128,-1,20
 119 63 119 63 106.5 95 c 128,-1,21
 94 127 94 127 94 170 c 2,22,-1
 94 300 l 2,23,24
 94 386 94 386 135.5 423 c 128,-1,25
 177 460 177 460 262 460 c 2,26,-1
 360 460 l 1,27,-1
 360 549 l 2,28,29
 360 573 360 573 344.5 593.5 c 128,-1,30
 329 614 329 614 303 622 c 1,31,-1
 270 566 l 1,0,-1
252 385 m 2,32,33
 214 385 214 385 196.5 367 c 128,-1,34
 179 349 179 349 179 319 c 2,35,-1
 179 151 l 2,36,37
 179 121 179 121 199 98 c 128,-1,38
 219 75 219 75 257 75 c 2,39,-1
 282 75 l 2,40,41
 320 75 320 75 340 98 c 128,-1,42
 360 121 360 121 360 151 c 2,43,-1
 360 385 l 1,44,-1
 252 385 l 2,32,33
EndSplineSet
EndChar

StartChar: multiply
Encoding: 215 215 168
Width: 540
Flags: W
LayerCount: 2
Fore
SplineSet
270 253 m 1,0,-1
 153 137 l 1,1,-1
 97 193 l 1,2,-1
 213 310 l 1,3,-1
 97 427 l 1,4,-1
 153 483 l 1,5,-1
 270 367 l 1,6,-1
 387 483 l 1,7,-1
 443 427 l 1,8,-1
 327 310 l 1,9,-1
 443 193 l 1,10,-1
 387 137 l 1,11,-1
 270 253 l 1,0,-1
EndSplineSet
EndChar

StartChar: threesuperior
Encoding: 179 179 169
Width: 540
Flags: W
LayerCount: 2
Fore
SplineSet
381 324 m 1,0,1
 381 261 381 261 352 233 c 128,-1,2
 323 205 323 205 254 205 c 2,3,-1
 158 205 l 1,4,-1
 158 269 l 1,5,-1
 251 269 l 2,6,7
 277 269 277 269 292 279.5 c 128,-1,8
 307 290 307 290 307 319 c 2,9,-1
 307 374 l 2,10,11
 307 399 307 399 291.5 412.5 c 128,-1,12
 276 426 276 426 252 426 c 2,13,-1
 181 426 l 1,14,-1
 181 490 l 1,15,-1
 244 490 l 2,16,17
 267 490 267 490 283 503 c 128,-1,18
 299 516 299 516 299 542 c 2,19,-1
 299 584 l 2,20,21
 299 613 299 613 286 624.5 c 128,-1,22
 273 636 273 636 244 636 c 2,23,-1
 158 636 l 1,24,-1
 158 700 l 1,25,-1
 245 700 l 2,26,27
 308 700 308 700 341 672.5 c 128,-1,28
 374 645 374 645 374 583 c 2,29,-1
 374 548 l 2,30,31
 374 519 374 519 362 497 c 128,-1,32
 350 475 350 475 330 461 c 1,33,34
 354 448 354 448 367.5 425.5 c 128,-1,35
 381 403 381 403 381 369 c 2,36,-1
 381 324 l 1,37,-1
 381 324 l 1,0,1
EndSplineSet
EndChar

StartChar: copyright
Encoding: 169 169 170
Width: 540
Flags: W
LayerCount: 2
Fore
SplineSet
283 157 m 2,0,1
 231 157 231 157 203 180 c 128,-1,2
 175 203 175 203 175 251 c 2,3,-1
 175 449 l 2,4,5
 175 497 175 497 203 520 c 128,-1,6
 231 543 231 543 283 543 c 2,7,-1
 358 543 l 1,8,-1
 358 492 l 1,9,-1
 278 492 l 2,10,11
 255 492 255 492 243.5 479.5 c 128,-1,12
 232 467 232 467 232 450 c 2,13,-1
 232 250 l 2,14,15
 232 233 232 233 243.5 220.5 c 128,-1,16
 255 208 255 208 278 208 c 2,17,-1
 357 208 l 1,18,-1
 357 157 l 1,19,-1
 283 157 l 2,0,1
515 170 m 1,20,21
 515 84 515 84 471 42 c 128,-1,22
 427 0 427 0 352 0 c 2,23,-1
 188 0 l 2,24,25
 113 0 113 0 69 42 c 128,-1,26
 25 84 25 84 25 170 c 2,27,-1
 25 530 l 2,28,29
 25 617 25 617 69 658.5 c 128,-1,30
 113 700 113 700 188 700 c 2,31,-1
 352 700 l 2,32,33
 427 700 427 700 471 658.5 c 128,-1,34
 515 617 515 617 515 530 c 2,35,-1
 515 170 l 1,36,-1
 515 170 l 1,20,21
443 552 m 2,37,38
 443 567 443 567 437 582 c 128,-1,39
 431 597 431 597 420 609 c 128,-1,40
 409 621 409 621 392 628.5 c 128,-1,41
 375 636 375 636 352 636 c 2,42,-1
 188 636 l 2,43,44
 165 636 165 636 148 628.5 c 128,-1,45
 131 621 131 621 119.5 609 c 128,-1,46
 108 597 108 597 102.5 582 c 128,-1,47
 97 567 97 567 97 552 c 2,48,-1
 97 147 l 2,49,50
 97 132 97 132 102.5 117 c 128,-1,51
 108 102 108 102 119.5 90 c 128,-1,52
 131 78 131 78 148 70.5 c 128,-1,53
 165 63 165 63 188 63 c 2,54,-1
 352 63 l 2,55,56
 375 63 375 63 392.5 70.5 c 128,-1,57
 410 78 410 78 421 90 c 128,-1,58
 432 102 432 102 437.5 117 c 128,-1,59
 443 132 443 132 443 147 c 2,60,-1
 443 552 l 2,37,38
EndSplineSet
EndChar

StartChar: Aacute
Encoding: 193 193 171
Width: 540
Flags: W
LayerCount: 2
Fore
SplineSet
181 726 m 1,0,-1
 285 841 l 1,1,-1
 396 841 l 1,2,-1
 264 726 l 1,3,-1
 181 726 l 1,0,-1
270 634 m 1,4,-1
 181 252 l 1,5,-1
 352 252 l 1,6,-1
 270 634 l 1,4,-1
406 0 m 1,7,-1
 368 177 l 1,8,-1
 173 177 l 1,9,-1
 134 0 l 1,10,-1
 45 0 l 1,11,-1
 214 700 l 1,12,-1
 329 700 l 1,13,-1
 495 0 l 1,14,-1
 406 0 l 1,7,-1
EndSplineSet
Position2: "'cpsp' Capital Spacing in Latin lookup 0 subtable" dx=5 dy=0 dh=10 dv=0
EndChar

StartChar: Acircumflex
Encoding: 194 194 172
Width: 540
Flags: W
LayerCount: 2
Fore
SplineSet
329 730 m 1,0,-1
 269 794 l 1,1,-1
 209 730 l 1,2,-1
 113 730 l 1,3,-1
 223 845 l 1,4,-1
 315 845 l 1,5,-1
 426 730 l 1,6,-1
 329 730 l 1,0,-1
270 634 m 1,7,-1
 189 252 l 1,8,-1
 352 252 l 1,9,-1
 270 634 l 1,7,-1
406 0 m 1,10,-1
 368 177 l 1,11,-1
 173 177 l 1,12,-1
 134 0 l 1,13,-1
 45 0 l 1,14,-1
 214 700 l 1,15,-1
 329 700 l 1,16,-1
 495 0 l 1,17,-1
 406 0 l 1,10,-1
EndSplineSet
Position2: "'cpsp' Capital Spacing in Latin lookup 0 subtable" dx=5 dy=0 dh=10 dv=0
EndChar

StartChar: Adieresis
Encoding: 196 196 173
Width: 540
Flags: W
LayerCount: 2
Fore
SplineSet
270 634 m 1,0,-1
 189 252 l 1,1,-1
 352 252 l 1,2,-1
 270 634 l 1,0,-1
406 0 m 1,3,-1
 368 177 l 1,4,-1
 173 177 l 1,5,-1
 134 0 l 1,6,-1
 45 0 l 1,7,-1
 214 700 l 1,8,-1
 329 700 l 1,9,-1
 495 0 l 1,10,-1
 406 0 l 1,3,-1
332 735 m 1,11,-1
 332 815 l 1,12,-1
 406 815 l 1,13,-1
 417 735 l 1,14,-1
 332 735 l 1,11,-1
132 735 m 1,15,-1
 132 815 l 1,16,-1
 217 815 l 1,17,-1
 217 735 l 1,18,-1
 132 735 l 1,15,-1
EndSplineSet
Position2: "'cpsp' Capital Spacing in Latin lookup 0 subtable" dx=5 dy=0 dh=10 dv=0
EndChar

StartChar: Agrave
Encoding: 192 192 174
Width: 540
Flags: W
LayerCount: 2
Fore
SplineSet
274 726 m 1,0,-1
 142 841 l 1,1,-1
 253 841 l 1,2,-1
 357 726 l 1,3,-1
 274 726 l 1,0,-1
270 634 m 1,4,-1
 189 252 l 1,5,-1
 352 252 l 1,6,-1
 270 634 l 1,4,-1
406 0 m 1,7,-1
 368 177 l 1,8,-1
 173 177 l 1,9,-1
 134 0 l 1,10,-1
 45 0 l 1,11,-1
 214 700 l 1,12,-1
 329 700 l 1,13,-1
 495 0 l 1,14,-1
 406 0 l 1,7,-1
EndSplineSet
Position2: "'cpsp' Capital Spacing in Latin lookup 0 subtable" dx=5 dy=0 dh=10 dv=0
EndChar

StartChar: Aring
Encoding: 197 197 175
Width: 540
Flags: W
LayerCount: 2
Fore
SplineSet
363 741 m 1,0,1
 361 696 361 696 335 675 c 1,2,-1
 495 0 l 1,3,-1
 406 0 l 1,4,-1
 368 177 l 1,5,-1
 173 177 l 1,6,-1
 134 0 l 1,7,-1
 45 0 l 1,8,-1
 208 674 l 1,9,10
 179 697 179 697 179 741 c 2,11,-1
 179 770 l 2,12,13
 179 814 179 814 204.5 834.5 c 128,-1,14
 230 855 230 855 268 855 c 2,15,-1
 274 855 l 2,16,17
 312 855 312 855 337.5 834.5 c 128,-1,18
 363 814 363 814 363 770 c 2,19,-1
 363 741 l 1,20,-1
 363 741 l 1,0,1
270 634 m 1,21,-1
 189 252 l 1,22,-1
 352 252 l 1,23,-1
 270 634 l 1,21,-1
306 771 m 2,24,25
 306 786 306 786 299.5 797.5 c 128,-1,26
 293 809 293 809 274 809 c 2,27,-1
 268 809 l 2,28,29
 249 809 249 809 241.5 797.5 c 128,-1,30
 234 786 234 786 234 771 c 2,31,-1
 234 740 l 2,32,33
 234 725 234 725 241.5 713.5 c 128,-1,34
 249 702 249 702 268 702 c 2,35,-1
 274 702 l 2,36,37
 293 702 293 702 299.5 713.5 c 128,-1,38
 306 725 306 725 306 740 c 2,39,-1
 306 771 l 2,24,25
EndSplineSet
Position2: "'cpsp' Capital Spacing in Latin lookup 0 subtable" dx=5 dy=0 dh=10 dv=0
EndChar

StartChar: Atilde
Encoding: 195 195 176
Width: 540
Flags: W
LayerCount: 2
Fore
SplineSet
270 634 m 1,0,-1
 189 252 l 1,1,-1
 352 252 l 1,2,-1
 270 634 l 1,0,-1
406 0 m 1,3,-1
 368 177 l 1,4,-1
 173 177 l 1,5,-1
 134 0 l 1,6,-1
 45 0 l 1,7,-1
 214 700 l 1,8,-1
 329 700 l 1,9,-1
 495 0 l 1,10,-1
 406 0 l 1,3,-1
135 807 m 1,11,12
 151 817 151 817 166 824 c 0,13,14
 179 830 179 830 192 835 c 128,-1,15
 205 840 205 840 212 840 c 2,16,-1
 227 840 l 2,17,18
 236 840 236 840 251 834 c 128,-1,19
 266 828 266 828 282.5 820.5 c 128,-1,20
 299 813 299 813 314 806.5 c 128,-1,21
 329 800 329 800 338 800 c 2,22,-1
 348 800 l 2,23,24
 353 800 353 800 364 805.5 c 128,-1,25
 375 811 375 811 386 818 c 0,26,27
 399 826 399 826 415 836 c 1,28,-1
 415 764 l 1,29,30
 400 755 400 755 387 748 c 0,31,32
 376 742 376 742 365 736.5 c 128,-1,33
 354 731 354 731 347 731 c 2,34,-1
 332 731 l 2,35,36
 327 731 327 731 312 737.5 c 128,-1,37
 297 744 297 744 279.5 751.5 c 128,-1,38
 262 759 262 759 246 765 c 128,-1,39
 230 771 230 771 222 771 c 2,40,-1
 212 771 l 2,41,42
 207 771 207 771 194.5 765.5 c 128,-1,43
 182 760 182 760 168 753 c 0,44,45
 152 745 152 745 135 735 c 1,46,-1
 135 807 l 1,11,12
EndSplineSet
Position2: "'cpsp' Capital Spacing in Latin lookup 0 subtable" dx=5 dy=0 dh=10 dv=0
EndChar

StartChar: Ccedilla
Encoding: 199 199 177
Width: 540
Flags: W
LayerCount: 2
Fore
SplineSet
236 -200 m 1,0,-1
 236 -136 l 1,1,-1
 303 -136 l 2,2,3
 336 -136 336 -136 336 -105 c 0,4,5
 336 -88 336 -88 327 -82 c 128,-1,6
 318 -76 318 -76 301 -76 c 2,7,-1
 252 -76 l 1,8,-1
 252 2 l 1,9,10
 183 10 183 10 146 52 c 128,-1,11
 109 94 109 94 109 170 c 2,12,-1
 109 530 l 2,13,14
 109 616 109 616 155.5 658 c 128,-1,15
 202 700 202 700 289 700 c 2,16,-1
 431 700 l 1,17,-1
 431 624 l 1,18,-1
 279 624 l 2,19,20
 241 624 241 624 218.5 601.5 c 128,-1,21
 196 579 196 579 196 549 c 2,22,-1
 196 151 l 2,23,24
 196 121 196 121 218.5 98.5 c 128,-1,25
 241 76 241 76 279 76 c 2,26,-1
 431 76 l 1,27,-1
 431 0 l 1,28,-1
 322 0 l 1,29,-1
 322 -21 l 1,30,31
 366 -21 366 -21 387.5 -37 c 128,-1,32
 409 -53 409 -53 409 -105 c 0,33,34
 409 -138 409 -138 400 -157 c 128,-1,35
 391 -176 391 -176 378 -185.5 c 128,-1,36
 365 -195 365 -195 349.5 -197.5 c 128,-1,37
 334 -200 334 -200 321 -200 c 2,38,-1
 236 -200 l 1,0,-1
EndSplineSet
Position2: "'cpsp' Capital Spacing in Latin lookup 0 subtable" dx=5 dy=0 dh=10 dv=0
EndChar

StartChar: Eacute
Encoding: 201 201 178
Width: 540
Flags: W
LayerCount: 2
Fore
SplineSet
182 726 m 1,0,-1
 286 841 l 1,1,-1
 397 841 l 1,2,-1
 265 726 l 1,3,-1
 182 726 l 1,0,-1
103 0 m 1,4,-1
 103 700 l 1,5,-1
 437 700 l 1,6,-1
 437 627 l 1,7,-1
 190 627 l 1,8,-1
 190 398 l 1,9,-1
 412 398 l 1,10,-1
 412 325 l 1,11,-1
 190 325 l 1,12,-1
 190 73 l 1,13,-1
 437 73 l 1,14,-1
 437 0 l 1,15,-1
 103 0 l 1,4,-1
EndSplineSet
Position2: "'cpsp' Capital Spacing in Latin lookup 0 subtable" dx=5 dy=0 dh=10 dv=0
EndChar

StartChar: Ecircumflex
Encoding: 202 202 179
Width: 540
Flags: W
LayerCount: 2
Fore
SplineSet
330 730 m 1,0,-1
 270 794 l 1,1,-1
 210 730 l 1,2,-1
 114 730 l 1,3,-1
 224 845 l 1,4,-1
 316 845 l 1,5,-1
 427 730 l 1,6,-1
 330 730 l 1,0,-1
103 0 m 1,7,-1
 103 700 l 1,8,-1
 437 700 l 1,9,-1
 437 627 l 1,10,-1
 190 627 l 1,11,-1
 190 398 l 1,12,-1
 412 398 l 1,13,-1
 412 325 l 1,14,-1
 190 325 l 1,15,-1
 190 73 l 1,16,-1
 437 73 l 1,17,-1
 437 0 l 1,18,-1
 103 0 l 1,7,-1
EndSplineSet
Position2: "'cpsp' Capital Spacing in Latin lookup 0 subtable" dx=5 dy=0 dh=10 dv=0
EndChar

StartChar: Edieresis
Encoding: 203 203 180
Width: 540
Flags: W
LayerCount: 2
Fore
SplineSet
103 0 m 1,0,-1
 103 700 l 1,1,-1
 437 700 l 1,2,-1
 437 627 l 1,3,-1
 190 627 l 1,4,-1
 190 398 l 1,5,-1
 412 398 l 1,6,-1
 412 325 l 1,7,-1
 190 325 l 1,8,-1
 190 73 l 1,9,-1
 437 73 l 1,10,-1
 437 0 l 1,11,-1
 103 0 l 1,0,-1
327 735 m 1,12,-1
 327 815 l 1,13,-1
 412 815 l 1,14,-1
 412 735 l 1,15,-1
 327 735 l 1,12,-1
127 735 m 1,16,-1
 127 815 l 1,17,-1
 212 815 l 1,18,-1
 212 735 l 1,19,-1
 127 735 l 1,16,-1
EndSplineSet
Position2: "'cpsp' Capital Spacing in Latin lookup 0 subtable" dx=5 dy=0 dh=10 dv=0
EndChar

StartChar: Egrave
Encoding: 200 200 181
Width: 540
Flags: W
LayerCount: 2
Fore
SplineSet
269 726 m 1,0,-1
 137 841 l 1,1,-1
 248 841 l 1,2,-1
 352 726 l 1,3,-1
 269 726 l 1,0,-1
103 0 m 1,4,-1
 103 700 l 1,5,-1
 437 700 l 1,6,-1
 437 627 l 1,7,-1
 190 627 l 1,8,-1
 190 398 l 1,9,-1
 412 398 l 1,10,-1
 412 325 l 1,11,-1
 190 325 l 1,12,-1
 190 73 l 1,13,-1
 437 73 l 1,14,-1
 437 0 l 1,15,-1
 103 0 l 1,4,-1
EndSplineSet
Position2: "'cpsp' Capital Spacing in Latin lookup 0 subtable" dx=5 dy=0 dh=10 dv=0
EndChar

StartChar: Iacute
Encoding: 205 205 182
Width: 540
Flags: W
LayerCount: 2
Fore
SplineSet
177 726 m 1,0,-1
 281 841 l 1,1,-1
 392 841 l 1,2,-1
 260 726 l 1,3,-1
 177 726 l 1,0,-1
136 0 m 1,4,-1
 136 73 l 1,5,-1
 226 73 l 1,6,-1
 226 627 l 1,7,-1
 136 627 l 1,8,-1
 136 700 l 1,9,-1
 403 700 l 1,10,-1
 403 627 l 1,11,-1
 313 627 l 1,12,-1
 313 73 l 1,13,-1
 403 73 l 1,14,-1
 403 0 l 1,15,-1
 136 0 l 1,4,-1
EndSplineSet
Position2: "'cpsp' Capital Spacing in Latin lookup 0 subtable" dx=5 dy=0 dh=10 dv=0
EndChar

StartChar: Icircumflex
Encoding: 206 206 183
Width: 540
Flags: W
LayerCount: 2
Fore
SplineSet
330 730 m 1,0,-1
 270 794 l 1,1,-1
 210 730 l 1,2,-1
 114 730 l 1,3,-1
 224 845 l 1,4,-1
 316 845 l 1,5,-1
 427 730 l 1,6,-1
 330 730 l 1,0,-1
137 0 m 1,7,-1
 137 73 l 1,8,-1
 227 73 l 1,9,-1
 227 627 l 1,10,-1
 137 627 l 1,11,-1
 137 700 l 1,12,-1
 404 700 l 1,13,-1
 404 627 l 1,14,-1
 314 627 l 1,15,-1
 314 73 l 1,16,-1
 404 73 l 1,17,-1
 404 0 l 1,18,-1
 137 0 l 1,7,-1
EndSplineSet
Position2: "'cpsp' Capital Spacing in Latin lookup 0 subtable" dx=5 dy=0 dh=10 dv=0
EndChar

StartChar: Idieresis
Encoding: 207 207 184
Width: 540
Flags: W
LayerCount: 2
Fore
SplineSet
136 0 m 1,0,-1
 136 73 l 1,1,-1
 226 73 l 1,2,-1
 226 627 l 1,3,-1
 136 627 l 1,4,-1
 136 700 l 1,5,-1
 403 700 l 1,6,-1
 403 627 l 1,7,-1
 313 627 l 1,8,-1
 313 73 l 1,9,-1
 403 73 l 1,10,-1
 403 0 l 1,11,-1
 136 0 l 1,0,-1
328 735 m 1,12,-1
 328 815 l 1,13,-1
 413 815 l 1,14,-1
 413 735 l 1,15,-1
 328 735 l 1,12,-1
128 735 m 1,16,-1
 128 815 l 1,17,-1
 213 815 l 1,18,-1
 213 735 l 1,19,-1
 128 735 l 1,16,-1
EndSplineSet
Position2: "'cpsp' Capital Spacing in Latin lookup 0 subtable" dx=5 dy=0 dh=10 dv=0
EndChar

StartChar: Igrave
Encoding: 204 204 185
Width: 540
Flags: W
LayerCount: 2
Fore
SplineSet
268 726 m 1,0,-1
 136 841 l 1,1,-1
 247 841 l 1,2,-1
 351 726 l 1,3,-1
 268 726 l 1,0,-1
139 0 m 1,4,-1
 139 73 l 1,5,-1
 229 73 l 1,6,-1
 229 627 l 1,7,-1
 139 627 l 1,8,-1
 139 700 l 1,9,-1
 406 700 l 1,10,-1
 406 627 l 1,11,-1
 316 627 l 1,12,-1
 316 73 l 1,13,-1
 406 73 l 1,14,-1
 406 0 l 1,15,-1
 139 0 l 1,4,-1
EndSplineSet
Position2: "'cpsp' Capital Spacing in Latin lookup 0 subtable" dx=5 dy=0 dh=10 dv=0
EndChar

StartChar: Ntilde
Encoding: 209 209 186
Width: 540
Flags: W
LayerCount: 2
Fore
SplineSet
317 0 m 1,0,-1
 160 626 l 1,1,-1
 160 0 l 1,2,-1
 79 0 l 1,3,-1
 79 700 l 1,4,-1
 221 700 l 1,5,-1
 379 74 l 1,6,-1
 379 700 l 1,7,-1
 460 700 l 1,8,-1
 460 0 l 1,9,-1
 317 0 l 1,0,-1
133 807 m 1,10,11
 149 817 149 817 164 824 c 0,12,13
 177 830 177 830 190 835 c 128,-1,14
 203 840 203 840 210 840 c 2,15,-1
 225 840 l 2,16,17
 234 840 234 840 249 834 c 128,-1,18
 264 828 264 828 280.5 820.5 c 128,-1,19
 297 813 297 813 312 806.5 c 128,-1,20
 327 800 327 800 336 800 c 2,21,-1
 346 800 l 2,22,23
 351 800 351 800 362 805.5 c 128,-1,24
 373 811 373 811 384 818 c 0,25,26
 397 826 397 826 413 836 c 1,27,-1
 413 764 l 1,28,29
 398 755 398 755 385 748 c 0,30,31
 374 742 374 742 363 736.5 c 128,-1,32
 352 731 352 731 345 731 c 2,33,-1
 330 731 l 2,34,35
 325 731 325 731 310 737.5 c 128,-1,36
 295 744 295 744 277.5 751.5 c 128,-1,37
 260 759 260 759 244 765 c 128,-1,38
 228 771 228 771 220 771 c 2,39,-1
 210 771 l 2,40,41
 205 771 205 771 192.5 765.5 c 128,-1,42
 180 760 180 760 166 753 c 0,43,44
 150 745 150 745 133 735 c 1,45,-1
 133 807 l 1,10,11
EndSplineSet
Position2: "'cpsp' Capital Spacing in Latin lookup 0 subtable" dx=5 dy=0 dh=10 dv=0
EndChar

StartChar: Oacute
Encoding: 211 211 187
Width: 540
Flags: W
LayerCount: 2
Fore
SplineSet
184 726 m 1,0,-1
 288 841 l 1,1,-1
 399 841 l 1,2,-1
 267 726 l 1,3,-1
 184 726 l 1,0,-1
470 170 m 1,4,5
 470 84 470 84 423.5 42 c 128,-1,6
 377 0 377 0 290 0 c 2,7,-1
 250 0 l 2,8,9
 163 0 163 0 116.5 42 c 128,-1,10
 70 84 70 84 70 170 c 2,11,-1
 70 530 l 2,12,13
 70 616 70 616 116.5 658 c 128,-1,14
 163 700 163 700 250 700 c 2,15,-1
 290 700 l 2,16,17
 377 700 377 700 423.5 658 c 128,-1,18
 470 616 470 616 470 530 c 2,19,-1
 470 170 l 1,20,-1
 470 170 l 1,4,5
383 549 m 2,21,22
 383 579 383 579 360.5 601.5 c 128,-1,23
 338 624 338 624 300 624 c 2,24,-1
 240 624 l 2,25,26
 202 624 202 624 179.5 601.5 c 128,-1,27
 157 579 157 579 157 549 c 2,28,-1
 157 151 l 2,29,30
 157 121 157 121 179.5 98.5 c 128,-1,31
 202 76 202 76 240 76 c 2,32,-1
 300 76 l 2,33,34
 338 76 338 76 360.5 98.5 c 128,-1,35
 383 121 383 121 383 151 c 2,36,-1
 383 549 l 2,21,22
EndSplineSet
Position2: "'cpsp' Capital Spacing in Latin lookup 0 subtable" dx=5 dy=0 dh=10 dv=0
EndChar

StartChar: Ocircumflex
Encoding: 212 212 188
Width: 540
Flags: W
LayerCount: 2
Fore
SplineSet
329 730 m 1,0,-1
 269 794 l 1,1,-1
 209 730 l 1,2,-1
 113 730 l 1,3,-1
 223 845 l 1,4,-1
 315 845 l 1,5,-1
 426 730 l 1,6,-1
 329 730 l 1,0,-1
470 170 m 1,7,8
 470 84 470 84 423.5 42 c 128,-1,9
 377 0 377 0 290 0 c 2,10,-1
 250 0 l 2,11,12
 163 0 163 0 116.5 42 c 128,-1,13
 70 84 70 84 70 170 c 2,14,-1
 70 530 l 2,15,16
 70 616 70 616 116.5 658 c 128,-1,17
 163 700 163 700 250 700 c 2,18,-1
 290 700 l 2,19,20
 377 700 377 700 423.5 658 c 128,-1,21
 470 616 470 616 470 530 c 2,22,-1
 470 170 l 1,23,-1
 470 170 l 1,7,8
383 549 m 2,24,25
 383 579 383 579 360.5 601.5 c 128,-1,26
 338 624 338 624 300 624 c 2,27,-1
 240 624 l 2,28,29
 202 624 202 624 179.5 601.5 c 128,-1,30
 157 579 157 579 157 549 c 2,31,-1
 157 151 l 2,32,33
 157 121 157 121 179.5 98.5 c 128,-1,34
 202 76 202 76 240 76 c 2,35,-1
 300 76 l 2,36,37
 338 76 338 76 360.5 98.5 c 128,-1,38
 383 121 383 121 383 151 c 2,39,-1
 383 549 l 2,24,25
EndSplineSet
Position2: "'cpsp' Capital Spacing in Latin lookup 0 subtable" dx=5 dy=0 dh=10 dv=0
EndChar

StartChar: Odieresis
Encoding: 214 214 189
Width: 540
Flags: W
LayerCount: 2
Fore
SplineSet
331 735 m 1,0,-1
 331 815 l 1,1,-1
 416 815 l 1,2,-1
 416 735 l 1,3,-1
 331 735 l 1,0,-1
131 735 m 1,4,-1
 131 815 l 1,5,-1
 216 815 l 1,6,-1
 216 735 l 1,7,-1
 131 735 l 1,4,-1
470 170 m 1,8,9
 470 84 470 84 423.5 42 c 128,-1,10
 377 0 377 0 290 0 c 2,11,-1
 250 0 l 2,12,13
 163 0 163 0 116.5 42 c 128,-1,14
 70 84 70 84 70 170 c 2,15,-1
 70 530 l 2,16,17
 70 616 70 616 116.5 658 c 128,-1,18
 163 700 163 700 250 700 c 2,19,-1
 290 700 l 2,20,21
 377 700 377 700 423.5 658 c 128,-1,22
 470 616 470 616 470 530 c 2,23,-1
 470 170 l 1,24,-1
 470 170 l 1,8,9
383 549 m 2,25,26
 383 579 383 579 360.5 601.5 c 128,-1,27
 338 624 338 624 300 624 c 2,28,-1
 240 624 l 2,29,30
 202 624 202 624 179.5 601.5 c 128,-1,31
 157 579 157 579 157 549 c 2,32,-1
 157 151 l 2,33,34
 157 121 157 121 179.5 98.5 c 128,-1,35
 202 76 202 76 240 76 c 2,36,-1
 300 76 l 2,37,38
 338 76 338 76 360.5 98.5 c 128,-1,39
 383 121 383 121 383 151 c 2,40,-1
 383 549 l 2,25,26
EndSplineSet
Position2: "'cpsp' Capital Spacing in Latin lookup 0 subtable" dx=5 dy=0 dh=10 dv=0
EndChar

StartChar: Ograve
Encoding: 210 210 190
Width: 540
Flags: W
LayerCount: 2
Fore
SplineSet
268 726 m 1,0,-1
 136 841 l 1,1,-1
 247 841 l 1,2,-1
 351 726 l 1,3,-1
 268 726 l 1,0,-1
470 170 m 1,4,5
 470 84 470 84 423.5 42 c 128,-1,6
 377 0 377 0 290 0 c 2,7,-1
 250 0 l 2,8,9
 163 0 163 0 116.5 42 c 128,-1,10
 70 84 70 84 70 170 c 2,11,-1
 70 530 l 2,12,13
 70 616 70 616 116.5 658 c 128,-1,14
 163 700 163 700 250 700 c 2,15,-1
 290 700 l 2,16,17
 377 700 377 700 423.5 658 c 128,-1,18
 470 616 470 616 470 530 c 2,19,-1
 470 170 l 1,20,-1
 470 170 l 1,4,5
383 549 m 2,21,22
 383 579 383 579 360.5 601.5 c 128,-1,23
 338 624 338 624 300 624 c 2,24,-1
 240 624 l 2,25,26
 202 624 202 624 179.5 601.5 c 128,-1,27
 157 579 157 579 157 549 c 2,28,-1
 157 151 l 2,29,30
 157 121 157 121 179.5 98.5 c 128,-1,31
 202 76 202 76 240 76 c 2,32,-1
 300 76 l 2,33,34
 338 76 338 76 360.5 98.5 c 128,-1,35
 383 121 383 121 383 151 c 2,36,-1
 383 549 l 2,21,22
EndSplineSet
Position2: "'cpsp' Capital Spacing in Latin lookup 0 subtable" dx=5 dy=0 dh=10 dv=0
EndChar

StartChar: Otilde
Encoding: 213 213 191
Width: 540
Flags: W
LayerCount: 2
Fore
SplineSet
470 170 m 1,0,1
 470 84 470 84 423.5 42 c 128,-1,2
 377 0 377 0 290 0 c 2,3,-1
 250 0 l 2,4,5
 163 0 163 0 116.5 42 c 128,-1,6
 70 84 70 84 70 170 c 2,7,-1
 70 530 l 2,8,9
 70 616 70 616 116.5 658 c 128,-1,10
 163 700 163 700 250 700 c 2,11,-1
 290 700 l 2,12,13
 377 700 377 700 423.5 658 c 128,-1,14
 470 616 470 616 470 530 c 2,15,-1
 470 170 l 1,16,-1
 470 170 l 1,0,1
383 549 m 2,17,18
 383 579 383 579 360.5 601.5 c 128,-1,19
 338 624 338 624 300 624 c 2,20,-1
 240 624 l 2,21,22
 202 624 202 624 179.5 601.5 c 128,-1,23
 157 579 157 579 157 549 c 2,24,-1
 157 151 l 2,25,26
 157 121 157 121 179.5 98.5 c 128,-1,27
 202 76 202 76 240 76 c 2,28,-1
 300 76 l 2,29,30
 338 76 338 76 360.5 98.5 c 128,-1,31
 383 121 383 121 383 151 c 2,32,-1
 383 549 l 2,17,18
132 807 m 1,33,34
 148 817 148 817 163 824 c 0,35,36
 176 830 176 830 189 835 c 128,-1,37
 202 840 202 840 209 840 c 2,38,-1
 224 840 l 2,39,40
 233 840 233 840 248 834 c 128,-1,41
 263 828 263 828 279.5 820.5 c 128,-1,42
 296 813 296 813 311 806.5 c 128,-1,43
 326 800 326 800 335 800 c 2,44,-1
 345 800 l 2,45,46
 350 800 350 800 361 805.5 c 128,-1,47
 372 811 372 811 383 818 c 0,48,49
 396 826 396 826 412 836 c 1,50,-1
 412 764 l 1,51,52
 397 755 397 755 384 748 c 0,53,54
 373 742 373 742 362 736.5 c 128,-1,55
 351 731 351 731 344 731 c 2,56,-1
 329 731 l 2,57,58
 324 731 324 731 309 737.5 c 128,-1,59
 294 744 294 744 276.5 751.5 c 128,-1,60
 259 759 259 759 243 765 c 128,-1,61
 227 771 227 771 219 771 c 2,62,-1
 209 771 l 2,63,64
 204 771 204 771 191.5 765.5 c 128,-1,65
 179 760 179 760 165 753 c 0,66,67
 149 745 149 745 132 735 c 1,68,-1
 132 807 l 1,33,34
EndSplineSet
Position2: "'cpsp' Capital Spacing in Latin lookup 0 subtable" dx=5 dy=0 dh=10 dv=0
EndChar

StartChar: Scaron
Encoding: 352 352 192
Width: 540
Flags: W
LayerCount: 2
Fore
SplineSet
223 845 m 1,0,-1
 283 778 l 1,1,-1
 343 845 l 1,2,-1
 439 845 l 1,3,-1
 327 730 l 1,4,-1
 239 730 l 1,5,-1
 126 845 l 1,6,-1
 223 845 l 1,0,-1
439 170 m 1,7,8
 439 84 439 84 392.5 42 c 128,-1,9
 346 0 346 0 259 0 c 2,10,-1
 117 0 l 1,11,-1
 117 76 l 1,12,-1
 269 76 l 2,13,14
 307 76 307 76 329.5 98.5 c 128,-1,15
 352 121 352 121 352 151 c 2,16,-1
 352 255 l 2,17,18
 352 284 352 284 337 303 c 128,-1,19
 322 322 322 322 290 322 c 2,20,-1
 260 322 l 2,21,22
 188 322 188 322 144 364 c 128,-1,23
 100 406 100 406 100 492 c 2,24,-1
 100 530 l 2,25,26
 100 616 100 616 146.5 658 c 128,-1,27
 193 700 193 700 280 700 c 2,28,-1
 423 700 l 1,29,-1
 423 624 l 1,30,-1
 270 624 l 2,31,32
 232 624 232 624 209.5 601.5 c 128,-1,33
 187 579 187 579 187 549 c 2,34,-1
 187 473 l 2,35,36
 187 443 187 443 206.5 422 c 128,-1,37
 226 401 226 401 259 401 c 2,38,-1
 289 401 l 2,39,40
 358 401 358 401 398.5 361.5 c 128,-1,41
 439 322 439 322 439 236 c 2,42,-1
 439 170 l 1,43,-1
 439 170 l 1,7,8
EndSplineSet
Position2: "'cpsp' Capital Spacing in Latin lookup 0 subtable" dx=5 dy=0 dh=10 dv=0
EndChar

StartChar: Uacute
Encoding: 218 218 193
Width: 540
Flags: W
LayerCount: 2
Fore
SplineSet
211 726 m 1,0,-1
 315 841 l 1,1,-1
 426 841 l 1,2,-1
 294 726 l 1,3,-1
 211 726 l 1,0,-1
462 170 m 1,4,5
 462 84 462 84 415.5 42 c 128,-1,6
 369 0 369 0 282 0 c 2,7,-1
 257 0 l 2,8,9
 170 0 170 0 123.5 42 c 128,-1,10
 77 84 77 84 77 170 c 2,11,-1
 77 700 l 1,12,-1
 164 700 l 1,13,-1
 164 151 l 2,14,15
 164 121 164 121 186.5 98.5 c 128,-1,16
 209 76 209 76 247 76 c 2,17,-1
 292 76 l 2,18,19
 330 76 330 76 352.5 98.5 c 128,-1,20
 375 121 375 121 375 151 c 2,21,-1
 375 700 l 1,22,-1
 462 700 l 1,23,-1
 462 170 l 1,24,-1
 462 170 l 1,4,5
EndSplineSet
Position2: "'cpsp' Capital Spacing in Latin lookup 0 subtable" dx=5 dy=0 dh=10 dv=0
EndChar

StartChar: Ucircumflex
Encoding: 219 219 194
Width: 540
Flags: W
LayerCount: 2
Fore
SplineSet
334 730 m 1,0,-1
 274 794 l 1,1,-1
 214 730 l 1,2,-1
 118 730 l 1,3,-1
 228 845 l 1,4,-1
 320 845 l 1,5,-1
 431 730 l 1,6,-1
 334 730 l 1,0,-1
462 170 m 1,7,8
 462 84 462 84 415.5 42 c 128,-1,9
 369 0 369 0 282 0 c 2,10,-1
 257 0 l 2,11,12
 170 0 170 0 123.5 42 c 128,-1,13
 77 84 77 84 77 170 c 2,14,-1
 77 700 l 1,15,-1
 164 700 l 1,16,-1
 164 151 l 2,17,18
 164 121 164 121 186.5 98.5 c 128,-1,19
 209 76 209 76 247 76 c 2,20,-1
 292 76 l 2,21,22
 330 76 330 76 352.5 98.5 c 128,-1,23
 375 121 375 121 375 151 c 2,24,-1
 375 700 l 1,25,-1
 462 700 l 1,26,-1
 462 170 l 1,27,-1
 462 170 l 1,7,8
EndSplineSet
Position2: "'cpsp' Capital Spacing in Latin lookup 0 subtable" dx=5 dy=0 dh=10 dv=0
EndChar

StartChar: Udieresis
Encoding: 220 220 195
Width: 540
Flags: W
LayerCount: 2
Fore
SplineSet
329 735 m 1,0,-1
 329 815 l 1,1,-1
 414 815 l 1,2,-1
 414 735 l 1,3,-1
 329 735 l 1,0,-1
129 735 m 1,4,-1
 129 815 l 1,5,-1
 214 815 l 1,6,-1
 214 735 l 1,7,-1
 129 735 l 1,4,-1
462 170 m 1,8,9
 462 84 462 84 415.5 42 c 128,-1,10
 369 0 369 0 282 0 c 2,11,-1
 257 0 l 2,12,13
 170 0 170 0 123.5 42 c 128,-1,14
 77 84 77 84 77 170 c 2,15,-1
 77 700 l 1,16,-1
 164 700 l 1,17,-1
 164 151 l 2,18,19
 164 121 164 121 186.5 98.5 c 128,-1,20
 209 76 209 76 247 76 c 2,21,-1
 292 76 l 2,22,23
 330 76 330 76 352.5 98.5 c 128,-1,24
 375 121 375 121 375 151 c 2,25,-1
 375 700 l 1,26,-1
 462 700 l 1,27,-1
 462 170 l 1,28,-1
 462 170 l 1,8,9
EndSplineSet
Position2: "'cpsp' Capital Spacing in Latin lookup 0 subtable" dx=5 dy=0 dh=10 dv=0
EndChar

StartChar: Ugrave
Encoding: 217 217 196
Width: 540
Flags: W
LayerCount: 2
Fore
SplineSet
248 726 m 1,0,-1
 116 841 l 1,1,-1
 227 841 l 1,2,-1
 331 726 l 1,3,-1
 248 726 l 1,0,-1
462 170 m 1,4,5
 462 84 462 84 415.5 42 c 128,-1,6
 369 0 369 0 282 0 c 2,7,-1
 257 0 l 2,8,9
 170 0 170 0 123.5 42 c 128,-1,10
 77 84 77 84 77 170 c 2,11,-1
 77 700 l 1,12,-1
 164 700 l 1,13,-1
 164 151 l 2,14,15
 164 121 164 121 186.5 98.5 c 128,-1,16
 209 76 209 76 247 76 c 2,17,-1
 292 76 l 2,18,19
 330 76 330 76 352.5 98.5 c 128,-1,20
 375 121 375 121 375 151 c 2,21,-1
 375 700 l 1,22,-1
 462 700 l 1,23,-1
 462 170 l 1,24,-1
 462 170 l 1,4,5
EndSplineSet
Position2: "'cpsp' Capital Spacing in Latin lookup 0 subtable" dx=5 dy=0 dh=10 dv=0
EndChar

StartChar: Yacute
Encoding: 221 221 197
Width: 540
Flags: W
LayerCount: 2
Fore
SplineSet
186 726 m 1,0,-1
 290 841 l 1,1,-1
 401 841 l 1,2,-1
 269 726 l 1,3,-1
 186 726 l 1,0,-1
313 325 m 1,4,-1
 313 0 l 1,5,-1
 223 0 l 1,6,-1
 223 325 l 1,7,-1
 44 700 l 1,8,-1
 140 700 l 1,9,-1
 272 409 l 1,10,-1
 404 700 l 1,11,-1
 495 700 l 1,12,-1
 313 325 l 1,4,-1
EndSplineSet
Position2: "'cpsp' Capital Spacing in Latin lookup 0 subtable" dx=5 dy=0 dh=10 dv=0
EndChar

StartChar: Ydieresis
Encoding: 376 376 198
Width: 540
Flags: W
LayerCount: 2
Fore
SplineSet
313 325 m 1,0,-1
 313 0 l 1,1,-1
 223 0 l 1,2,-1
 223 325 l 1,3,-1
 44 700 l 1,4,-1
 140 700 l 1,5,-1
 272 409 l 1,6,-1
 404 700 l 1,7,-1
 495 700 l 1,8,-1
 313 325 l 1,0,-1
328 735 m 1,9,-1
 328 815 l 1,10,-1
 413 815 l 1,11,-1
 413 735 l 1,12,-1
 328 735 l 1,9,-1
128 735 m 1,13,-1
 128 815 l 1,14,-1
 213 815 l 1,15,-1
 213 735 l 1,16,-1
 128 735 l 1,13,-1
EndSplineSet
Position2: "'cpsp' Capital Spacing in Latin lookup 0 subtable" dx=5 dy=0 dh=10 dv=0
EndChar

StartChar: Zcaron
Encoding: 381 381 199
Width: 540
Flags: W
LayerCount: 2
Fore
SplineSet
226 845 m 1,0,-1
 286 778 l 1,1,-1
 346 845 l 1,2,-1
 442 845 l 1,3,-1
 330 730 l 1,4,-1
 242 730 l 1,5,-1
 129 845 l 1,6,-1
 226 845 l 1,0,-1
178 74 m 1,7,-1
 441 74 l 1,8,-1
 441 0 l 1,9,-1
 87 0 l 1,10,-1
 87 88 l 1,11,-1
 361 626 l 1,12,-1
 110 626 l 1,13,-1
 110 700 l 1,14,-1
 451 700 l 1,15,-1
 451 612 l 1,16,-1
 178 74 l 1,7,-1
EndSplineSet
Position2: "'cpsp' Capital Spacing in Latin lookup 0 subtable" dx=5 dy=0 dh=10 dv=0
EndChar

StartChar: aacute
Encoding: 225 225 200
Width: 540
Flags: W
LayerCount: 2
Fore
SplineSet
417 0 m 2,0,1
 403 0 403 0 388 8 c 128,-1,2
 373 16 373 16 362 30 c 1,3,4
 351 16 351 16 336 8 c 128,-1,5
 321 0 321 0 301 0 c 2,6,-1
 212 0 l 2,7,8
 137 0 137 0 102 30 c 128,-1,9
 67 60 67 60 67 135 c 2,10,-1
 67 155 l 2,11,12
 67 230 67 230 102.5 270 c 128,-1,13
 138 310 138 310 213 310 c 2,14,-1
 337 310 l 1,15,-1
 337 360 l 2,16,17
 337 390 337 390 318.5 407.5 c 128,-1,18
 300 425 300 425 262 425 c 2,19,-1
 107 425 l 1,20,-1
 107 500 l 1,21,-1
 252 500 l 2,22,23
 339 500 339 500 380.5 463 c 128,-1,24
 422 426 422 426 422 340 c 2,25,-1
 422 100 l 2,26,27
 422 85 422 85 433 77.5 c 128,-1,28
 444 70 444 70 472 70 c 1,29,-1
 472 0 l 1,30,-1
 417 0 l 2,0,1
291 75 m 1,31,32
 308 75 308 75 317.5 80 c 128,-1,33
 327 85 327 85 331.5 92.5 c 128,-1,34
 336 100 336 100 336.5 109 c 128,-1,35
 337 118 337 118 337 125 c 2,36,-1
 337 235 l 1,37,-1
 212 235 l 2,38,39
 186 235 186 235 169 218 c 128,-1,40
 152 201 152 201 152 175 c 2,41,-1
 152 125 l 2,42,43
 152 75 152 75 202 75 c 2,44,-1
 291 75 l 1,45,-1
 291 75 l 1,31,32
202 580 m 1,46,-1
 306 715 l 1,47,-1
 410 715 l 1,48,-1
 288 580 l 1,49,-1
 202 580 l 1,46,-1
EndSplineSet
EndChar

StartChar: acircumflex
Encoding: 226 226 201
Width: 540
Flags: W
LayerCount: 2
Fore
SplineSet
417 0 m 2,0,1
 403 0 403 0 388 8 c 128,-1,2
 373 16 373 16 362 30 c 1,3,4
 351 16 351 16 336 8 c 128,-1,5
 321 0 321 0 301 0 c 2,6,-1
 212 0 l 2,7,8
 137 0 137 0 102 30 c 128,-1,9
 67 60 67 60 67 135 c 2,10,-1
 67 155 l 2,11,12
 67 230 67 230 102.5 270 c 128,-1,13
 138 310 138 310 213 310 c 2,14,-1
 337 310 l 1,15,-1
 337 360 l 2,16,17
 337 390 337 390 318.5 407.5 c 128,-1,18
 300 425 300 425 262 425 c 2,19,-1
 107 425 l 1,20,-1
 107 500 l 1,21,-1
 252 500 l 2,22,23
 339 500 339 500 380.5 463 c 128,-1,24
 422 426 422 426 422 340 c 2,25,-1
 422 100 l 2,26,27
 422 85 422 85 433 77.5 c 128,-1,28
 444 70 444 70 472 70 c 1,29,-1
 472 0 l 1,30,-1
 417 0 l 2,0,1
291 75 m 1,31,32
 308 75 308 75 317.5 80 c 128,-1,33
 327 85 327 85 331.5 92.5 c 128,-1,34
 336 100 336 100 336.5 109 c 128,-1,35
 337 118 337 118 337 125 c 2,36,-1
 337 235 l 1,37,-1
 212 235 l 2,38,39
 186 235 186 235 169 218 c 128,-1,40
 152 201 152 201 152 175 c 2,41,-1
 152 125 l 2,42,43
 152 75 152 75 202 75 c 2,44,-1
 291 75 l 1,45,-1
 291 75 l 1,31,32
314 580 m 1,46,-1
 254 655 l 1,47,-1
 194 580 l 1,48,-1
 98 580 l 1,49,-1
 210 715 l 1,50,-1
 298 715 l 1,51,-1
 411 580 l 1,52,-1
 314 580 l 1,46,-1
EndSplineSet
EndChar

StartChar: adieresis
Encoding: 228 228 202
Width: 540
Flags: W
LayerCount: 2
Fore
SplineSet
417 0 m 2,0,1
 403 0 403 0 388 8 c 128,-1,2
 373 16 373 16 362 30 c 1,3,4
 351 16 351 16 336 8 c 128,-1,5
 321 0 321 0 301 0 c 2,6,-1
 212 0 l 2,7,8
 137 0 137 0 102 30 c 128,-1,9
 67 60 67 60 67 135 c 2,10,-1
 67 155 l 2,11,12
 67 230 67 230 102.5 270 c 128,-1,13
 138 310 138 310 213 310 c 2,14,-1
 337 310 l 1,15,-1
 337 360 l 2,16,17
 337 390 337 390 318.5 407.5 c 128,-1,18
 300 425 300 425 262 425 c 2,19,-1
 107 425 l 1,20,-1
 107 500 l 1,21,-1
 252 500 l 2,22,23
 339 500 339 500 380.5 463 c 128,-1,24
 422 426 422 426 422 340 c 2,25,-1
 422 100 l 2,26,27
 422 85 422 85 433 77.5 c 128,-1,28
 444 70 444 70 472 70 c 1,29,-1
 472 0 l 1,30,-1
 417 0 l 2,0,1
291 75 m 1,31,32
 308 75 308 75 317.5 80 c 128,-1,33
 327 85 327 85 331.5 92.5 c 128,-1,34
 336 100 336 100 336.5 109 c 128,-1,35
 337 118 337 118 337 125 c 2,36,-1
 337 235 l 1,37,-1
 212 235 l 2,38,39
 186 235 186 235 169 218 c 128,-1,40
 152 201 152 201 152 175 c 2,41,-1
 152 125 l 2,42,43
 152 75 152 75 202 75 c 2,44,-1
 291 75 l 1,45,-1
 291 75 l 1,31,32
306 595 m 1,46,-1
 306 675 l 1,47,-1
 391 675 l 1,48,-1
 391 595 l 1,49,-1
 306 595 l 1,46,-1
106 595 m 1,50,-1
 106 675 l 1,51,-1
 191 675 l 1,52,-1
 191 595 l 1,53,-1
 106 595 l 1,50,-1
EndSplineSet
EndChar

StartChar: agrave
Encoding: 224 224 203
Width: 540
Flags: W
LayerCount: 2
Fore
SplineSet
417 0 m 2,0,1
 403 0 403 0 388 8 c 128,-1,2
 373 16 373 16 362 30 c 1,3,4
 351 16 351 16 336 8 c 128,-1,5
 321 0 321 0 301 0 c 2,6,-1
 212 0 l 2,7,8
 137 0 137 0 102 30 c 128,-1,9
 67 60 67 60 67 135 c 2,10,-1
 67 155 l 2,11,12
 67 230 67 230 102.5 270 c 128,-1,13
 138 310 138 310 213 310 c 2,14,-1
 337 310 l 1,15,-1
 337 360 l 2,16,17
 337 390 337 390 318.5 407.5 c 128,-1,18
 300 425 300 425 262 425 c 2,19,-1
 107 425 l 1,20,-1
 107 500 l 1,21,-1
 252 500 l 2,22,23
 339 500 339 500 380.5 463 c 128,-1,24
 422 426 422 426 422 340 c 2,25,-1
 422 100 l 2,26,27
 422 85 422 85 433 77.5 c 128,-1,28
 444 70 444 70 472 70 c 1,29,-1
 472 0 l 1,30,-1
 417 0 l 2,0,1
291 75 m 1,31,32
 308 75 308 75 317.5 80 c 128,-1,33
 327 85 327 85 331.5 92.5 c 128,-1,34
 336 100 336 100 336.5 109 c 128,-1,35
 337 118 337 118 337 125 c 2,36,-1
 337 235 l 1,37,-1
 212 235 l 2,38,39
 186 235 186 235 169 218 c 128,-1,40
 152 201 152 201 152 175 c 2,41,-1
 152 125 l 2,42,43
 152 75 152 75 202 75 c 2,44,-1
 291 75 l 1,45,-1
 291 75 l 1,31,32
256 580 m 1,46,-1
 134 715 l 1,47,-1
 238 715 l 1,48,-1
 342 580 l 1,49,-1
 256 580 l 1,46,-1
EndSplineSet
EndChar

StartChar: aring
Encoding: 229 229 204
Width: 540
Flags: W
LayerCount: 2
Fore
SplineSet
344 633 m 1,0,1
 344 590 344 590 318.5 569 c 128,-1,2
 293 548 293 548 255 548 c 2,3,-1
 249 548 l 2,4,5
 211 548 211 548 185.5 569 c 128,-1,6
 160 590 160 590 160 633 c 2,7,-1
 160 662 l 2,8,9
 160 706 160 706 185.5 726.5 c 128,-1,10
 211 747 211 747 249 747 c 2,11,-1
 255 747 l 2,12,13
 293 747 293 747 318.5 726.5 c 128,-1,14
 344 706 344 706 344 662 c 2,15,-1
 344 633 l 1,16,-1
 344 633 l 1,0,1
287 663 m 2,17,18
 287 678 287 678 280.5 689.5 c 128,-1,19
 274 701 274 701 255 701 c 2,20,-1
 249 701 l 2,21,22
 230 701 230 701 222.5 689.5 c 128,-1,23
 215 678 215 678 215 663 c 2,24,-1
 215 632 l 2,25,26
 215 617 215 617 222.5 605.5 c 128,-1,27
 230 594 230 594 249 594 c 2,28,-1
 255 594 l 2,29,30
 274 594 274 594 280.5 605.5 c 128,-1,31
 287 617 287 617 287 632 c 2,32,-1
 287 663 l 2,17,18
417 0 m 2,33,34
 403 0 403 0 388 8 c 128,-1,35
 373 16 373 16 362 30 c 1,36,37
 351 16 351 16 336 8 c 128,-1,38
 321 0 321 0 301 0 c 2,39,-1
 212 0 l 2,40,41
 137 0 137 0 102 30 c 128,-1,42
 67 60 67 60 67 135 c 2,43,-1
 67 155 l 2,44,45
 67 230 67 230 102.5 270 c 128,-1,46
 138 310 138 310 213 310 c 2,47,-1
 337 310 l 1,48,-1
 337 360 l 2,49,50
 337 390 337 390 318.5 407.5 c 128,-1,51
 300 425 300 425 262 425 c 2,52,-1
 107 425 l 1,53,-1
 107 500 l 1,54,-1
 252 500 l 2,55,56
 339 500 339 500 380.5 463 c 128,-1,57
 422 426 422 426 422 340 c 2,58,-1
 422 100 l 2,59,60
 422 85 422 85 433 77.5 c 128,-1,61
 444 70 444 70 472 70 c 1,62,-1
 472 0 l 1,63,-1
 417 0 l 2,33,34
291 75 m 1,64,65
 308 75 308 75 317.5 80 c 128,-1,66
 327 85 327 85 331.5 92.5 c 128,-1,67
 336 100 336 100 336.5 109 c 128,-1,68
 337 118 337 118 337 125 c 2,69,-1
 337 235 l 1,70,-1
 212 235 l 2,71,72
 186 235 186 235 169 218 c 128,-1,73
 152 201 152 201 152 175 c 2,74,-1
 152 125 l 2,75,76
 152 75 152 75 202 75 c 2,77,-1
 291 75 l 1,78,-1
 291 75 l 1,64,65
EndSplineSet
EndChar

StartChar: atilde
Encoding: 227 227 205
Width: 540
Flags: W
LayerCount: 2
Fore
SplineSet
417 0 m 2,0,1
 403 0 403 0 388 8 c 128,-1,2
 373 16 373 16 362 30 c 1,3,4
 351 16 351 16 336 8 c 128,-1,5
 321 0 321 0 301 0 c 2,6,-1
 212 0 l 2,7,8
 137 0 137 0 102 30 c 128,-1,9
 67 60 67 60 67 135 c 2,10,-1
 67 155 l 2,11,12
 67 230 67 230 102.5 270 c 128,-1,13
 138 310 138 310 213 310 c 2,14,-1
 337 310 l 1,15,-1
 337 360 l 2,16,17
 337 390 337 390 318.5 407.5 c 128,-1,18
 300 425 300 425 262 425 c 2,19,-1
 107 425 l 1,20,-1
 107 500 l 1,21,-1
 252 500 l 2,22,23
 339 500 339 500 380.5 463 c 128,-1,24
 422 426 422 426 422 340 c 2,25,-1
 422 100 l 2,26,27
 422 85 422 85 433 77.5 c 128,-1,28
 444 70 444 70 472 70 c 1,29,-1
 472 0 l 1,30,-1
 417 0 l 2,0,1
291 75 m 1,31,32
 308 75 308 75 317.5 80 c 128,-1,33
 327 85 327 85 331.5 92.5 c 128,-1,34
 336 100 336 100 336.5 109 c 128,-1,35
 337 118 337 118 337 125 c 2,36,-1
 337 235 l 1,37,-1
 212 235 l 2,38,39
 186 235 186 235 169 218 c 128,-1,40
 152 201 152 201 152 175 c 2,41,-1
 152 125 l 2,42,43
 152 75 152 75 202 75 c 2,44,-1
 291 75 l 1,45,-1
 291 75 l 1,31,32
106 667 m 1,46,47
 122 677 122 677 137 684 c 0,48,49
 150 690 150 690 163 695 c 128,-1,50
 176 700 176 700 183 700 c 2,51,-1
 198 700 l 2,52,53
 207 700 207 700 222 694 c 128,-1,54
 237 688 237 688 253.5 680.5 c 128,-1,55
 270 673 270 673 285 666.5 c 128,-1,56
 300 660 300 660 309 660 c 2,57,-1
 319 660 l 2,58,59
 324 660 324 660 335 665.5 c 128,-1,60
 346 671 346 671 357 678 c 0,61,62
 370 686 370 686 386 696 c 1,63,-1
 386 624 l 1,64,65
 371 615 371 615 358 608 c 0,66,67
 347 602 347 602 336 596.5 c 128,-1,68
 325 591 325 591 318 591 c 2,69,-1
 303 591 l 2,70,71
 298 591 298 591 283 597.5 c 128,-1,72
 268 604 268 604 250.5 611.5 c 128,-1,73
 233 619 233 619 217 625 c 128,-1,74
 201 631 201 631 193 631 c 2,75,-1
 183 631 l 2,76,77
 178 631 178 631 165.5 625.5 c 128,-1,78
 153 620 153 620 139 613 c 0,79,80
 123 605 123 605 106 595 c 1,81,-1
 106 667 l 1,46,47
EndSplineSet
EndChar

StartChar: ccedilla
Encoding: 231 231 206
Width: 540
Flags: W
LayerCount: 2
Fore
SplineSet
226 -200 m 1,0,-1
 226 -136 l 1,1,-1
 293 -136 l 2,2,3
 326 -136 326 -136 326 -105 c 0,4,5
 326 -88 326 -88 317 -82 c 128,-1,6
 308 -76 308 -76 291 -76 c 2,7,-1
 242 -76 l 1,8,-1
 242 3 l 1,9,10
 180 12 180 12 150 49 c 128,-1,11
 120 86 120 86 120 160 c 2,12,-1
 120 340 l 2,13,14
 120 426 120 426 161.5 463 c 128,-1,15
 203 500 203 500 290 500 c 2,16,-1
 419 500 l 1,17,-1
 419 425 l 1,18,-1
 280 425 l 2,19,20
 242 425 242 425 223.5 407.5 c 128,-1,21
 205 390 205 390 205 360 c 2,22,-1
 205 140 l 2,23,24
 205 110 205 110 223.5 92.5 c 128,-1,25
 242 75 242 75 280 75 c 2,26,-1
 419 75 l 1,27,-1
 419 0 l 1,28,-1
 312 0 l 1,29,-1
 312 -21 l 1,30,31
 356 -21 356 -21 377.5 -37 c 128,-1,32
 399 -53 399 -53 399 -105 c 0,33,34
 399 -138 399 -138 390 -157 c 128,-1,35
 381 -176 381 -176 368 -185.5 c 128,-1,36
 355 -195 355 -195 339.5 -197.5 c 128,-1,37
 324 -200 324 -200 311 -200 c 2,38,-1
 226 -200 l 1,0,-1
EndSplineSet
EndChar

StartChar: eacute
Encoding: 233 233 207
Width: 540
Flags: W
LayerCount: 2
Fore
SplineSet
264 0 m 2,0,1
 177 0 177 0 135.5 36.5 c 128,-1,2
 94 73 94 73 94 160 c 2,3,-1
 94 340 l 2,4,5
 94 426 94 426 131 463 c 128,-1,6
 168 500 168 500 254 500 c 2,7,-1
 301 500 l 2,8,9
 373 500 373 500 409 460 c 128,-1,10
 445 420 445 420 445 345 c 2,11,-1
 445 215 l 1,12,-1
 179 215 l 1,13,-1
 179 140 l 2,14,15
 179 110 179 110 197.5 92.5 c 128,-1,16
 216 75 216 75 254 75 c 2,17,-1
 413 75 l 1,18,-1
 413 0 l 1,19,-1
 264 0 l 2,0,1
179 290 m 1,20,-1
 362 290 l 1,21,-1
 362 365 l 2,22,23
 362 391 362 391 345 408 c 128,-1,24
 328 425 328 425 302 425 c 2,25,-1
 244 425 l 2,26,27
 206 425 206 425 192.5 407.5 c 128,-1,28
 179 390 179 390 179 360 c 2,29,-1
 179 290 l 1,20,-1
218 580 m 1,30,-1
 322 715 l 1,31,-1
 426 715 l 1,32,-1
 304 580 l 1,33,-1
 218 580 l 1,30,-1
EndSplineSet
EndChar

StartChar: ecircumflex
Encoding: 234 234 208
Width: 540
Flags: W
LayerCount: 2
Fore
SplineSet
264 0 m 2,0,1
 177 0 177 0 135.5 36.5 c 128,-1,2
 94 73 94 73 94 160 c 2,3,-1
 94 340 l 2,4,5
 94 426 94 426 131 463 c 128,-1,6
 168 500 168 500 254 500 c 2,7,-1
 301 500 l 2,8,9
 373 500 373 500 409 460 c 128,-1,10
 445 420 445 420 445 345 c 2,11,-1
 445 215 l 1,12,-1
 179 215 l 1,13,-1
 179 140 l 2,14,15
 179 110 179 110 197.5 92.5 c 128,-1,16
 216 75 216 75 254 75 c 2,17,-1
 413 75 l 1,18,-1
 413 0 l 1,19,-1
 264 0 l 2,0,1
179 290 m 1,20,-1
 362 290 l 1,21,-1
 362 365 l 2,22,23
 362 391 362 391 345 408 c 128,-1,24
 328 425 328 425 302 425 c 2,25,-1
 244 425 l 2,26,27
 206 425 206 425 192.5 407.5 c 128,-1,28
 179 390 179 390 179 360 c 2,29,-1
 179 290 l 1,20,-1
331 580 m 1,30,-1
 271 655 l 1,31,-1
 211 580 l 1,32,-1
 115 580 l 1,33,-1
 227 715 l 1,34,-1
 315 715 l 1,35,-1
 428 580 l 1,36,-1
 331 580 l 1,30,-1
EndSplineSet
EndChar

StartChar: edieresis
Encoding: 235 235 209
Width: 540
Flags: W
LayerCount: 2
Fore
SplineSet
264 0 m 2,0,1
 177 0 177 0 135.5 36.5 c 128,-1,2
 94 73 94 73 94 160 c 2,3,-1
 94 340 l 2,4,5
 94 426 94 426 131 463 c 128,-1,6
 168 500 168 500 254 500 c 2,7,-1
 301 500 l 2,8,9
 373 500 373 500 409 460 c 128,-1,10
 445 420 445 420 445 345 c 2,11,-1
 445 215 l 1,12,-1
 179 215 l 1,13,-1
 179 140 l 2,14,15
 179 110 179 110 197.5 92.5 c 128,-1,16
 216 75 216 75 254 75 c 2,17,-1
 413 75 l 1,18,-1
 413 0 l 1,19,-1
 264 0 l 2,0,1
179 290 m 1,20,-1
 362 290 l 1,21,-1
 362 365 l 2,22,23
 362 391 362 391 345 408 c 128,-1,24
 328 425 328 425 302 425 c 2,25,-1
 244 425 l 2,26,27
 206 425 206 425 192.5 407.5 c 128,-1,28
 179 390 179 390 179 360 c 2,29,-1
 179 290 l 1,20,-1
333 595 m 1,30,-1
 333 675 l 1,31,-1
 418 675 l 1,32,-1
 418 595 l 1,33,-1
 333 595 l 1,30,-1
133 595 m 1,34,-1
 133 675 l 1,35,-1
 218 675 l 1,36,-1
 218 595 l 1,37,-1
 133 595 l 1,34,-1
EndSplineSet
EndChar

StartChar: egrave
Encoding: 232 232 210
Width: 540
Flags: W
LayerCount: 2
Fore
SplineSet
264 0 m 2,0,1
 177 0 177 0 135.5 36.5 c 128,-1,2
 94 73 94 73 94 160 c 2,3,-1
 94 340 l 2,4,5
 94 426 94 426 131 463 c 128,-1,6
 168 500 168 500 254 500 c 2,7,-1
 301 500 l 2,8,9
 373 500 373 500 409 460 c 128,-1,10
 445 420 445 420 445 345 c 2,11,-1
 445 215 l 1,12,-1
 179 215 l 1,13,-1
 179 140 l 2,14,15
 179 110 179 110 197.5 92.5 c 128,-1,16
 216 75 216 75 254 75 c 2,17,-1
 413 75 l 1,18,-1
 413 0 l 1,19,-1
 264 0 l 2,0,1
179 290 m 1,20,-1
 362 290 l 1,21,-1
 362 365 l 2,22,23
 362 391 362 391 345 408 c 128,-1,24
 328 425 328 425 302 425 c 2,25,-1
 244 425 l 2,26,27
 206 425 206 425 192.5 407.5 c 128,-1,28
 179 390 179 390 179 360 c 2,29,-1
 179 290 l 1,20,-1
279 580 m 1,30,-1
 157 715 l 1,31,-1
 261 715 l 1,32,-1
 365 580 l 1,33,-1
 279 580 l 1,30,-1
EndSplineSet
EndChar

StartChar: iacute
Encoding: 237 237 211
Width: 540
Flags: W
LayerCount: 2
Fore
SplineSet
205 580 m 1,0,-1
 309 715 l 1,1,-1
 413 715 l 1,2,-1
 291 580 l 1,3,-1
 205 580 l 1,0,-1
227 0 m 1,4,-1
 227 425 l 1,5,-1
 80 425 l 1,6,-1
 80 500 l 1,7,-1
 312 500 l 1,8,-1
 312 75 l 1,9,-1
 460 75 l 1,10,-1
 460 0 l 1,11,-1
 227 0 l 1,4,-1
EndSplineSet
EndChar

StartChar: icircumflex
Encoding: 238 238 212
Width: 540
Flags: W
LayerCount: 2
Fore
SplineSet
333 580 m 1,0,-1
 273 655 l 1,1,-1
 213 580 l 1,2,-1
 117 580 l 1,3,-1
 229 715 l 1,4,-1
 317 715 l 1,5,-1
 430 580 l 1,6,-1
 333 580 l 1,0,-1
227 0 m 1,7,-1
 227 425 l 1,8,-1
 80 425 l 1,9,-1
 80 500 l 1,10,-1
 312 500 l 1,11,-1
 312 75 l 1,12,-1
 460 75 l 1,13,-1
 460 0 l 1,14,-1
 227 0 l 1,7,-1
EndSplineSet
EndChar

StartChar: idieresis
Encoding: 239 239 213
Width: 540
Flags: W
LayerCount: 2
Fore
SplineSet
328 595 m 1,0,-1
 328 675 l 1,1,-1
 413 675 l 1,2,-1
 413 595 l 1,3,-1
 328 595 l 1,0,-1
128 595 m 1,4,-1
 128 675 l 1,5,-1
 213 675 l 1,6,-1
 213 595 l 1,7,-1
 128 595 l 1,4,-1
227 0 m 1,8,-1
 227 425 l 1,9,-1
 80 425 l 1,10,-1
 80 500 l 1,11,-1
 312 500 l 1,12,-1
 312 75 l 1,13,-1
 460 75 l 1,14,-1
 460 0 l 1,15,-1
 227 0 l 1,8,-1
EndSplineSet
EndChar

StartChar: igrave
Encoding: 236 236 214
Width: 540
Flags: W
LayerCount: 2
Fore
SplineSet
271 580 m 1,0,-1
 149 715 l 1,1,-1
 253 715 l 1,2,-1
 357 580 l 1,3,-1
 271 580 l 1,0,-1
227 0 m 1,4,-1
 227 425 l 1,5,-1
 80 425 l 1,6,-1
 80 500 l 1,7,-1
 312 500 l 1,8,-1
 312 75 l 1,9,-1
 460 75 l 1,10,-1
 460 0 l 1,11,-1
 227 0 l 1,4,-1
EndSplineSet
EndChar

StartChar: ntilde
Encoding: 241 241 215
Width: 540
Flags: W
LayerCount: 2
Fore
SplineSet
87 0 m 1,0,-1
 87 500 l 1,1,-1
 167 500 l 1,2,-1
 167 476 l 1,3,4
 184 489 184 489 204 494.5 c 128,-1,5
 224 500 224 500 247 500 c 2,6,-1
 293 500 l 2,7,8
 372 500 372 500 412.5 463.5 c 128,-1,9
 453 427 453 427 453 340 c 2,10,-1
 453 0 l 1,11,-1
 368 0 l 1,12,-1
 368 360 l 2,13,14
 368 390 368 390 350.5 407.5 c 128,-1,15
 333 425 333 425 303 425 c 2,16,-1
 237 425 l 2,17,18
 218 425 218 425 205.5 419 c 128,-1,19
 193 413 193 413 185.5 405 c 128,-1,20
 178 397 178 397 175 387.5 c 128,-1,21
 172 378 172 378 172 370 c 2,22,-1
 172 0 l 1,23,-1
 87 0 l 1,0,-1
137 667 m 1,24,25
 153 677 153 677 168 684 c 0,26,27
 181 690 181 690 194 695 c 128,-1,28
 207 700 207 700 214 700 c 2,29,-1
 229 700 l 2,30,31
 238 700 238 700 253 694 c 128,-1,32
 268 688 268 688 284.5 680.5 c 128,-1,33
 301 673 301 673 316 666.5 c 128,-1,34
 331 660 331 660 340 660 c 2,35,-1
 350 660 l 2,36,37
 355 660 355 660 366 665.5 c 128,-1,38
 377 671 377 671 388 678 c 0,39,40
 401 686 401 686 417 696 c 1,41,-1
 417 624 l 1,42,43
 402 615 402 615 389 608 c 0,44,45
 378 602 378 602 367 596.5 c 128,-1,46
 356 591 356 591 349 591 c 2,47,-1
 334 591 l 2,48,49
 329 591 329 591 314 597.5 c 128,-1,50
 299 604 299 604 281.5 611.5 c 128,-1,51
 264 619 264 619 248 625 c 128,-1,52
 232 631 232 631 224 631 c 2,53,-1
 214 631 l 2,54,55
 209 631 209 631 196.5 625.5 c 128,-1,56
 184 620 184 620 170 613 c 0,57,58
 154 605 154 605 137 595 c 1,59,-1
 137 667 l 1,24,25
EndSplineSet
EndChar

StartChar: oacute
Encoding: 243 243 216
Width: 540
Flags: W
LayerCount: 2
Fore
SplineSet
456 160 m 1,0,1
 456 74 456 74 414.5 37 c 128,-1,2
 373 0 373 0 286 0 c 2,3,-1
 253 0 l 2,4,5
 166 0 166 0 124.5 37 c 128,-1,6
 83 74 83 74 83 160 c 2,7,-1
 83 340 l 2,8,9
 83 426 83 426 124.5 463 c 128,-1,10
 166 500 166 500 253 500 c 2,11,-1
 286 500 l 2,12,13
 373 500 373 500 414.5 463 c 128,-1,14
 456 426 456 426 456 340 c 2,15,-1
 456 160 l 1,16,-1
 456 160 l 1,0,1
371 360 m 2,17,18
 371 390 371 390 352.5 407.5 c 128,-1,19
 334 425 334 425 296 425 c 2,20,-1
 243 425 l 2,21,22
 205 425 205 425 186.5 407.5 c 128,-1,23
 168 390 168 390 168 360 c 2,24,-1
 168 140 l 2,25,26
 168 110 168 110 186.5 92.5 c 128,-1,27
 205 75 205 75 243 75 c 2,28,-1
 296 75 l 2,29,30
 334 75 334 75 352.5 92.5 c 128,-1,31
 371 110 371 110 371 140 c 2,32,-1
 371 360 l 2,17,18
169 580 m 1,33,-1
 273 715 l 1,34,-1
 377 715 l 1,35,-1
 255 580 l 1,36,-1
 169 580 l 1,33,-1
EndSplineSet
EndChar

StartChar: ocircumflex
Encoding: 244 244 217
Width: 540
Flags: W
LayerCount: 2
Fore
SplineSet
456 160 m 1,0,1
 456 74 456 74 414.5 37 c 128,-1,2
 373 0 373 0 286 0 c 2,3,-1
 253 0 l 2,4,5
 166 0 166 0 124.5 37 c 128,-1,6
 83 74 83 74 83 160 c 2,7,-1
 83 340 l 2,8,9
 83 426 83 426 124.5 463 c 128,-1,10
 166 500 166 500 253 500 c 2,11,-1
 286 500 l 2,12,13
 373 500 373 500 414.5 463 c 128,-1,14
 456 426 456 426 456 340 c 2,15,-1
 456 160 l 1,16,-1
 456 160 l 1,0,1
371 360 m 2,17,18
 371 390 371 390 352.5 407.5 c 128,-1,19
 334 425 334 425 296 425 c 2,20,-1
 243 425 l 2,21,22
 205 425 205 425 186.5 407.5 c 128,-1,23
 168 390 168 390 168 360 c 2,24,-1
 168 140 l 2,25,26
 168 110 168 110 186.5 92.5 c 128,-1,27
 205 75 205 75 243 75 c 2,28,-1
 296 75 l 2,29,30
 334 75 334 75 352.5 92.5 c 128,-1,31
 371 110 371 110 371 140 c 2,32,-1
 371 360 l 2,17,18
330 580 m 1,33,-1
 270 655 l 1,34,-1
 210 580 l 1,35,-1
 114 580 l 1,36,-1
 226 715 l 1,37,-1
 314 715 l 1,38,-1
 427 580 l 1,39,-1
 330 580 l 1,33,-1
EndSplineSet
EndChar

StartChar: odieresis
Encoding: 246 246 218
Width: 540
Flags: W
LayerCount: 2
Fore
SplineSet
456 160 m 1,0,1
 456 74 456 74 414.5 37 c 128,-1,2
 373 0 373 0 286 0 c 2,3,-1
 253 0 l 2,4,5
 166 0 166 0 124.5 37 c 128,-1,6
 83 74 83 74 83 160 c 2,7,-1
 83 340 l 2,8,9
 83 426 83 426 124.5 463 c 128,-1,10
 166 500 166 500 253 500 c 2,11,-1
 286 500 l 2,12,13
 373 500 373 500 414.5 463 c 128,-1,14
 456 426 456 426 456 340 c 2,15,-1
 456 160 l 1,16,-1
 456 160 l 1,0,1
371 360 m 2,17,18
 371 390 371 390 352.5 407.5 c 128,-1,19
 334 425 334 425 296 425 c 2,20,-1
 243 425 l 2,21,22
 205 425 205 425 186.5 407.5 c 128,-1,23
 168 390 168 390 168 360 c 2,24,-1
 168 140 l 2,25,26
 168 110 168 110 186.5 92.5 c 128,-1,27
 205 75 205 75 243 75 c 2,28,-1
 296 75 l 2,29,30
 334 75 334 75 352.5 92.5 c 128,-1,31
 371 110 371 110 371 140 c 2,32,-1
 371 360 l 2,17,18
328 595 m 1,33,-1
 328 675 l 1,34,-1
 413 675 l 1,35,-1
 413 595 l 1,36,-1
 328 595 l 1,33,-1
128 595 m 1,37,-1
 128 675 l 1,38,-1
 213 675 l 1,39,-1
 213 595 l 1,40,-1
 128 595 l 1,37,-1
EndSplineSet
EndChar

StartChar: ograve
Encoding: 242 242 219
Width: 540
Flags: W
LayerCount: 2
Fore
SplineSet
452 160 m 1,0,1
 452 74 452 74 410.5 37 c 128,-1,2
 369 0 369 0 282 0 c 2,3,-1
 249 0 l 2,4,5
 162 0 162 0 120.5 37 c 128,-1,6
 79 74 79 74 79 160 c 2,7,-1
 79 340 l 2,8,9
 79 426 79 426 120.5 463 c 128,-1,10
 162 500 162 500 249 500 c 2,11,-1
 282 500 l 2,12,13
 369 500 369 500 410.5 463 c 128,-1,14
 452 426 452 426 452 340 c 2,15,-1
 452 160 l 1,16,-1
 452 160 l 1,0,1
367 360 m 2,17,18
 367 390 367 390 348.5 407.5 c 128,-1,19
 330 425 330 425 292 425 c 2,20,-1
 239 425 l 2,21,22
 201 425 201 425 182.5 407.5 c 128,-1,23
 164 390 164 390 164 360 c 2,24,-1
 164 140 l 2,25,26
 164 110 164 110 182.5 92.5 c 128,-1,27
 201 75 201 75 239 75 c 2,28,-1
 292 75 l 2,29,30
 330 75 330 75 348.5 92.5 c 128,-1,31
 367 110 367 110 367 140 c 2,32,-1
 367 360 l 2,17,18
279 580 m 1,33,-1
 157 715 l 1,34,-1
 261 715 l 1,35,-1
 365 580 l 1,36,-1
 279 580 l 1,33,-1
EndSplineSet
EndChar

StartChar: otilde
Encoding: 245 245 220
Width: 540
Flags: W
LayerCount: 2
Fore
SplineSet
456 160 m 1,0,1
 456 74 456 74 414.5 37 c 128,-1,2
 373 0 373 0 286 0 c 2,3,-1
 253 0 l 2,4,5
 166 0 166 0 124.5 37 c 128,-1,6
 83 74 83 74 83 160 c 2,7,-1
 83 340 l 2,8,9
 83 426 83 426 124.5 463 c 128,-1,10
 166 500 166 500 253 500 c 2,11,-1
 286 500 l 2,12,13
 373 500 373 500 414.5 463 c 128,-1,14
 456 426 456 426 456 340 c 2,15,-1
 456 160 l 1,16,-1
 456 160 l 1,0,1
371 360 m 2,17,18
 371 390 371 390 352.5 407.5 c 128,-1,19
 334 425 334 425 296 425 c 2,20,-1
 243 425 l 2,21,22
 205 425 205 425 186.5 407.5 c 128,-1,23
 168 390 168 390 168 360 c 2,24,-1
 168 140 l 2,25,26
 168 110 168 110 186.5 92.5 c 128,-1,27
 205 75 205 75 243 75 c 2,28,-1
 296 75 l 2,29,30
 334 75 334 75 352.5 92.5 c 128,-1,31
 371 110 371 110 371 140 c 2,32,-1
 371 360 l 2,17,18
130 667 m 1,33,34
 146 677 146 677 161 684 c 0,35,36
 174 690 174 690 187 695 c 128,-1,37
 200 700 200 700 207 700 c 2,38,-1
 222 700 l 2,39,40
 231 700 231 700 246 694 c 128,-1,41
 261 688 261 688 277.5 680.5 c 128,-1,42
 294 673 294 673 309 666.5 c 128,-1,43
 324 660 324 660 333 660 c 2,44,-1
 343 660 l 2,45,46
 348 660 348 660 359 665.5 c 128,-1,47
 370 671 370 671 381 678 c 0,48,49
 394 686 394 686 410 696 c 1,50,-1
 410 624 l 1,51,52
 395 615 395 615 382 608 c 0,53,54
 371 602 371 602 360 596.5 c 128,-1,55
 349 591 349 591 342 591 c 2,56,-1
 327 591 l 2,57,58
 322 591 322 591 307 597.5 c 128,-1,59
 292 604 292 604 274.5 611.5 c 128,-1,60
 257 619 257 619 241 625 c 128,-1,61
 225 631 225 631 217 631 c 2,62,-1
 207 631 l 2,63,64
 202 631 202 631 189.5 625.5 c 128,-1,65
 177 620 177 620 163 613 c 0,66,67
 147 605 147 605 130 595 c 1,68,-1
 130 667 l 1,33,34
EndSplineSet
EndChar

StartChar: scaron
Encoding: 353 353 221
Width: 540
Flags: W
LayerCount: 2
Fore
SplineSet
415 125 m 1,0,1
 415 60 415 60 376 30 c 128,-1,2
 337 0 337 0 265 0 c 2,3,-1
 116 0 l 1,4,-1
 116 75 l 1,5,-1
 275 75 l 2,6,7
 330 75 330 75 330 120 c 2,8,-1
 330 173 l 2,9,10
 330 218 330 218 287 218 c 2,11,-1
 250 218 l 2,12,13
 181 218 181 218 146 247.5 c 128,-1,14
 111 277 111 277 111 345 c 2,15,-1
 111 374 l 2,16,17
 111 444 111 444 150 472 c 128,-1,18
 189 500 189 500 261 500 c 2,19,-1
 395 500 l 1,20,-1
 395 425 l 1,21,-1
 251 425 l 2,22,23
 227 425 227 425 211.5 414 c 128,-1,24
 196 403 196 403 196 380 c 2,25,-1
 196 344 l 2,26,27
 196 320 196 320 210.5 309.5 c 128,-1,28
 225 299 225 299 244 299 c 2,29,-1
 278 299 l 2,30,31
 345 299 345 299 380 266.5 c 128,-1,32
 415 234 415 234 415 170 c 2,33,-1
 415 125 l 1,34,-1
 415 125 l 1,0,1
216 714 m 1,35,-1
 276 639 l 1,36,-1
 336 714 l 1,37,-1
 432 714 l 1,38,-1
 320 579 l 1,39,-1
 232 579 l 1,40,-1
 119 714 l 1,41,-1
 216 714 l 1,35,-1
EndSplineSet
EndChar

StartChar: uacute
Encoding: 250 250 222
Width: 540
Flags: W
LayerCount: 2
Fore
SplineSet
367 0 m 1,0,-1
 367 23 l 1,1,2
 334 0 334 0 287 0 c 2,3,-1
 253 0 l 2,4,5
 174 0 174 0 133.5 36.5 c 128,-1,6
 93 73 93 73 93 160 c 2,7,-1
 93 500 l 1,8,-1
 178 500 l 1,9,-1
 178 140 l 2,10,11
 178 110 178 110 195.5 92.5 c 128,-1,12
 213 75 213 75 243 75 c 2,13,-1
 297 75 l 2,14,15
 315 75 315 75 327 80 c 128,-1,16
 339 85 339 85 346.5 93 c 128,-1,17
 354 101 354 101 357.5 110 c 128,-1,18
 361 119 361 119 362 127 c 1,19,-1
 362 500 l 1,20,-1
 447 500 l 1,21,-1
 447 0 l 1,22,-1
 367 0 l 1,0,-1
217 580 m 1,23,-1
 321 715 l 1,24,-1
 425 715 l 1,25,-1
 303 580 l 1,26,-1
 217 580 l 1,23,-1
EndSplineSet
EndChar

StartChar: ucircumflex
Encoding: 251 251 223
Width: 540
Flags: W
LayerCount: 2
Fore
SplineSet
367 0 m 1,0,-1
 367 23 l 1,1,2
 334 0 334 0 287 0 c 2,3,-1
 253 0 l 2,4,5
 174 0 174 0 133.5 36.5 c 128,-1,6
 93 73 93 73 93 160 c 2,7,-1
 93 500 l 1,8,-1
 178 500 l 1,9,-1
 178 140 l 2,10,11
 178 110 178 110 195.5 92.5 c 128,-1,12
 213 75 213 75 243 75 c 2,13,-1
 297 75 l 2,14,15
 315 75 315 75 327 80 c 128,-1,16
 339 85 339 85 346.5 93 c 128,-1,17
 354 101 354 101 357.5 110 c 128,-1,18
 361 119 361 119 362 127 c 1,19,-1
 362 500 l 1,20,-1
 447 500 l 1,21,-1
 447 0 l 1,22,-1
 367 0 l 1,0,-1
329 580 m 1,23,-1
 269 655 l 1,24,-1
 209 580 l 1,25,-1
 113 580 l 1,26,-1
 225 715 l 1,27,-1
 313 715 l 1,28,-1
 426 580 l 1,29,-1
 329 580 l 1,23,-1
EndSplineSet
EndChar

StartChar: udieresis
Encoding: 252 252 224
Width: 540
Flags: W
LayerCount: 2
Fore
SplineSet
367 0 m 1,0,-1
 367 23 l 1,1,2
 334 0 334 0 287 0 c 2,3,-1
 253 0 l 2,4,5
 174 0 174 0 133.5 36.5 c 128,-1,6
 93 73 93 73 93 160 c 2,7,-1
 93 500 l 1,8,-1
 178 500 l 1,9,-1
 178 140 l 2,10,11
 178 110 178 110 195.5 92.5 c 128,-1,12
 213 75 213 75 243 75 c 2,13,-1
 297 75 l 2,14,15
 315 75 315 75 327 80 c 128,-1,16
 339 85 339 85 346.5 93 c 128,-1,17
 354 101 354 101 357.5 110 c 128,-1,18
 361 119 361 119 362 127 c 1,19,-1
 362 500 l 1,20,-1
 447 500 l 1,21,-1
 447 0 l 1,22,-1
 367 0 l 1,0,-1
325 595 m 1,23,-1
 325 675 l 1,24,-1
 410 675 l 1,25,-1
 410 595 l 1,26,-1
 325 595 l 1,23,-1
125 595 m 1,27,-1
 125 675 l 1,28,-1
 210 675 l 1,29,-1
 210 595 l 1,30,-1
 125 595 l 1,27,-1
EndSplineSet
EndChar

StartChar: ugrave
Encoding: 249 249 225
Width: 540
Flags: W
LayerCount: 2
Fore
SplineSet
367 0 m 1,0,-1
 367 23 l 1,1,2
 334 0 334 0 287 0 c 2,3,-1
 253 0 l 2,4,5
 174 0 174 0 133.5 36.5 c 128,-1,6
 93 73 93 73 93 160 c 2,7,-1
 93 500 l 1,8,-1
 178 500 l 1,9,-1
 178 140 l 2,10,11
 178 110 178 110 195.5 92.5 c 128,-1,12
 213 75 213 75 243 75 c 2,13,-1
 297 75 l 2,14,15
 315 75 315 75 327 80 c 128,-1,16
 339 85 339 85 346.5 93 c 128,-1,17
 354 101 354 101 357.5 110 c 128,-1,18
 361 119 361 119 362 127 c 1,19,-1
 362 500 l 1,20,-1
 447 500 l 1,21,-1
 447 0 l 1,22,-1
 367 0 l 1,0,-1
257 580 m 1,23,-1
 135 715 l 1,24,-1
 239 715 l 1,25,-1
 343 580 l 1,26,-1
 257 580 l 1,23,-1
EndSplineSet
EndChar

StartChar: yacute
Encoding: 253 253 226
Width: 540
Flags: W
LayerCount: 2
Fore
SplineSet
180 -95 m 2,0,1
 203 -95 203 -95 215.5 -86.5 c 128,-1,2
 228 -78 228 -78 234 -55 c 2,3,-1
 248 0 l 1,4,-1
 228 0 l 1,5,-1
 63 500 l 1,6,-1
 155 500 l 1,7,-1
 280 81 l 1,8,-1
 389 500 l 1,9,-1
 476 500 l 1,10,-1
 321 -54 l 1,11,12
 311 -94 311 -94 297.5 -117 c 128,-1,13
 284 -140 284 -140 267 -152 c 128,-1,14
 250 -164 250 -164 230 -167 c 128,-1,15
 210 -170 210 -170 186 -170 c 2,16,-1
 138 -170 l 1,17,-1
 138 -95 l 1,18,-1
 180 -95 l 2,0,1
195 580 m 1,19,-1
 299 715 l 1,20,-1
 403 715 l 1,21,-1
 281 580 l 1,22,-1
 195 580 l 1,19,-1
EndSplineSet
EndChar

StartChar: ydieresis
Encoding: 255 255 227
Width: 540
Flags: W
LayerCount: 2
Fore
SplineSet
180 -95 m 2,0,1
 203 -95 203 -95 215.5 -86.5 c 128,-1,2
 228 -78 228 -78 234 -55 c 2,3,-1
 248 0 l 1,4,-1
 228 0 l 1,5,-1
 63 500 l 1,6,-1
 155 500 l 1,7,-1
 280 81 l 1,8,-1
 389 500 l 1,9,-1
 476 500 l 1,10,-1
 321 -54 l 1,11,12
 311 -94 311 -94 297.5 -117 c 128,-1,13
 284 -140 284 -140 267 -152 c 128,-1,14
 250 -164 250 -164 230 -167 c 128,-1,15
 210 -170 210 -170 186 -170 c 2,16,-1
 138 -170 l 1,17,-1
 138 -95 l 1,18,-1
 180 -95 l 2,0,1
327 595 m 1,19,-1
 327 675 l 1,20,-1
 412 675 l 1,21,-1
 412 595 l 1,22,-1
 327 595 l 1,19,-1
127 595 m 1,23,-1
 127 675 l 1,24,-1
 212 675 l 1,25,-1
 212 595 l 1,26,-1
 127 595 l 1,23,-1
EndSplineSet
EndChar

StartChar: zcaron
Encoding: 382 382 228
Width: 540
Flags: W
LayerCount: 2
Fore
SplineSet
263 74 m 1,0,-1
 485 74 l 1,1,-1
 485 0 l 1,2,-1
 167 0 l 1,3,-1
 167 80 l 1,4,-1
 401 426 l 1,5,-1
 187 426 l 1,6,-1
 187 500 l 1,7,-1
 495 500 l 1,8,-1
 495 411 l 1,9,-1
 263 74 l 1,0,-1
286 714 m 1,10,-1
 346 639 l 1,11,-1
 406 714 l 1,12,-1
 502 714 l 1,13,-1
 390 579 l 1,14,-1
 302 579 l 1,15,-1
 189 714 l 1,16,-1
 286 714 l 1,10,-1
EndSplineSet
EndChar

StartChar: quotedbl
Encoding: 34 34 229
Width: 540
Flags: W
LayerCount: 2
Fore
SplineSet
220 453 m 1,0,-1
 165 453 l 1,1,-1
 145 610 l 1,2,-1
 145 700 l 1,3,-1
 240 700 l 1,4,-1
 240 610 l 1,5,-1
 220 453 l 1,0,-1
375 453 m 1,6,-1
 320 453 l 1,7,-1
 300 610 l 1,8,-1
 300 700 l 1,9,-1
 395 700 l 1,10,-1
 395 610 l 1,11,-1
 375 453 l 1,6,-1
EndSplineSet
EndChar

StartChar: exclam
Encoding: 33 33 230
Width: 540
Flags: W
LayerCount: 2
Fore
SplineSet
220 0 m 1,0,-1
 220 100 l 1,1,-1
 320 100 l 1,2,-1
 320 0 l 1,3,-1
 220 0 l 1,0,-1
227 208 m 1,4,-1
 227 700 l 1,5,-1
 312 700 l 1,6,-1
 312 208 l 1,7,-1
 227 208 l 1,4,-1
EndSplineSet
EndChar

StartChar: uni00AD
Encoding: 173 173 232
Width: 540
Flags: W
LayerCount: 2
Fore
SplineSet
107 275 m 1,0,-1
 107 350 l 1,1,-1
 432 350 l 1,2,-1
 432 275 l 1,3,-1
 107 275 l 1,0,-1
EndSplineSet
EndChar

StartChar: uni02C9
Encoding: 713 713 233
Width: 540
Flags: W
LayerCount: 2
Fore
SplineSet
142 605 m 1,0,-1
 142 675 l 1,1,-1
 397 675 l 1,2,-1
 397 605 l 1,3,-1
 142 605 l 1,0,-1
EndSplineSet
EndChar

StartChar: uni03BC
Encoding: 956 956 234
Width: 540
Flags: W
LayerCount: 2
Fore
SplineSet
103 -170 m 1,0,-1
 103 500 l 1,1,-1
 188 500 l 1,2,-1
 188 140 l 2,3,4
 188 110 188 110 205.5 92.5 c 128,-1,5
 223 75 223 75 253 75 c 2,6,-1
 287 75 l 2,7,8
 306 75 306 75 318.5 81 c 128,-1,9
 331 87 331 87 338.5 95 c 128,-1,10
 346 103 346 103 349 113 c 128,-1,11
 352 123 352 123 352 130 c 2,12,-1
 352 500 l 1,13,-1
 437 500 l 1,14,-1
 437 0 l 1,15,-1
 357 0 l 1,16,-1
 357 23 l 1,17,18
 324 0 324 0 277 0 c 2,19,-1
 263 0 l 2,20,21
 218 0 218 0 188 10 c 1,22,-1
 188 -170 l 1,23,-1
 103 -170 l 1,0,-1
EndSplineSet
EndChar

StartChar: pi
Encoding: 960 960 235
Width: 540
Flags: W
LayerCount: 2
Fore
SplineSet
127 0 m 1,0,-1
 127 427 l 1,1,-1
 48 427 l 1,2,-1
 48 500 l 1,3,-1
 492 500 l 1,4,-1
 492 427 l 1,5,-1
 402 427 l 1,6,-1
 402 105 l 2,7,8
 402 89 402 89 409.5 82 c 128,-1,9
 417 75 417 75 437 75 c 2,10,-1
 452 75 l 1,11,-1
 452 0 l 1,12,-1
 402 0 l 2,13,14
 387 0 387 0 372 5 c 128,-1,15
 357 10 357 10 345 21.5 c 128,-1,16
 333 33 333 33 325 52.5 c 128,-1,17
 317 72 317 72 317 100 c 2,18,-1
 317 427 l 1,19,-1
 212 427 l 1,20,-1
 212 0 l 1,21,-1
 127 0 l 1,0,-1
EndSplineSet
EndChar

StartChar: Euro
Encoding: 8364 8364 236
Width: 540
Flags: W
LayerCount: 2
Fore
SplineSet
415 407 m 1,0,-1
 246 407 l 1,1,-1
 246 310 l 1,2,-1
 415 310 l 1,3,-1
 415 237 l 1,4,-1
 246 237 l 1,5,-1
 246 151 l 2,6,7
 246 121 246 121 268.5 98.5 c 128,-1,8
 291 76 291 76 329 76 c 2,9,-1
 451 76 l 1,10,-1
 451 0 l 1,11,-1
 339 0 l 2,12,13
 252 0 252 0 205.5 42 c 128,-1,14
 159 84 159 84 159 170 c 2,15,-1
 159 237 l 1,16,-1
 89 237 l 1,17,-1
 89 310 l 1,18,-1
 159 310 l 1,19,-1
 159 407 l 1,20,-1
 89 407 l 1,21,-1
 89 480 l 1,22,-1
 159 480 l 1,23,-1
 159 530 l 2,24,25
 159 616 159 616 205.5 658 c 128,-1,26
 252 700 252 700 339 700 c 2,27,-1
 451 700 l 1,28,-1
 451 624 l 1,29,-1
 329 624 l 2,30,31
 291 624 291 624 268.5 601.5 c 128,-1,32
 246 579 246 579 246 549 c 2,33,-1
 246 480 l 1,34,-1
 415 480 l 1,35,-1
 415 407 l 1,0,-1
EndSplineSet
EndChar

StartChar: Omega
Encoding: 8486 8486 237
Width: 540
Flags: W
LayerCount: 2
Fore
SplineSet
312 0 m 1,0,-1
 312 76 l 1,1,2
 340 76 340 76 358.5 98.5 c 128,-1,3
 377 121 377 121 377 151 c 2,4,-1
 377 549 l 2,5,6
 377 579 377 579 354.5 601.5 c 128,-1,7
 332 624 332 624 294 624 c 2,8,-1
 240 624 l 2,9,10
 202 624 202 624 179.5 601.5 c 128,-1,11
 157 579 157 579 157 549 c 2,12,-1
 157 151 l 2,13,14
 157 121 157 121 177.5 98.5 c 128,-1,15
 198 76 198 76 228 76 c 1,16,-1
 228 0 l 1,17,-1
 45 0 l 1,18,-1
 45 76 l 1,19,-1
 94 76 l 1,20,21
 83 96 83 96 76.5 120 c 128,-1,22
 70 144 70 144 70 170 c 2,23,-1
 70 530 l 2,24,25
 70 616 70 616 116.5 658 c 128,-1,26
 163 700 163 700 250 700 c 2,27,-1
 284 700 l 2,28,29
 371 700 371 700 417.5 658 c 128,-1,30
 464 616 464 616 464 530 c 2,31,-1
 464 170 l 2,32,33
 464 117 464 117 441 76 c 1,34,-1
 495 76 l 1,35,-1
 495 0 l 1,36,-1
 312 0 l 1,0,-1
EndSplineSet
Position2: "'cpsp' Capital Spacing in Latin lookup 0 subtable" dx=5 dy=0 dh=10 dv=0
EndChar

StartChar: partialdiff
Encoding: 8706 8706 238
Width: 540
Flags: W
LayerCount: 2
Fore
SplineSet
96 280 m 2,0,1
 96 366 96 366 137.5 403 c 128,-1,2
 179 440 179 440 264 440 c 2,3,-1
 362 440 l 1,4,-1
 362 549 l 2,5,6
 362 579 362 579 339.5 601.5 c 128,-1,7
 317 624 317 624 279 624 c 2,8,-1
 144 624 l 1,9,-1
 144 700 l 1,10,-1
 269 700 l 2,11,12
 356 700 356 700 401.5 658 c 128,-1,13
 447 616 447 616 447 530 c 2,14,-1
 447 170 l 2,15,16
 447 127 447 127 434.5 95 c 128,-1,17
 422 63 422 63 400 42 c 128,-1,18
 378 21 378 21 349.5 10.5 c 128,-1,19
 321 0 321 0 289 0 c 2,20,-1
 254 0 l 2,21,22
 222 0 222 0 193.5 10.5 c 128,-1,23
 165 21 165 21 143 42 c 128,-1,24
 121 63 121 63 108.5 95 c 128,-1,25
 96 127 96 127 96 170 c 2,26,-1
 96 280 l 2,0,1
254 365 m 2,27,28
 216 365 216 365 198.5 347 c 128,-1,29
 181 329 181 329 181 299 c 2,30,-1
 181 151 l 2,31,32
 181 121 181 121 201 98 c 128,-1,33
 221 75 221 75 259 75 c 2,34,-1
 284 75 l 2,35,36
 322 75 322 75 342 98 c 128,-1,37
 362 121 362 121 362 151 c 2,38,-1
 362 365 l 1,39,-1
 254 365 l 2,27,28
EndSplineSet
EndChar

StartChar: Delta
Encoding: 8710 8710 239
Width: 540
Flags: W
LayerCount: 2
Fore
SplineSet
50 0 m 1,0,-1
 218 700 l 1,1,-1
 329 700 l 1,2,-1
 490 0 l 1,3,-1
 50 0 l 1,0,-1
273 625 m 1,4,-1
 158 75 l 1,5,-1
 382 75 l 1,6,-1
 273 625 l 1,4,-1
EndSplineSet
Position2: "'cpsp' Capital Spacing in Latin lookup 0 subtable" dx=5 dy=0 dh=10 dv=0
EndChar

StartChar: product
Encoding: 8719 8719 240
Width: 540
Flags: W
LayerCount: 2
Fore
SplineSet
122 0 m 1,0,-1
 122 625 l 1,1,-1
 43 625 l 1,2,-1
 43 700 l 1,3,-1
 497 700 l 1,4,-1
 497 625 l 1,5,-1
 406 625 l 1,6,-1
 406 105 l 2,7,8
 406 89 406 89 412.5 82 c 128,-1,9
 419 75 419 75 439 75 c 2,10,-1
 454 75 l 1,11,-1
 454 0 l 1,12,-1
 404 0 l 2,13,14
 389 0 389 0 374 5 c 128,-1,15
 359 10 359 10 347 21.5 c 128,-1,16
 335 33 335 33 327 52.5 c 128,-1,17
 319 72 319 72 319 100 c 2,18,-1
 319 625 l 1,19,-1
 209 625 l 1,20,-1
 209 0 l 1,21,-1
 122 0 l 1,0,-1
EndSplineSet
EndChar

StartChar: summation
Encoding: 8721 8721 241
Width: 540
Flags: W
LayerCount: 2
Fore
SplineSet
77 -170 m 1,0,-1
 77 -76 l 1,1,-1
 245 267 l 1,2,-1
 90 605 l 1,3,-1
 90 700 l 1,4,-1
 451 700 l 1,5,-1
 451 625 l 1,6,-1
 178 625 l 1,7,-1
 340 267 l 1,8,-1
 163 -96 l 1,9,-1
 462 -96 l 1,10,-1
 462 -170 l 1,11,-1
 77 -170 l 1,0,-1
EndSplineSet
EndChar

StartChar: uni2215
Encoding: 8725 8725 242
Width: 540
Flags: W
LayerCount: 2
Fore
SplineSet
150 -100 m 1,0,-1
 70 -100 l 1,1,-1
 390 810 l 1,2,-1
 470 810 l 1,3,-1
 150 -100 l 1,0,-1
EndSplineSet
EndChar

StartChar: uni2219
Encoding: 8729 8729 243
Width: 540
Flags: W
LayerCount: 2
Fore
SplineSet
220 260 m 1,0,-1
 220 360 l 1,1,-1
 320 360 l 1,2,-1
 320 260 l 1,3,-1
 220 260 l 1,0,-1
EndSplineSet
EndChar

StartChar: radical
Encoding: 8730 8730 244
Width: 540
Flags: W
LayerCount: 2
Fore
SplineSet
411 745 m 1,0,-1
 246 0 l 1,1,-1
 121 0 l 1,2,-1
 22 392 l 1,3,-1
 111 392 l 1,4,-1
 183 81 l 1,5,-1
 340 820 l 1,6,-1
 517 820 l 1,7,-1
 517 745 l 1,8,-1
 411 745 l 1,0,-1
EndSplineSet
EndChar

StartChar: infinity
Encoding: 8734 8734 245
Width: 540
Flags: W
LayerCount: 2
Fore
SplineSet
270 194 m 1,0,1
 252 168 252 168 228 154.5 c 128,-1,2
 204 141 204 141 164 141 c 2,3,-1
 154 141 l 2,4,5
 113 141 113 141 85.5 151.5 c 128,-1,6
 58 162 58 162 42 182 c 128,-1,7
 26 202 26 202 19.5 231.5 c 128,-1,8
 13 261 13 261 13 298 c 2,9,-1
 13 318 l 2,10,11
 13 356 13 356 19.5 385 c 128,-1,12
 26 414 26 414 42 434 c 128,-1,13
 58 454 58 454 85.5 464.5 c 128,-1,14
 113 475 113 475 154 475 c 2,15,-1
 164 475 l 2,16,17
 204 475 204 475 229 461.5 c 128,-1,18
 254 448 254 448 272 422 c 1,19,20
 290 448 290 448 313 461.5 c 128,-1,21
 336 475 336 475 376 475 c 2,22,-1
 386 475 l 2,23,24
 427 475 427 475 454.5 464.5 c 128,-1,25
 482 454 482 454 498 434 c 128,-1,26
 514 414 514 414 520.5 385 c 128,-1,27
 527 356 527 356 527 318 c 2,28,-1
 527 303 l 2,29,30
 527 266 527 266 520.5 236 c 128,-1,31
 514 206 514 206 498 185 c 128,-1,32
 482 164 482 164 454.5 152.5 c 128,-1,33
 427 141 427 141 386 141 c 2,34,-1
 376 141 l 2,35,36
 336 141 336 141 312 154.5 c 128,-1,37
 288 168 288 168 270 194 c 1,0,1
448 342 m 1,38,39
 446 376 446 376 431.5 390.5 c 128,-1,40
 417 405 417 405 381 405 c 2,41,-1
 374 405 l 2,42,43
 342 405 342 405 327.5 386.5 c 128,-1,44
 313 368 313 368 311 340 c 1,45,-1
 311 282 l 2,46,47
 311 252 311 252 325.5 231.5 c 128,-1,48
 340 211 340 211 374 211 c 2,49,-1
 381 211 l 2,50,51
 419 211 419 211 433.5 227.5 c 128,-1,52
 448 244 448 244 448 282 c 2,53,-1
 448 342 l 1,38,39
92 274 m 1,54,55
 94 240 94 240 108.5 225.5 c 128,-1,56
 123 211 123 211 159 211 c 2,57,-1
 166 211 l 2,58,59
 198 211 198 211 212.5 229.5 c 128,-1,60
 227 248 227 248 229 276 c 1,61,-1
 229 334 l 2,62,63
 229 364 229 364 214.5 384.5 c 128,-1,64
 200 405 200 405 166 405 c 2,65,-1
 159 405 l 2,66,67
 121 405 121 405 106.5 388.5 c 128,-1,68
 92 372 92 372 92 334 c 2,69,-1
 92 274 l 1,54,55
EndSplineSet
EndChar

StartChar: uni2224
Encoding: 8740 8740 246
Width: 540
Flags: W
LayerCount: 2
Fore
SplineSet
220 260 m 1,0,-1
 220 360 l 1,1,-1
 320 360 l 1,2,-1
 320 260 l 1,3,-1
 220 260 l 1,0,-1
EndSplineSet
EndChar

StartChar: logicaland
Encoding: 8743 8743 247
Width: 540
Flags: W
LayerCount: 2
Fore
SplineSet
220 260 m 1,0,-1
 220 360 l 1,1,-1
 320 360 l 1,2,-1
 320 260 l 1,3,-1
 220 260 l 1,0,-1
EndSplineSet
EndChar

StartChar: integral
Encoding: 8747 8747 248
Width: 540
Flags: W
LayerCount: 2
Fore
SplineSet
190 -160 m 2,0,1
 207 -160 207 -160 216 -151.5 c 128,-1,2
 225 -143 225 -143 225 -130 c 2,3,-1
 225 710 l 2,4,5
 225 763 225 763 254.5 791.5 c 128,-1,6
 284 820 284 820 329 820 c 2,7,-1
 471 820 l 1,8,-1
 471 745 l 1,9,-1
 345 745 l 2,10,11
 328 745 328 745 319 736.5 c 128,-1,12
 310 728 310 728 310 715 c 2,13,-1
 310 -125 l 2,14,15
 310 -178 310 -178 280.5 -206.5 c 128,-1,16
 251 -235 251 -235 206 -235 c 2,17,-1
 69 -235 l 1,18,-1
 69 -160 l 1,19,-1
 190 -160 l 2,0,1
EndSplineSet
EndChar

StartChar: approxequal
Encoding: 8776 8776 249
Width: 540
Flags: W
LayerCount: 2
Fore
SplineSet
100 423 m 1,0,1
 122 433 122 433 141 441 c 0,2,3
 158 448 158 448 174 453 c 128,-1,4
 190 458 190 458 197 458 c 2,5,-1
 212 458 l 2,6,7
 221 458 221 458 239.5 452 c 128,-1,8
 258 446 258 446 278 438.5 c 128,-1,9
 298 431 298 431 316 424.5 c 128,-1,10
 334 418 334 418 343 418 c 2,11,-1
 353 418 l 2,12,13
 358 418 358 418 372 423.5 c 128,-1,14
 386 429 386 429 401 436 c 0,15,16
 419 444 419 444 440 454 c 1,17,-1
 440 374 l 1,18,19
 420 365 420 365 402 357 c 0,20,21
 387 350 387 350 373 344.5 c 128,-1,22
 359 339 359 339 352 339 c 2,23,-1
 337 339 l 2,24,25
 332 339 332 339 314 345.5 c 128,-1,26
 296 352 296 352 274.5 359.5 c 128,-1,27
 253 367 253 367 234 373 c 128,-1,28
 215 379 215 379 207 379 c 2,29,-1
 197 379 l 2,30,31
 192 379 192 379 176 373.5 c 128,-1,32
 160 368 160 368 143 361 c 0,33,34
 123 353 123 353 100 343 c 1,35,-1
 100 423 l 1,0,1
100 254 m 1,36,37
 122 264 122 264 141 272 c 0,38,39
 158 279 158 279 174 284 c 128,-1,40
 190 289 190 289 197 289 c 2,41,-1
 212 289 l 2,42,43
 221 289 221 289 239.5 283 c 128,-1,44
 258 277 258 277 278 269.5 c 128,-1,45
 298 262 298 262 316 255.5 c 128,-1,46
 334 249 334 249 343 249 c 2,47,-1
 353 249 l 2,48,49
 358 249 358 249 372 254.5 c 128,-1,50
 386 260 386 260 401 267 c 0,51,52
 419 275 419 275 440 285 c 1,53,-1
 440 205 l 1,54,55
 420 196 420 196 402 188 c 0,56,57
 387 181 387 181 373 175.5 c 128,-1,58
 359 170 359 170 352 170 c 2,59,-1
 337 170 l 2,60,61
 332 170 332 170 314 176.5 c 128,-1,62
 296 183 296 183 274.5 190.5 c 128,-1,63
 253 198 253 198 234 204 c 128,-1,64
 215 210 215 210 207 210 c 2,65,-1
 197 210 l 2,66,67
 192 210 192 210 176 204.5 c 128,-1,68
 160 199 160 199 143 192 c 0,69,70
 123 184 123 184 100 174 c 1,71,-1
 100 254 l 1,36,37
EndSplineSet
EndChar

StartChar: notequal
Encoding: 8800 8800 250
Width: 540
Flags: W
LayerCount: 2
Fore
SplineSet
349 375 m 1,0,-1
 271 250 l 1,1,-1
 460 250 l 1,2,-1
 460 175 l 1,3,-1
 225 175 l 1,4,-1
 160 70 l 1,5,-1
 80 70 l 1,6,-1
 145 175 l 1,7,-1
 80 175 l 1,8,-1
 80 250 l 1,9,-1
 191 250 l 1,10,-1
 269 375 l 1,11,-1
 80 375 l 1,12,-1
 80 450 l 1,13,-1
 315 450 l 1,14,-1
 380 555 l 1,15,-1
 460 555 l 1,16,-1
 395 450 l 1,17,-1
 460 450 l 1,18,-1
 460 375 l 1,19,-1
 349 375 l 1,0,-1
EndSplineSet
EndChar

StartChar: lessequal
Encoding: 8804 8804 251
Width: 540
Flags: W
LayerCount: 2
Fore
SplineSet
80 280 m 1,0,-1
 80 385 l 1,1,-1
 460 564 l 1,2,-1
 460 472 l 1,3,-1
 152 336 l 1,4,-1
 460 219 l 1,5,-1
 460 125 l 1,6,-1
 80 280 l 1,0,-1
80 0 m 1,7,-1
 80 75 l 1,8,-1
 460 75 l 1,9,-1
 460 0 l 1,10,-1
 80 0 l 1,7,-1
EndSplineSet
EndChar

StartChar: greaterequal
Encoding: 8805 8805 252
Width: 540
Flags: W
LayerCount: 2
Fore
SplineSet
80 125 m 1,0,-1
 80 219 l 1,1,-1
 388 336 l 1,2,-1
 80 472 l 1,3,-1
 80 564 l 1,4,-1
 460 385 l 1,5,-1
 460 280 l 1,6,-1
 80 125 l 1,0,-1
80 0 m 1,7,-1
 80 75 l 1,8,-1
 460 75 l 1,9,-1
 460 0 l 1,10,-1
 80 0 l 1,7,-1
EndSplineSet
EndChar

StartChar: dotmath
Encoding: 8901 8901 253
Width: 540
Flags: W
LayerCount: 2
Fore
SplineSet
220 260 m 1,0,-1
 220 360 l 1,1,-1
 320 360 l 1,2,-1
 320 260 l 1,3,-1
 220 260 l 1,0,-1
EndSplineSet
EndChar

StartChar: uni25AF
Encoding: 9647 9647 254
Width: 540
Flags: W
LayerCount: 2
Fore
SplineSet
84 700 m 1,0,-1
 456 700 l 1,1,-1
 456 0 l 1,2,-1
 84 0 l 1,3,-1
 84 700 l 1,0,-1
381 72 m 1,4,-1
 381 628 l 1,5,-1
 159 628 l 1,6,-1
 159 72 l 1,7,-1
 381 72 l 1,4,-1
EndSplineSet
EndChar

StartChar: lozenge
Encoding: 9674 9674 255
Width: 540
Flags: W
LayerCount: 2
Fore
SplineSet
325 0 m 1,0,-1
 213 0 l 1,1,-1
 75 350 l 1,2,-1
 215 700 l 1,3,-1
 325 700 l 1,4,-1
 465 350 l 1,5,-1
 325 0 l 1,0,-1
270 630 m 1,6,-1
 162 350 l 1,7,-1
 270 70 l 1,8,-1
 378 350 l 1,9,-1
 270 630 l 1,6,-1
EndSplineSet
EndChar
